{
.appVersion = "1209";
copyright = "Copyright 2018 The Kreon Project Authors (https://github.com/googlefonts/kreon)";
customParameters = (
{
name = license;
value = "This Font Software is licensed under the SIL Open Font License, Version 1.1. This license is available with a FAQ at: http://scripts.sil.org/OFL";
},
{
name = licenseURL;
value = "http://scripts.sil.org/OFL";
},
{
name = trademark;
value = "Kreon Light is a trademark of Julia Petretta.";
},
{
name = fsType;
value = (
);
},
{
name = Axes;
value = (
{
Name = Weight;
Tag = wght;
}
);
},
{
name = "Use Typo Metrics";
value = 1;
},
{
name = "Disable Last Change";
value = 1;
},
{
name = "Use Line Breaks";
value = 1;
},
{
name = vendorID;
value = PYRS;
}
);
date = "2018-08-06 00:06:39 +0000";
designer = "Julia Petretta";
designerURL = "https://juliapetretta.net";
disablesNiceNames = 1;
familyName = Kreon;
features = (
{
code = " # Kerning
@_KERN_A = [A Aacute Acircumflex Adieresis Agrave Aring Atilde];
@_KERN_C_1ST = [C Ccedilla];
@_KERN_C_2ND = [C Ccedilla G];
@_KERN_D_1ST = [D Eth];
@_KERN_E_1ST = [E AE Eacute Ecircumflex Edieresis Egrave OE];
@_KERN_E_2ND = [E D Eacute Ecircumflex Edieresis Egrave Eth F];
@_KERN_H_1ST = [H M];
@_KERN_H_2ND = [H B M N Ntilde P R];
@_KERN_I_1ST = [I Iacute Icircumflex Idieresis Igrave];
@_KERN_I_2ND = [I Iacute Icircumflex Idieresis Igrave K Thorn];
@_KERN_N_1ST = [N Ntilde];
@_KERN_O_1ST = [O Oacute Ocircumflex Odieresis Ograve Oslash Otilde Q];
@_KERN_O_2ND = [O OE Oacute Ocircumflex Odieresis Ograve Oslash Otilde Q];
@_KERN_U = [U Uacute Ucircumflex Udieresis Ugrave];
@_KERN_Y = [Y Yacute];
@_KERN_a_1ST = [a aacute acircumflex adieresis agrave aring atilde];
@_KERN_a_2ND = [a aacute acircumflex adieresis ae agrave aring atilde];
@_KERN_b_1ST = [b p thorn];
@_KERN_c_1ST = [c ccedilla];
@_KERN_d_2ND = [d q];
@_KERN_e_1ST = [e ae eacute ecircumflex edieresis egrave oe];
@_KERN_h_2ND = [h k];
@_KERN_hyphen = [hyphen emdash endash];

glyphs = (
{
color = 4;
glyphname = A;
layers = (
{
anchors = (
{
name = bottom;
position = "{281, 0}";
},
{
name = ogonek;
position = "{499, 0}";
},
{
name = top;
position = "{280, 691}";
}
);
layerId = "CBC04B6C-E875-491C-A1C2-2B8D0972DDA1";
paths = (
{
closed = 1;
nodes = (
"205 0 LINE",
"205 45 LINE",
"117 62 LINE",
"169 241 LINE",
"392 241 LINE",
"445 65 LINE",
"364 44 LINE",
"364 0 LINE {name = hr00;}",
"555 0 LINE",
"566 47 LINE",
"519 65 LINE",
"327 691 LINE",
"243 691 LINE",
"52 65 LINE",
"-2 47 LINE",
"11 0 LINE"
);
},
{
closed = 1;
nodes = (
"279 616 LINE",
"373 304 LINE",
"188 304 LINE"
);
}
);
width = 570;
},
{
anchors = (
{
name = bottom;
position = "{295, 0}";
},
{
name = ogonek;
position = "{535, 0}";
},
{
name = top;
position = "{310, 691}";
}
);
layerId = "682D4A5D-117B-492A-B436-118C610C28E8";
paths = (
{
closed = 1;
nodes = (
"247 0 LINE",
"247 76 LINE",
"159 92 LINE",
"197 218 LINE",
"393 218 LINE",
"429 96 LINE",
"349 75 LINE",
"349 0 LINE",
"609 0 LINE {name = hr00;}",
"619 78 LINE",
"573 96 LINE",
"372 691 LINE",
"248 691 LINE",
"50 96 LINE",
"-5 78 LINE",
"8 0 LINE"
);
},
{
closed = 1;
nodes = (
"296 549 LINE",
"349 323 LINE",
"228 323 LINE"
);
}
);
width = 621;
},
{
layerId = "97A2F932-1121-41E4-AD06-4A872C221506";
paths = (
{
closed = 1;
nodes = (
"609 0 LINE",
"619 78 LINE",
"573 96 LINE",
"372 690 LINE",
"248 690 LINE",
"50 96 LINE",
"-5 78 LINE",
"8 0 LINE",
"247 0 LINE",
"247 76 LINE",
"159 92 LINE",
"197 218 LINE",
"393 218 LINE",
"429 96 LINE",
"349 75 LINE",
"349 0 LINE"
);
},
{
closed = 1;
nodes = (
"296 548 LINE",
"349 323 LINE",
"228 323 LINE"
);
}
);
width = 621;
},
{
layerId = "2CA35139-2F15-4242-9EF2-18C03B487D0C";
paths = (
{
closed = 1;
nodes = (
"555 0 LINE",
"566 47 LINE",
"519 65 LINE",
"327 691 LINE",
"243 691 LINE",
"52 65 LINE",
"-2 47 LINE",
"11 0 LINE",
"205 0 LINE",
"205 45 LINE",
"117 62 LINE",
"169 241 LINE",
"392 241 LINE",
"445 65 LINE",
"364 44 LINE",
"364 0 LINE"
);
},
{
closed = 1;
nodes = (
"373 304 LINE",
"188 304 LINE",
"279 616 LINE"
);
}
);
width = 570;
},
{
layerId = "632A4CD3-2375-47CC-B7F1-E224D812DAB9";
paths = (
{
closed = 1;
nodes = (
"12 0 LINE",
"228 0 LINE",
"228 60 LINE",
"142 80 LINE",
"188 228 LINE",
"402 228 LINE",
"450 80 LINE",
"362 59 LINE",
"362 0 LINE",
"597 0 LINE",
"608 62 LINE",
"562 80 LINE",
"349 691 LINE",
"253 691 LINE",
"51 80 LINE",
"-1 62 LINE"
);
},
{
closed = 1;
nodes = (
"292 565 LINE",
"374 314 LINE",
"214 314 LINE"
);
}
);
width = 608;
}
);
leftKerningGroup = A;
rightKerningGroup = A;
unicode = 0041;
userData = {
com.typemytype.robofont.mark = (
0.713,
0.6,
1,
1
);
};
},
{
color = 4;
glyphname = Aacute;
layers = (
{
components = (
{
name = A;
},
{
name = acutecomb.case;
transform = "{1, 0, 0, 1, 280, 210}";
}
);
layerId = "CBC04B6C-E875-491C-A1C2-2B8D0972DDA1";
width = 570;
},
{
components = (
{
name = A;
},
{
name = acutecomb.case;
transform = "{1, 0, 0, 1, 310, 200}";
}
);
layerId = "682D4A5D-117B-492A-B436-118C610C28E8";
width = 621;
},
{
layerId = "97A2F932-1121-41E4-AD06-4A872C221506";
paths = (
{
closed = 1;
nodes = (
"609 0 LINE",
"619 78 LINE",
"573 96 LINE",
"372 691 LINE",
"248 691 LINE",
"50 96 LINE",
"-5 78 LINE",
"8 0 LINE",
"247 0 LINE",
"247 76 LINE",
"159 92 LINE",
"197 218 LINE",
"393 218 LINE",
"429 96 LINE",
"349 75 LINE",
"349 0 LINE"
);
},
{
closed = 1;
nodes = (
"296 549 LINE",
"349 323 LINE",
"228 323 LINE"
);
},
{
closed = 1;
nodes = (
"234 741 LINE",
"431 865 LINE",
"353 974 LINE",
"316 959 LINE",
"187 795 LINE"
);
}
);
width = 621;
},
{
layerId = "2CA35139-2F15-4242-9EF2-18C03B487D0C";
paths = (
{
closed = 1;
nodes = (
"208 717 LINE",
"401 818 LINE",
"364 890 LINE",
"334 897 LINE",
"176 764 LINE"
);
},
{
closed = 1;
nodes = (
"555 0 LINE",
"566 47 LINE",
"519 65 LINE",
"327 691 LINE",
"243 691 LINE",
"52 65 LINE",
"-2 47 LINE",
"11 0 LINE",
"205 0 LINE",
"205 45 LINE",
"117 62 LINE",
"169 241 LINE",
"392 241 LINE",
"445 65 LINE",
"364 44 LINE",
"364 0 LINE"
);
},
{
closed = 1;
nodes = (
"373 304 LINE",
"188 304 LINE",
"279 616 LINE"
);
}
);
width = 570;
},
{
layerId = "632A4CD3-2375-47CC-B7F1-E224D812DAB9";
paths = (
{
closed = 1;
nodes = (
"12 0 LINE",
"228 0 LINE",
"228 60 LINE",
"142 80 LINE",
"188 228 LINE",
"402 228 LINE",
"450 80 LINE",
"362 59 LINE",
"362 0 LINE",
"597 0 LINE",
"608 62 LINE",
"562 80 LINE",
"349 691 LINE",
"253 691 LINE",
"51 80 LINE",
"-1 62 LINE"
);
},
{
closed = 1;
nodes = (
"189 780 LINE",
"228 729 LINE",
"423 841 LINE",
"365 932 LINE",
"332 928 LINE"
);
},
{
closed = 1;
nodes = (
"292 565 LINE",
"374 314 LINE",
"214 314 LINE"
);
}
);
width = 608;
}
);
unicode = 00C1;
},
{
color = 4;
glyphname = Acircumflex;
layers = (
{
components = (
{
name = A;
},
{
name = circumflexcomb.case;
transform = "{1, 0, 0, 1, 280, 210}";
}
);
layerId = "CBC04B6C-E875-491C-A1C2-2B8D0972DDA1";
width = 570;
},
{
components = (
{
name = A;
},
{
name = circumflexcomb.case;
transform = "{1, 0, 0, 1, 310, 200}";
}
);
layerId = "682D4A5D-117B-492A-B436-118C610C28E8";
width = 621;
},
{
layerId = "97A2F932-1121-41E4-AD06-4A872C221506";
paths = (
{
closed = 1;
nodes = (
"121 724 LINE",
"206 724 LINE",
"304 782 LINE",
"401 724 LINE",
"487 724 LINE",
"495 736 LINE",
"323 903 LINE",
"286 903 LINE",
"115 737 LINE"
);
},
{
closed = 1;
nodes = (
"609 0 LINE",
"619 78 LINE",
"573 96 LINE",
"372 691 LINE",
"248 691 LINE",
"50 96 LINE",
"-5 78 LINE",
"8 0 LINE",
"247 0 LINE",
"247 76 LINE",
"159 92 LINE",
"197 218 LINE",
"393 218 LINE",
"429 96 LINE",
"349 75 LINE",
"349 0 LINE"
);
},
{
closed = 1;
nodes = (
"296 549 LINE",
"349 323 LINE",
"228 323 LINE"
);
}
);
width = 621;
},
{
layerId = "2CA35139-2F15-4242-9EF2-18C03B487D0C";
paths = (
{
closed = 1;
nodes = (
"131 727 LINE",
"205 727 LINE",
"280 790 LINE",
"356 727 LINE",
"429 727 LINE",
"289 884 LINE",
"273 884 LINE"
);
},
{
closed = 1;
nodes = (
"555 0 LINE",
"566 47 LINE",
"519 65 LINE",
"327 691 LINE",
"243 691 LINE",
"52 65 LINE",
"-2 47 LINE",
"11 0 LINE",
"205 0 LINE",
"205 45 LINE",
"117 62 LINE",
"169 241 LINE",
"392 241 LINE",
"445 65 LINE",
"364 44 LINE",
"364 0 LINE"
);
},
{
closed = 1;
nodes = (
"373 304 LINE",
"188 304 LINE",
"279 616 LINE"
);
}
);
width = 570;
},
{
layerId = "632A4CD3-2375-47CC-B7F1-E224D812DAB9";
paths = (
{
closed = 1;
nodes = (
"12 0 LINE",
"228 0 LINE",
"228 60 LINE",
"142 80 LINE",
"188 228 LINE",
"402 228 LINE",
"450 80 LINE",
"362 59 LINE",
"362 0 LINE",
"597 0 LINE",
"608 62 LINE",
"562 80 LINE",
"349 691 LINE",
"253 691 LINE",
"51 80 LINE",
"-1 62 LINE"
);
},
{
closed = 1;
nodes = (
"291 894 LINE",
"134 732 LINE",
"137 726 LINE",
"217 726 LINE",
"303 785 LINE",
"390 726 LINE",
"471 726 LINE",
"473 731 LINE",
"317 894 LINE"
);
},
{
closed = 1;
nodes = (
"292 565 LINE",
"374 314 LINE",
"214 314 LINE"
);
}
);
width = 608;
}
);
unicode = 00C2;
},
{
color = 4;
glyphname = Adieresis;
layers = (
{
anchors = (
{
name = _top;
position = "{280, 691}";
},
{
name = top;
position = "{280, 881}";
}
);
components = (
{
name = A;
}
);
layerId = "CBC04B6C-E875-491C-A1C2-2B8D0972DDA1";
paths = (
{
closed = 1;
nodes = (
"390 714 OFFCURVE",
"415 742 OFFCURVE",
"415 771 CURVE SMOOTH",
"415 802 OFFCURVE",
"390 828 OFFCURVE",
"361 828 CURVE SMOOTH",
"328 828 OFFCURVE",
"304 802 OFFCURVE",
"304 771 CURVE SMOOTH {name = hr00;}",
"304 742 OFFCURVE",
"328 714 OFFCURVE",
"361 714 CURVE SMOOTH"
);
},
{
closed = 1;
nodes = (
"214 715 OFFCURVE",
"239 743 OFFCURVE",
"239 772 CURVE SMOOTH",
"239 803 OFFCURVE",
"214 829 OFFCURVE",
"185 829 CURVE SMOOTH",
"152 829 OFFCURVE",
"129 803 OFFCURVE",
"129 772 CURVE SMOOTH",
"129 743 OFFCURVE",
"152 715 OFFCURVE",
"185 715 CURVE SMOOTH"
);
}
);
width = 570;
},
{
anchors = (
{
name = _top;
position = "{310, 691}";
},
{
name = top;
position = "{310, 891}";
}
);
components = (
{
name = A;
}
);
layerId = "682D4A5D-117B-492A-B436-118C610C28E8";
paths = (
{
closed = 1;
nodes = (
"437 739 OFFCURVE",
"465 768 OFFCURVE",
"465 804 CURVE SMOOTH {name = hr02;}",
"465 841 OFFCURVE",
"437 869 OFFCURVE",
"400 869 CURVE SMOOTH {name = hr03;}",
"363 869 OFFCURVE",
"335 841 OFFCURVE",
"335 804 CURVE SMOOTH",
"335 768 OFFCURVE",
"363 739 OFFCURVE",
"400 739 CURVE SMOOTH {name = hr01;}"
);
},
{
closed = 1;
nodes = (
"260 739 OFFCURVE",
"288 768 OFFCURVE",
"288 804 CURVE SMOOTH",
"288 841 OFFCURVE",
"260 869 OFFCURVE",
"223 869 CURVE SMOOTH",
"187 869 OFFCURVE",
"158 841 OFFCURVE",
"158 804 CURVE SMOOTH {name = hr00;}",
"158 768 OFFCURVE",
"187 739 OFFCURVE",
"223 739 CURVE SMOOTH"
);
}
);
width = 621;
},
{
layerId = "97A2F932-1121-41E4-AD06-4A872C221506";
paths = (
{
closed = 1;
nodes = (
"609 0 LINE",
"619 78 LINE",
"573 96 LINE",
"372 690 LINE",
"248 690 LINE",
"50 96 LINE",
"-5 78 LINE",
"8 0 LINE",
"247 0 LINE",
"247 76 LINE",
"159 92 LINE",
"197 218 LINE",
"393 218 LINE",
"429 96 LINE",
"349 75 LINE",
"349 0 LINE"
);
},
{
closed = 1;
nodes = (
"296 548 LINE",
"349 323 LINE",
"228 323 LINE"
);
},
{
closed = 1;
nodes = (
"155 775 OFFCURVE",
"195 736 OFFCURVE",
"252 736 OFFCURVE",
"292 775 OFFCURVE",
"292 804 QCURVE SMOOTH",
"292 833 OFFCURVE",
"252 873 OFFCURVE",
"195 873 OFFCURVE",
"155 833 OFFCURVE",
"155 804 QCURVE SMOOTH"
);
},
{
closed = 1;
nodes = (
"333 775 OFFCURVE",
"372 736 OFFCURVE",
"401 736 QCURVE SMOOTH",
"430 736 OFFCURVE",
"468 775 OFFCURVE",
"468 804 QCURVE SMOOTH",
"468 833 OFFCURVE",
"430 873 OFFCURVE",
"401 873 QCURVE SMOOTH",
"372 873 OFFCURVE",
"333 833 OFFCURVE",
"333 804 QCURVE SMOOTH"
);
}
);
width = 621;
},
{
layerId = "2CA35139-2F15-4242-9EF2-18C03B487D0C";
paths = (
{
closed = 1;
nodes = (
"555 0 LINE",
"566 47 LINE",
"519 65 LINE",
"327 691 LINE",
"243 691 LINE",
"52 65 LINE",
"-2 47 LINE",
"11 0 LINE",
"205 0 LINE",
"205 45 LINE",
"117 62 LINE",
"169 241 LINE",
"392 241 LINE",
"445 65 LINE",
"364 44 LINE",
"364 0 LINE"
);
},
{
closed = 1;
nodes = (
"373 304 LINE",
"188 304 LINE",
"279 616 LINE"
);
},
{
closed = 1;
nodes = (
"127 748 OFFCURVE",
"160 714 OFFCURVE",
"207 714 OFFCURVE",
"242 748 OFFCURVE",
"242 772 QCURVE SMOOTH",
"242 796 OFFCURVE",
"207 829 OFFCURVE",
"160 829 OFFCURVE",
"127 796 OFFCURVE",
"127 772 QCURVE SMOOTH"
);
},
{
closed = 1;
nodes = (
"303 748 OFFCURVE",
"338 714 OFFCURVE",
"386 714 OFFCURVE",
"418 748 OFFCURVE",
"418 772 QCURVE SMOOTH",
"418 796 OFFCURVE",
"386 829 OFFCURVE",
"338 829 OFFCURVE",
"303 796 OFFCURVE",
"303 772 QCURVE SMOOTH"
);
}
);
width = 570;
},
{
layerId = "632A4CD3-2375-47CC-B7F1-E224D812DAB9";
paths = (
{
closed = 1;
nodes = (
"12 0 LINE",
"228 0 LINE",
"228 60 LINE",
"142 80 LINE",
"188 228 LINE",
"402 228 LINE",
"450 80 LINE",
"362 59 LINE",
"362 0 LINE",
"597 0 LINE",
"608 62 LINE",
"562 80 LINE",
"349 691 LINE",
"253 691 LINE",
"51 80 LINE",
"-1 62 LINE"
);
},
{
closed = 1;
nodes = (
"292 565 LINE",
"374 314 LINE",
"214 314 LINE"
);
},
{
closed = 1;
nodes = (
"457 899 OFFCURVE",
"420 937 OFFCURVE",
"367 937 OFFCURVE",
"329 899 OFFCURVE",
"329 848 OFFCURVE",
"368 809 OFFCURVE",
"419 809 OFFCURVE",
"457 847 OFFCURVE",
"457 873 QCURVE SMOOTH"
);
},
{
closed = 1;
nodes = (
"152 847 OFFCURVE",
"189 809 OFFCURVE",
"239 809 OFFCURVE",
"278 846 OFFCURVE",
"278 899 OFFCURVE",
"241 937 OFFCURVE",
"188 937 OFFCURVE",
"152 899 OFFCURVE",
"152 873 QCURVE SMOOTH"
);
}
);
width = 608;
}
);
unicode = 00C4;
},
{
color = 4;
glyphname = Agrave;
layers = (
{
components = (
{
name = A;
},
{
name = gravecomb.case;
transform = "{1, 0, 0, 1, 280, 210}";
}
);
layerId = "CBC04B6C-E875-491C-A1C2-2B8D0972DDA1";
width = 570;
},
{
components = (
{
name = A;
},
{
name = gravecomb.case;
transform = "{1, 0, 0, 1, 310, 200}";
}
);
layerId = "682D4A5D-117B-492A-B436-118C610C28E8";
width = 621;
},
{
layerId = "97A2F932-1121-41E4-AD06-4A872C221506";
paths = (
{
closed = 1;
nodes = (
"609 0 LINE",
"619 78 LINE",
"573 96 LINE",
"372 691 LINE",
"248 691 LINE",
"50 96 LINE",
"-5 78 LINE",
"8 0 LINE",
"247 0 LINE",
"247 76 LINE",
"159 92 LINE",
"197 218 LINE",
"393 218 LINE",
"429 96 LINE",
"349 75 LINE",
"349 0 LINE"
);
},
{
closed = 1;
nodes = (
"296 549 LINE",
"349 323 LINE",
"228 323 LINE"
);
},
{
closed = 1;
nodes = (
"418 765 LINE",
"306 942 LINE",
"271 959 LINE",
"194 868 LINE",
"377 724 LINE"
);
}
);
width = 621;
},
{
layerId = "2CA35139-2F15-4242-9EF2-18C03B487D0C";
paths = (
{
closed = 1;
nodes = (
"403 764 LINE",
"235 897 LINE",
"205 890 LINE",
"168 818 LINE",
"372 717 LINE"
);
},
{
closed = 1;
nodes = (
"555 0 LINE",
"566 47 LINE",
"519 65 LINE",
"327 691 LINE",
"243 691 LINE",
"52 65 LINE",
"-2 47 LINE",
"11 0 LINE",
"205 0 LINE",
"205 45 LINE",
"117 62 LINE",
"169 241 LINE",
"392 241 LINE",
"445 65 LINE",
"364 44 LINE",
"364 0 LINE"
);
},
{
closed = 1;
nodes = (
"373 304 LINE",
"188 304 LINE",
"279 616 LINE"
);
}
);
width = 570;
},
{
layerId = "632A4CD3-2375-47CC-B7F1-E224D812DAB9";
paths = (
{
closed = 1;
nodes = (
"362 0 LINE",
"597 0 LINE",
"608 62 LINE",
"562 80 LINE",
"349 691 LINE",
"253 691 LINE",
"51 80 LINE",
"-1 62 LINE",
"12 0 LINE",
"228 0 LINE",
"228 60 LINE",
"142 80 LINE",
"188 230 LINE",
"402 230 LINE",
"450 80 LINE",
"362 59 LINE"
);
},
{
closed = 1;
nodes = (
"382 720 LINE",
"419 764 LINE",
"279 919 LINE",
"245 925 LINE",
"189 843 LINE"
);
},
{
closed = 1;
nodes = (
"292 565 LINE",
"374 314 LINE",
"214 314 LINE"
);
}
);
width = 608;
}
);
unicode = 00C0;
},
{
color = 4;
glyphname = Aring;
layers = (
{
anchors = (
{
name = _top;
position = "{280, 691}";
}
);
components = (
{
name = A;
}
);
layerId = "CBC04B6C-E875-491C-A1C2-2B8D0972DDA1";
paths = (
{
closed = 1;
nodes = (
"193 697 OFFCURVE",
"234 656 OFFCURVE",
"287 656 CURVE SMOOTH",
"340 656 OFFCURVE",
"381 697 OFFCURVE",
"381 751 CURVE SMOOTH",
"381 804 OFFCURVE",
"340 845 OFFCURVE",
"287 845 CURVE SMOOTH",
"234 845 OFFCURVE",
"193 804 OFFCURVE",
"193 751 CURVE SMOOTH {name = hr00;}"
);
},
{
closed = 1;
nodes = (
"247 775 OFFCURVE",
"263 790 OFFCURVE",
"287 790 CURVE SMOOTH",
"311 790 OFFCURVE",
"327 775 OFFCURVE",
"327 751 CURVE SMOOTH",
"327 726 OFFCURVE",
"311 711 OFFCURVE",
"287 711 CURVE SMOOTH",
"263 711 OFFCURVE",
"247 726 OFFCURVE",
"247 751 CURVE SMOOTH"
);
}
);
width = 570;
},
{
anchors = (
{
name = _top;
position = "{310, 691}";
}
);
components = (
{
name = A;
}
);
layerId = "682D4A5D-117B-492A-B436-118C610C28E8";
paths = (
{
closed = 1;
nodes = (
"215 696 OFFCURVE",
"257 654 OFFCURVE",
"312 654 CURVE SMOOTH",
"367 654 OFFCURVE",
"409 696 OFFCURVE",
"409 751 CURVE SMOOTH",
"409 806 OFFCURVE",
"367 848 OFFCURVE",
"312 848 CURVE SMOOTH",
"257 848 OFFCURVE",
"215 806 OFFCURVE",
"215 751 CURVE SMOOTH {name = hr00;}"
);
},
{
closed = 1;
nodes = (
"273 775 OFFCURVE",
"288 790 OFFCURVE",
"312 790 CURVE SMOOTH",
"336 790 OFFCURVE",
"351 775 OFFCURVE",
"351 751 CURVE SMOOTH",
"351 727 OFFCURVE",
"336 712 OFFCURVE",
"312 712 CURVE SMOOTH",
"288 712 OFFCURVE",
"273 727 OFFCURVE",
"273 751 CURVE SMOOTH"
);
}
);
width = 621;
},
{
layerId = "97A2F932-1121-41E4-AD06-4A872C221506";
paths = (
{
closed = 1;
nodes = (
"407 783 OFFCURVE",
"376 816 QCURVE SMOOTH",
"347 846 OFFCURVE",
"301 846 QCURVE SMOOTH",
"256 846 OFFCURVE",
"195 785 OFFCURVE",
"195 740 QCURVE SMOOTH",
"195 686 OFFCURVE",
"234 656 QCURVE",
"48 96 LINE",
"-7 78 LINE",
"6 0 LINE",
"245 0 LINE",
"245 76 LINE",
"157 92 LINE",
"195 218 LINE",
"391 218 LINE",
"427 96 LINE",
"347 75 LINE",
"347 0 LINE",
"607 0 LINE",
"617 78 LINE",
"571 96 LINE",
"378 666 LINE",
"407 695 OFFCURVE",
"407 740 QCURVE SMOOTH"
);
},
{
closed = 1;
nodes = (
"294 549 LINE",
"347 323 LINE",
"226 323 LINE"
);
},
{
closed = 1;
nodes = (
"262 758 OFFCURVE",
"282 779 OFFCURVE",
"319 779 OFFCURVE",
"339 758 OFFCURVE",
"339 740 QCURVE SMOOTH",
"339 722 OFFCURVE",
"319 701 OFFCURVE",
"282 701 OFFCURVE",
"262 722 OFFCURVE",
"262 740 QCURVE SMOOTH"
);
}
);
width = 617;
},
{
layerId = "2CA35139-2F15-4242-9EF2-18C03B487D0C";
paths = (
{
closed = 1;
nodes = (
"380 790 OFFCURVE",
"325 845 OFFCURVE",
"286 845 QCURVE SMOOTH",
"246 845 OFFCURVE",
"218 818 QCURVE",
"206 805 OFFCURVE",
"191 770 OFFCURVE",
"191 725 OFFCURVE",
"215 682 OFFCURVE",
"235 670 QCURVE",
"51 65 LINE",
"-3 47 LINE",
"10 0 LINE",
"204 0 LINE",
"204 45 LINE",
"116 62 LINE",
"168 241 LINE",
"391 241 LINE",
"444 65 LINE",
"363 44 LINE",
"363 0 LINE",
"554 0 LINE",
"565 47 LINE",
"518 65 LINE",
"333 668 LINE",
"380 697 OFFCURVE",
"380 751 QCURVE SMOOTH"
);
},
{
closed = 1;
nodes = (
"372 304 LINE",
"187 304 LINE",
"278 616 LINE"
);
},
{
closed = 1;
nodes = (
"248 768 OFFCURVE",
"269 789 OFFCURVE",
"286 789 QCURVE SMOOTH",
"303 789 OFFCURVE",
"323 768 OFFCURVE",
"323 751 QCURVE SMOOTH",
"323 734 OFFCURVE",
"303 713 OFFCURVE",
"286 713 QCURVE SMOOTH",
"269 713 OFFCURVE",
"248 734 OFFCURVE",
"248 751 QCURVE SMOOTH"
);
}
);
width = 567;
},
{
layerId = "632A4CD3-2375-47CC-B7F1-E224D812DAB9";
paths = (
{
closed = 1;
nodes = (
"400 692 OFFCURVE",
"400 786 OFFCURVE",
"341 845 OFFCURVE",
"299 845 QCURVE SMOOTH",
"257 845 OFFCURVE",
"228 816 QCURVE SMOOTH",
"199 787 OFFCURVE",
"199 745 QCURVE SMOOTH",
"199 691 OFFCURVE",
"241 662 QCURVE",
"49 80 LINE",
"-3 62 LINE",
"10 0 LINE",
"226 0 LINE",
"226 60 LINE",
"140 80 LINE",
"186 228 LINE",
"400 228 LINE",
"448 80 LINE",
"360 59 LINE",
"360 0 LINE",
"595 0 LINE",
"606 62 LINE",
"560 80 LINE",
"357 662 LINE"
);
},
{
closed = 1;
nodes = (
"290 565 LINE",
"372 314 LINE",
"212 314 LINE"
);
},
{
closed = 1;
nodes = (
"261 763 OFFCURVE",
"282 783 OFFCURVE",
"317 783 OFFCURVE",
"338 763 OFFCURVE",
"338 745 QCURVE SMOOTH",
"338 727 OFFCURVE",
"317 707 OFFCURVE",
"282 707 OFFCURVE",
"261 727 OFFCURVE",
"261 745 QCURVE SMOOTH"
);
}
);
width = 604;
}
);
unicode = 00C5;
},
{
color = 4;
glyphname = Atilde;
layers = (
{
components = (
{
name = A;
},
{
name = tildecomb.case;
transform = "{1, 0, 0, 1, 280, 210}";
}
);
layerId = "CBC04B6C-E875-491C-A1C2-2B8D0972DDA1";
width = 570;
},
{
components = (
{
name = A;
},
{
name = tildecomb.case;
transform = "{1, 0, 0, 1, 310, 200}";
}
);
layerId = "682D4A5D-117B-492A-B436-118C610C28E8";
width = 621;
},
{
layerId = "97A2F932-1121-41E4-AD06-4A872C221506";
paths = (
{
closed = 1;
nodes = (
"379 823 LINE",
"372 823 OFFCURVE",
"360 831 QCURVE SMOOTH",
"294 873 OFFCURVE",
"242 873 QCURVE SMOOTH",
"190 873 OFFCURVE",
"144 833 QCURVE SMOOTH",
"120 812 OFFCURVE",
"110 781 QCURVE",
"110 762 LINE",
"184 718 LINE",
"190 737 OFFCURVE",
"224 772 OFFCURVE",
"274 772 OFFCURVE",
"305 758 OFFCURVE",
"335 741 OFFCURVE",
"368 727 OFFCURVE",
"426 727 OFFCURVE",
"492 775 OFFCURVE",
"514 805 QCURVE",
"433 881 LINE"
);
},
{
closed = 1;
nodes = (
"609 0 LINE",
"619 78 LINE",
"573 96 LINE",
"372 691 LINE",
"248 691 LINE",
"50 96 LINE",
"-5 78 LINE",
"8 0 LINE",
"247 0 LINE",
"247 76 LINE",
"159 92 LINE",
"197 218 LINE",
"393 218 LINE",
"429 96 LINE",
"349 75 LINE",
"349 0 LINE"
);
},
{
closed = 1;
nodes = (
"296 549 LINE",
"349 323 LINE",
"228 323 LINE"
);
}
);
width = 621;
},
{
layerId = "2CA35139-2F15-4242-9EF2-18C03B487D0C";
paths = (
{
closed = 1;
nodes = (
"429 836 LINE",
"367 786 LINE",
"335 808 OFFCURVE",
"282 842 OFFCURVE",
"216 842 OFFCURVE",
"196 834 QCURVE SMOOTH",
"151 816 OFFCURVE",
"131 776 QCURVE",
"131 760 LINE",
"168 729 LINE",
"179 747 OFFCURVE",
"211 778 OFFCURVE",
"265 778 OFFCURVE",
"297 762 OFFCURVE",
"327 743 OFFCURVE",
"359 727 OFFCURVE",
"382 727 QCURVE SMOOTH",
"417 727 OFFCURVE",
"466 770 QCURVE"
);
},
{
closed = 1;
nodes = (
"555 0 LINE",
"566 47 LINE",
"519 65 LINE",
"327 691 LINE",
"243 691 LINE",
"52 65 LINE",
"-2 47 LINE",
"11 0 LINE",
"205 0 LINE",
"205 45 LINE",
"117 62 LINE",
"169 241 LINE",
"392 241 LINE",
"445 65 LINE",
"364 44 LINE",
"364 0 LINE"
);
},
{
closed = 1;
nodes = (
"373 304 LINE",
"188 304 LINE",
"279 616 LINE"
);
}
);
width = 570;
},
{
layerId = "632A4CD3-2375-47CC-B7F1-E224D812DAB9";
paths = (
{
closed = 1;
nodes = (
"12 0 LINE",
"228 0 LINE",
"228 60 LINE",
"142 80 LINE",
"188 228 LINE",
"402 228 LINE",
"450 80 LINE",
"362 59 LINE",
"362 0 LINE",
"597 0 LINE",
"608 62 LINE",
"562 80 LINE",
"349 691 LINE",
"253 691 LINE",
"51 80 LINE",
"-1 62 LINE"
);
},
{
closed = 1;
nodes = (
"445 858 LINE",
"384 802 LINE",
"375 808 LINE",
"352 825 OFFCURVE",
"295 857 OFFCURVE",
"228 857 OFFCURVE",
"206 848 QCURVE SMOOTH",
"156 827 OFFCURVE",
"134 778 QCURVE",
"134 761 LINE",
"190 727 LINE",
"198 744 OFFCURVE",
"230 778 OFFCURVE",
"283 778 OFFCURVE",
"315 763 OFFCURVE",
"346 745 OFFCURVE",
"380 730 OFFCURVE",
"404 730 QCURVE SMOOTH",
"449 730 OFFCURVE",
"504 791 QCURVE"
);
},
{
closed = 1;
nodes = (
"292 565 LINE",
"374 314 LINE",
"214 314 LINE"
);
}
);
width = 608;
}
);
unicode = 00C3;
},
{
color = 4;
glyphname = AE;
layers = (
{
layerId = "CBC04B6C-E875-491C-A1C2-2B8D0972DDA1";
paths = (
{
closed = 1;
nodes = (
"193 0 LINE",
"193 45 LINE",
"107 62 LINE",
"196 298 LINE",
"331 298 LINE",
"331 68 LINE",
"283 56 LINE",
"291 0 LINE",
"661 0 LINE",
"680 171 LINE",
"633 171 LINE",
"598 68 LINE",
"399 68 LINE",
"399 301 LINE",
"541 301 LINE",
"541 364 LINE",
"399 364 LINE",
"399 623 LINE",
"588 623 LINE",
"622 520 LINE",
"670 520 LINE",
"650 691 LINE",
"278 691 LINE",
"41 65 LINE",
"-12 47 LINE",
"1 0 LINE {name = hr00;}"
);
},
{
closed = 1;
nodes = (
"320 628 LINE",
"331 627 LINE",
"331 361 LINE",
"219 361 LINE"
);
}
);
width = 720;
},
{
layerId = "682D4A5D-117B-492A-B436-118C610C28E8";
paths = (
{
closed = 1;
nodes = (
"240 0 LINE {name = hr00;}",
"240 76 LINE",
"152 92 LINE",
"215 260 LINE",
"353 260 LINE",
"353 101 LINE",
"298 88 LINE",
"313 0 LINE",
"747 0 LINE",
"768 204 LINE {name = hr01;}",
"690 204 LINE",
"653 105 LINE {name = hr02;}",
"484 105 LINE",
"484 303 LINE",
"636 303 LINE",
"636 408 LINE",
"484 408 LINE",
"484 586 LINE",
"646 586 LINE",
"686 487 LINE {name = hr03;}",
"765 487 LINE",
"745 691 LINE",
"266 691 LINE",
"41 96 LINE",
"-12 78 LINE",
"1 0 LINE"
);
},
{
closed = 1;
nodes = (
"342 596 LINE",
"353 595 LINE",
"353 365 LINE",
"255 365 LINE"
);
}
);
width = 803;
},
{
layerId = "97A2F932-1121-41E4-AD06-4A872C221506";
paths = (
{
closed = 1;
nodes = (
"240 0 LINE",
"240 76 LINE",
"152 92 LINE",
"215 260 LINE",
"353 260 LINE",
"353 101 LINE",
"298 88 LINE",
"313 0 LINE",
"747 0 LINE",
"768 204 LINE",
"690 204 LINE",
"653 105 LINE",
"484 105 LINE",
"484 303 LINE",
"636 303 LINE",
"636 408 LINE",
"484 408 LINE",
"484 586 LINE",
"646 586 LINE",
"686 487 LINE",
"765 487 LINE",
"745 691 LINE",
"266 691 LINE",
"41 96 LINE",
"-12 78 LINE",
"1 0 LINE"
);
},
{
closed = 1;
nodes = (
"353 595 LINE",
"353 365 LINE",
"255 365 LINE",
"342 596 LINE"
);
}
);
width = 803;
},
{
layerId = "2CA35139-2F15-4242-9EF2-18C03B487D0C";
paths = (
{
closed = 1;
nodes = (
"193 0 LINE",
"193 45 LINE",
"107 62 LINE",
"196 298 LINE",
"331 298 LINE",
"331 68 LINE",
"283 56 LINE",
"291 0 LINE",
"661 0 LINE",
"680 171 LINE",
"633 171 LINE",
"598 68 LINE",
"399 68 LINE",
"399 301 LINE",
"541 301 LINE",
"541 364 LINE",
"399 364 LINE",
"399 623 LINE",
"588 623 LINE",
"622 520 LINE",
"670 520 LINE",
"650 691 LINE",
"278 691 LINE",
"41 65 LINE",
"-12 47 LINE",
"1 0 LINE"
);
},
{
closed = 1;
nodes = (
"331 361 LINE",
"219 361 LINE",
"320 628 LINE",
"331 627 LINE"
);
}
);
width = 720;
},
{
layerId = "632A4CD3-2375-47CC-B7F1-E224D812DAB9";
paths = (
{
closed = 1;
nodes = (
"1 0 LINE",
"217 0 LINE",
"217 60 LINE",
"129 80 LINE",
"200 258 LINE",
"356 258 LINE",
"356 84 LINE",
"295 71 LINE",
"305 0 LINE",
"729 0 LINE",
"749 187 LINE",
"686 187 LINE",
"651 86 LINE",
"455 86 LINE",
"455 309 LINE",
"613 309 LINE",
"613 395 LINE",
"455 395 LINE",
"455 605 LINE",
"641 605 LINE",
"679 503 LINE",
"742 503 LINE",
"722 691 LINE",
"296 691 LINE",
"40 80 LINE",
"-12 62 LINE"
);
},
{
closed = 1;
nodes = (
"356 611 LINE",
"356 344 LINE",
"235 344 LINE",
"342 612 LINE"
);
}
);
width = 786;
}
);
rightKerningGroup = E;
unicode = 00C6;
userData = {
com.typemytype.robofont.mark = (
0.713,
0.6,
1,
1
);
};
},
{
color = 4;
glyphname = B;
layers = (
{
layerId = "CBC04B6C-E875-491C-A1C2-2B8D0972DDA1";
paths = (
{
closed = 1;
nodes = (
"289 0 LINE SMOOTH",
"421 0 OFFCURVE",
"510 61 OFFCURVE",
"510 187 CURVE SMOOTH",
"510 292 OFFCURVE",
"446 330 OFFCURVE",
"392 354 CURVE",
"432 375 OFFCURVE",
"480 418 OFFCURVE",
"480 510 CURVE SMOOTH {name = hr02;}",
"480 612 OFFCURVE",
"405 691 OFFCURVE",
"263 691 CURVE SMOOTH",
"55 691 LINE",
"55 632 LINE",
"112 627 LINE",
"112 68 LINE",
"55 56 LINE",
"62 0 LINE"
);
},
{
closed = 1;
nodes = (
"181 314 LINE {name = hr00;}",
"293 314 LINE SMOOTH",
"378 314 OFFCURVE",
"439 263 OFFCURVE",
"439 195 CURVE SMOOTH {name = hr01;}",
"439 132 OFFCURVE",
"409 68 OFFCURVE",
"309 68 CURVE SMOOTH",
"181 68 LINE"
);
},
{
closed = 1;
nodes = (
"181 623 LINE",
"261 623 LINE SMOOTH",
"369 623 OFFCURVE",
"409 569 OFFCURVE",
"409 505 CURVE SMOOTH",
"409 441 OFFCURVE",
"369 377 OFFCURVE",
"276 377 CURVE SMOOTH",
"181 377 LINE"
);
}
);
width = 557;
},
{
layerId = "682D4A5D-117B-492A-B436-118C610C28E8";
paths = (
{
closed = 1;
nodes = (
"342 0 LINE SMOOTH {name = hr00;}",
"474 0 OFFCURVE",
"564 61 OFFCURVE",
"564 187 CURVE SMOOTH",
"564 281 OFFCURVE",
"509 332 OFFCURVE",
"424 354 CURVE",
"466 364 OFFCURVE",
"536 417 OFFCURVE",
"536 510 CURVE SMOOTH {name = hr01;}",
"536 612 OFFCURVE",
"453 691 OFFCURVE",
"312 691 CURVE SMOOTH",
"35 691 LINE",
"35 601 LINE",
"105 594 LINE",
"105 100 LINE",
"41 85 LINE",
"55 0 LINE"
);
},
{
closed = 1;
nodes = (
"236 296 LINE",
"294 296 LINE SMOOTH",
"379 296 OFFCURVE",
"427 265 OFFCURVE",
"427 199 CURVE SMOOTH",
"427 127 OFFCURVE",
"374 105 OFFCURVE",
"310 105 CURVE SMOOTH",
"236 105 LINE"
);
},
{
closed = 1;
nodes = (
"236 586 LINE",
"281 586 LINE SMOOTH",
"343 586 OFFCURVE",
"399 561 OFFCURVE",
"399 495 CURVE SMOOTH {name = hr02;}",
"399 440 OFFCURVE",
"364 401 OFFCURVE",
"295 401 CURVE SMOOTH",
"236 401 LINE"
);
}
);
width = 596;
},
{
layerId = "97A2F932-1121-41E4-AD06-4A872C221506";
paths = (
{
closed = 1;
nodes = (
"342 0 LINE SMOOTH",
"391 0 OFFCURVE",
"432 12 QCURVE SMOOTH",
"564 49 OFFCURVE",
"564 187 QCURVE SMOOTH",
"564 258 OFFCURVE",
"488 336 OFFCURVE",
"424 353 QCURVE",
"464 363 OFFCURVE",
"496 400 QCURVE SMOOTH",
"536 445 OFFCURVE",
"536 509 QCURVE SMOOTH",
"536 588 OFFCURVE",
"477 638 QCURVE SMOOTH",
"415 690 OFFCURVE",
"312 690 QCURVE SMOOTH",
"35 690 LINE",
"35 600 LINE",
"105 593 LINE",
"105 100 LINE",
"41 85 LINE",
"55 0 LINE"
);
},
{
closed = 1;
nodes = (
"427 172 OFFCURVE",
"418 154 QCURVE SMOOTH",
"392 105 OFFCURVE",
"310 105 QCURVE SMOOTH",
"236 105 LINE",
"236 295 LINE",
"294 295 LINE SMOOTH",
"427 295 OFFCURVE",
"427 199 QCURVE SMOOTH"
);
},
{
closed = 1;
nodes = (
"236 400 LINE",
"236 585 LINE",
"281 585 LINE SMOOTH",
"332 585 OFFCURVE",
"364 564 QCURVE SMOOTH",
"380 553 OFFCURVE",
"399 519 OFFCURVE",
"399 452 OFFCURVE",
"347 400 OFFCURVE",
"295 400 QCURVE SMOOTH"
);
}
);
width = 596;
},
{
layerId = "2CA35139-2F15-4242-9EF2-18C03B487D0C";
paths = (
{
closed = 1;
nodes = (
"293 314 LINE SMOOTH",
"356 314 OFFCURVE",
"439 246 OFFCURVE",
"439 195 QCURVE SMOOTH",
"439 142 OFFCURVE",
"411 108 QCURVE SMOOTH",
"378 68 OFFCURVE",
"309 68 QCURVE SMOOTH",
"181 68 LINE",
"181 314 LINE"
);
},
{
closed = 1;
nodes = (
"409 451 OFFCURVE",
"378 417 QCURVE SMOOTH",
"341 377 OFFCURVE",
"276 377 QCURVE SMOOTH",
"181 377 LINE",
"181 623 LINE",
"261 623 LINE SMOOTH",
"301 623 OFFCURVE",
"330 614 QCURVE SMOOTH",
"409 587 OFFCURVE",
"409 505 QCURVE SMOOTH"
);
},
{
closed = 1;
nodes = (
"480 589 OFFCURVE",
"424 638 QCURVE SMOOTH",
"366 691 OFFCURVE",
"263 691 QCURVE SMOOTH",
"55 691 LINE",
"55 632 LINE",
"112 627 LINE",
"112 68 LINE",
"55 56 LINE",
"62 0 LINE",
"289 0 LINE SMOOTH",
"391 0 OFFCURVE",
"449 46 QCURVE SMOOTH",
"510 94 OFFCURVE",
"510 187 QCURVE SMOOTH",
"510 257 OFFCURVE",
"466 306 QCURVE SMOOTH",
"445 330 OFFCURVE",
"392 354 QCURVE",
"480 401 OFFCURVE",
"480 510 QCURVE SMOOTH"
);
}
);
width = 557;
},
{
layerId = "632A4CD3-2375-47CC-B7F1-E224D812DAB9";
paths = (
{
closed = 1;
nodes = (
"59 0 LINE",
"298 0 LINE SMOOTH",
"400 0 OFFCURVE",
"460 40 QCURVE SMOOTH",
"495 62 OFFCURVE",
"538 138 OFFCURVE",
"538 262 OFFCURVE",
"498 304 QCURVE SMOOTH",
"461 343 OFFCURVE",
"407 354 QCURVE",
"449 367 OFFCURVE",
"478 408 QCURVE SMOOTH",
"510 453 OFFCURVE",
"510 510 QCURVE SMOOTH",
"510 591 OFFCURVE",
"449 640 QCURVE SMOOTH",
"385 691 OFFCURVE",
"277 691 QCURVE SMOOTH",
"46 691 LINE",
"46 616 LINE",
"110 610 LINE",
"110 84 LINE",
"49 70 LINE"
);
},
{
closed = 1;
nodes = (
"405 443 OFFCURVE",
"331 390 OFFCURVE",
"254 390 QCURVE SMOOTH",
"210 390 LINE",
"210 605 LINE",
"271 605 LINE SMOOTH",
"405 605 OFFCURVE",
"405 500 QCURVE SMOOTH"
);
},
{
closed = 1;
nodes = (
"210 304 LINE",
"286 304 LINE SMOOTH",
"348 304 OFFCURVE",
"387 282 QCURVE SMOOTH",
"408 270 OFFCURVE",
"433 228 OFFCURVE",
"433 164 OFFCURVE",
"420 142 QCURVE SMOOTH",
"386 86 OFFCURVE",
"288 86 QCURVE SMOOTH",
"210 86 LINE"
);
}
);
width = 577;
}
);
leftKerningGroup = H;
unicode = 0042;
userData = {
com.typemytype.robofont.mark = (
0.713,
0.6,
1,
1
);
};
},
{
color = 4;
glyphname = C;
layers = (
{
anchors = (
{
name = bottom;
position = "{333, 10}";
},
{
name = top;
position = "{337, 691}";
}
);
layerId = "CBC04B6C-E875-491C-A1C2-2B8D0972DDA1";
paths = (
{
closed = 1;
nodes = (
"428 -4 OFFCURVE",
"491 14 OFFCURVE",
"525 38 CURVE",
"500 99 LINE",
"467 78 OFFCURVE",
"417 64 OFFCURVE",
"372 64 CURVE SMOOTH",
"207 64 OFFCURVE",
"113 192 OFFCURVE",
"111 348 CURVE {name = hr00;}",
"115 491 OFFCURVE",
"210 623 OFFCURVE",
"377 623 CURVE SMOOTH",
"410 623 OFFCURVE",
"419 619 OFFCURVE",
"429 618 CURVE",
"453 520 LINE",
"510 520 LINE",
"492 678 LINE",
"454 686 OFFCURVE",
"417 691 OFFCURVE",
"375 691 CURVE SMOOTH",
"176 691 OFFCURVE",
"40 534 OFFCURVE",
"40 346 CURVE SMOOTH",
"40 145 OFFCURVE",
"171 -4 OFFCURVE",
"373 -4 CURVE SMOOTH"
);
}
);
width = 556;
},
{
anchors = (
{
name = bottom;
position = "{366, 0}";
},
{
name = top;
position = "{330, 693}";
}
);
layerId = "682D4A5D-117B-492A-B436-118C610C28E8";
paths = (
{
closed = 1;
nodes = (
"445 -4 OFFCURVE",
"528 28 OFFCURVE",
"564 71 CURVE",
"522 160 LINE",
"484 121 OFFCURVE",
"424 101 OFFCURVE",
"370 101 CURVE SMOOTH",
"246 101 OFFCURVE",
"164 204 OFFCURVE",
"162 348 CURVE {name = hr00;}",
"165 495 OFFCURVE",
"257 586 OFFCURVE",
"368 586 CURVE SMOOTH",
"389 586 OFFCURVE",
"398 585 OFFCURVE",
"407 584 CURVE",
"466 460 LINE {name = hr01;}",
"547 460 LINE",
"527 667 LINE",
"505 674 OFFCURVE",
"447 691 OFFCURVE",
"358 691 CURVE SMOOTH",
"194 691 OFFCURVE",
"28 568 OFFCURVE",
"28 334 CURVE SMOOTH",
"28 109 OFFCURVE",
"185 -4 OFFCURVE",
"365 -4 CURVE SMOOTH"
);
}
);
width = 587;
},
{
layerId = "97A2F932-1121-41E4-AD06-4A872C221506";
paths = (
{
closed = 1;
nodes = (
"547 460 LINE",
"527 667 LINE",
"445 691 OFFCURVE",
"358 691 QCURVE SMOOTH",
"226 691 OFFCURVE",
"132 600 QCURVE SMOOTH",
"28 500 OFFCURVE",
"28 334 QCURVE SMOOTH",
"28 174 OFFCURVE",
"129 80 QCURVE SMOOTH",
"175 38 OFFCURVE",
"297 -4 OFFCURVE",
"395 -4 OFFCURVE",
"425 2 QCURVE SMOOTH",
"518 19 OFFCURVE",
"564 71 QCURVE",
"522 160 LINE",
"493 131 OFFCURVE",
"411 101 OFFCURVE",
"370 101 QCURVE SMOOTH",
"278 101 OFFCURVE",
"220 170 QCURVE SMOOTH",
"164 238 OFFCURVE",
"162 348 QCURVE",
"164 454 OFFCURVE",
"224 522 QCURVE SMOOTH",
"252 553 OFFCURVE",
"326 586 OFFCURVE",
"406 586 OFFCURVE",
"412 580 OFFCURVE",
"423 556 OFFCURVE",
"445 506 OFFCURVE",
"466 460 QCURVE"
);
}
);
width = 587;
},
{
layerId = "2CA35139-2F15-4242-9EF2-18C03B487D0C";
paths = (
{
closed = 1;
nodes = (
"253 64 OFFCURVE",
"180 148 QCURVE SMOOTH",
"113 225 OFFCURVE",
"111 348 QCURVE",
"113 461 OFFCURVE",
"183 539 QCURVE SMOOTH",
"258 623 OFFCURVE",
"377 623 QCURVE SMOOTH",
"402 623 OFFCURVE",
"421 619 OFFCURVE",
"429 618 QCURVE",
"453 520 LINE",
"510 520 LINE",
"492 678 LINE",
"429 691 OFFCURVE",
"375 691 QCURVE SMOOTH",
"228 691 OFFCURVE",
"133 589 QCURVE SMOOTH",
"89 542 OFFCURVE",
"40 416 OFFCURVE",
"40 346 QCURVE SMOOTH",
"40 192 OFFCURVE",
"130 96 QCURVE SMOOTH",
"224 -4 OFFCURVE",
"373 -4 QCURVE SMOOTH",
"415 -4 OFFCURVE",
"499 20 OFFCURVE",
"525 38 QCURVE",
"500 99 LINE",
"445 64 OFFCURVE",
"378 64 QCURVE SMOOTH"
);
}
);
width = 556;
},
{
layerId = "632A4CD3-2375-47CC-B7F1-E224D812DAB9";
paths = (
{
closed = 1;
nodes = (
"525 120 LINE",
"509 108 OFFCURVE",
"437 82 OFFCURVE",
"394 82 QCURVE SMOOTH",
"278 82 OFFCURVE",
"208 158 QCURVE SMOOTH",
"139 233 OFFCURVE",
"139 348 QCURVE SMOOTH",
"139 454 OFFCURVE",
"202 528 QCURVE SMOOTH",
"232 563 OFFCURVE",
"319 605 OFFCURVE",
"413 605 OFFCURVE",
"432 598 QCURVE",
"471 490 LINE",
"539 490 LINE",
"520 672 LINE",
"436 691 OFFCURVE",
"372 691 QCURVE SMOOTH",
"229 691 OFFCURVE",
"136 602 QCURVE SMOOTH",
"34 504 OFFCURVE",
"34 338 QCURVE SMOOTH",
"34 181 OFFCURVE",
"141 84 QCURVE SMOOTH",
"239 -4 OFFCURVE",
"377 -4 QCURVE SMOOTH",
"491 -4 OFFCURVE",
"554 41 QCURVE"
);
}
);
width = 582;
}
);
leftKerningGroup = C;
rightKerningGroup = C;
unicode = 0043;
userData = {
com.typemytype.robofont.mark = (
0.713,
0.6,
1,
1
);
};
},
{
color = 4;
glyphname = Ccedilla;
layers = (
{
anchors = (
{
name = _bottom;
position = "{333, 10}";
}
);
components = (
{
name = C;
}
);
layerId = "CBC04B6C-E875-491C-A1C2-2B8D0972DDA1";
paths = (
{
closed = 1;
nodes = (
"407 -235 OFFCURVE",
"441 -193 OFFCURVE",
"441 -138 CURVE SMOOTH",
"441 -78 OFFCURVE",
"393 -47 OFFCURVE",
"350 -42 CURVE",
"365 7 LINE",
"307 5 LINE",
"273 -72 LINE",
"291 -89 LINE {name = hr00;}",
"344 -89 OFFCURVE",
"376 -111 OFFCURVE",
"376 -142 CURVE SMOOTH",
"376 -168 OFFCURVE",
"351 -182 OFFCURVE",
"322 -182 CURVE",
"256 -142 LINE",
"222 -211 LINE",
"249 -222 OFFCURVE",
"287 -235 OFFCURVE",
"318 -235 CURVE SMOOTH"
);
}
);
width = 556;
},
{
anchors = (
{
name = _bottom;
position = "{366, 0}";
}
);
components = (
{
name = C;
}
);
layerId = "682D4A5D-117B-492A-B436-118C610C28E8";
paths = (
{
closed = 1;
nodes = (
"418 -222 OFFCURVE",
"464 -180 OFFCURVE",
"464 -126 CURVE SMOOTH",
"464 -77 OFFCURVE",
"435 -49 OFFCURVE",
"388 -39 CURVE",
"402 -1 LINE",
"326 -1 LINE",
"305 -63 LINE",
"317 -79 LINE",
"365 -79 OFFCURVE",
"387 -95 OFFCURVE",
"387 -128 CURVE SMOOTH",
"387 -167 OFFCURVE",
"340 -170 OFFCURVE",
"335 -170 CURVE",
"280 -130 LINE",
"246 -204 LINE",
"271 -214 OFFCURVE",
"308 -222 OFFCURVE",
"337 -222 CURVE SMOOTH"
);
}
);
width = 587;
},
{
associatedMasterId = "CBC04B6C-E875-491C-A1C2-2B8D0972DDA1";
layerId = "1E2D1E90-FB09-42EE-A37E-FDFE2D5F9F5F";
name = "Jul 26 18, 21:22";
paths = (
{
closed = 1;
nodes = (
"278 -74 LINE",
"306 2 LINE",
"144 32 OFFCURVE",
"42 168 OFFCURVE",
"42 346 CURVE SMOOTH",
"42 534 OFFCURVE",
"178 691 OFFCURVE",
"377 691 CURVE SMOOTH",
"419 691 OFFCURVE",
"456 686 OFFCURVE",
"494 678 CURVE",
"512 520 LINE",
"455 520 LINE",
"431 618 LINE",
"421 619 OFFCURVE",
"412 623 OFFCURVE",
"379 623 CURVE SMOOTH",
"212 623 OFFCURVE",
"113 491 OFFCURVE",
"113 348 CURVE SMOOTH {name = hr01;}",
"113 191 OFFCURVE",
"210 64 OFFCURVE",
"374 64 CURVE SMOOTH {name = hr02;}",
"419 64 OFFCURVE",
"469 78 OFFCURVE",
"502 99 CURVE",
"527 38 LINE",
"493 14 OFFCURVE",
"430 -4 OFFCURVE",
"375 -4 CURVE SMOOTH",
"371 -4 OFFCURVE",
"367 -3 OFFCURVE",
"363 -3 CURVE",
"351 -41 LINE",
"395 -45 OFFCURVE",
"443 -75 OFFCURVE",
"443 -136 CURVE SMOOTH",
"443 -194 OFFCURVE",
"403 -236 OFFCURVE",
"321 -236 CURVE SMOOTH",
"284 -236 OFFCURVE",
"258 -226 OFFCURVE",
"233 -216 CURVE",
"232 -216 OFFCURVE",
"231 -215 OFFCURVE",
"230 -215 CURVE",
"221 -212 LINE",
"258 -141 LINE",
"323 -181 LINE",
"355 -181 OFFCURVE",
"378 -164 OFFCURVE",
"378 -137 CURVE SMOOTH",
"378 -116 OFFCURVE",
"358 -90 OFFCURVE",
"301 -90 CURVE SMOOTH {name = hr03;}",
"293 -90 LINE {name = hr00;}"
);
}
);
width = 559;
},
{
associatedMasterId = "682D4A5D-117B-492A-B436-118C610C28E8";
layerId = "E41AD86B-8E22-4393-ABF4-B0F307027D2E";
name = "Jul 26 18, 21:22";
paths = (
{
closed = 1;
nodes = (
"309 -102 LINE",
"366 -102 OFFCURVE",
"387 -129 OFFCURVE",
"387 -159 CURVE SMOOTH",
"387 -197 OFFCURVE",
"344 -210 OFFCURVE",
"324 -210 CURVE",
"252 -162 LINE",
"202 -259 LINE",
"235 -271 OFFCURVE",
"275 -286 OFFCURVE",
"330 -286 CURVE SMOOTH",
"434 -286 OFFCURVE",
"495 -224 OFFCURVE",
"495 -156 CURVE SMOOTH",
"495 -83 OFFCURVE",
"444 -52 OFFCURVE",
"391 -41 CURVE",
"403 -2 LINE",
"471 6 OFFCURVE",
"535 34 OFFCURVE",
"566 71 CURVE",
"524 160 LINE",
"486 121 OFFCURVE",
"426 101 OFFCURVE",
"372 101 CURVE SMOOTH",
"248 101 OFFCURVE",
"166 204 OFFCURVE",
"166 348 CURVE",
"167 495 OFFCURVE",
"259 586 OFFCURVE",
"370 586 CURVE SMOOTH",
"391 586 OFFCURVE",
"400 585 OFFCURVE",
"409 584 CURVE",
"413 584 OFFCURVE",
"413 583 OFFCURVE",
"468 460 CURVE {name = hr01;}",
"549 460 LINE",
"529 667 LINE",
"507 674 OFFCURVE",
"449 691 OFFCURVE",
"360 691 CURVE SMOOTH",
"196 691 OFFCURVE",
"30 568 OFFCURVE",
"30 334 CURVE SMOOTH",
"30 137 OFFCURVE",
"150 26 OFFCURVE",
"301 1 CURVE",
"272 -82 LINE",
"296 -101 LINE {name = hr00;}"
);
}
);
width = 589;
},
{
layerId = "97A2F932-1121-41E4-AD06-4A872C221506";
paths = (
{
closed = 1;
nodes = (
"549 460 LINE",
"529 667 LINE",
"447 691 OFFCURVE",
"360 691 QCURVE SMOOTH",
"228 691 OFFCURVE",
"134 600 QCURVE SMOOTH",
"30 500 OFFCURVE",
"30 334 QCURVE SMOOTH",
"30 193 OFFCURVE",
"109 103 QCURVE SMOOTH",
"182 20 OFFCURVE",
"301 1 QCURVE",
"272 -82 LINE",
"296 -101 LINE",
"309 -102 LINE",
"352 -102 OFFCURVE",
"387 -136 OFFCURVE",
"387 -173 OFFCURVE",
"380 -183 QCURVE SMOOTH",
"361 -210 OFFCURVE",
"324 -210 QCURVE",
"252 -162 LINE",
"202 -259 LINE",
"227 -268 OFFCURVE",
"288 -286 OFFCURVE",
"330 -286 QCURVE SMOOTH",
"405 -286 OFFCURVE",
"452 -247 QCURVE SMOOTH",
"473 -229 OFFCURVE",
"495 -182 OFFCURVE",
"495 -129 OFFCURVE",
"486 -109 QCURVE SMOOTH",
"462 -55 OFFCURVE",
"391 -41 QCURVE",
"403 -2 LINE",
"454 4 OFFCURVE",
"543 43 OFFCURVE",
"566 71 QCURVE",
"524 160 LINE",
"495 131 OFFCURVE",
"413 101 OFFCURVE",
"372 101 QCURVE SMOOTH",
"280 101 OFFCURVE",
"222 170 QCURVE SMOOTH",
"166 238 OFFCURVE",
"166 348 QCURVE SMOOTH",
"166 454 OFFCURVE",
"226 522 QCURVE SMOOTH",
"254 553 OFFCURVE",
"328 586 OFFCURVE",
"408 586 OFFCURVE",
"414 580 OFFCURVE",
"425 556 OFFCURVE",
"447 506 OFFCURVE",
"468 460 QCURVE"
);
}
);
width = 589;
},
{
layerId = "2CA35139-2F15-4242-9EF2-18C03B487D0C";
paths = (
{
closed = 1;
nodes = (
"417 -4 OFFCURVE",
"501 20 OFFCURVE",
"527 38 QCURVE",
"502 99 LINE",
"447 64 OFFCURVE",
"374 64 QCURVE SMOOTH",
"256 64 OFFCURVE",
"182 148 QCURVE SMOOTH",
"113 226 OFFCURVE",
"113 348 QCURVE SMOOTH",
"113 461 OFFCURVE",
"184 539 QCURVE SMOOTH",
"260 623 OFFCURVE",
"379 623 QCURVE SMOOTH",
"404 623 OFFCURVE",
"423 619 OFFCURVE",
"431 618 QCURVE",
"455 520 LINE",
"512 520 LINE",
"494 678 LINE",
"431 691 OFFCURVE",
"377 691 QCURVE SMOOTH",
"230 691 OFFCURVE",
"135 589 QCURVE SMOOTH",
"91 542 OFFCURVE",
"42 416 OFFCURVE",
"42 346 QCURVE SMOOTH",
"42 211 OFFCURVE",
"114 118 QCURVE SMOOTH",
"186 24 OFFCURVE",
"306 2 QCURVE",
"278 -74 LINE",
"293 -90 LINE",
"301 -90 LINE SMOOTH",
"344 -90 OFFCURVE",
"378 -121 OFFCURVE",
"378 -157 OFFCURVE",
"347 -181 OFFCURVE",
"323 -181 QCURVE",
"258 -141 LINE",
"221 -212 LINE",
"233 -216 LINE",
"280 -236 OFFCURVE",
"321 -236 QCURVE SMOOTH",
"383 -236 OFFCURVE",
"443 -180 OFFCURVE",
"443 -136 QCURVE SMOOTH",
"443 -113 OFFCURVE",
"435 -96 QCURVE SMOOTH",
"413 -49 OFFCURVE",
"351 -41 QCURVE",
"363 -3 LINE",
"375 -4 LINE"
);
}
);
width = 559;
},
{
layerId = "632A4CD3-2375-47CC-B7F1-E224D812DAB9";
paths = (
{
closed = 1;
nodes = (
"297 -93 LINE",
"309 -94 LINE",
"350 -94 OFFCURVE",
"383 -127 OFFCURVE",
"383 -161 OFFCURVE",
"376 -170 QCURVE",
"358 -195 OFFCURVE",
"323 -195 QCURVE",
"257 -152 LINE",
"216 -232 LINE",
"222 -234 LINE",
"280 -258 OFFCURVE",
"329 -258 QCURVE SMOOTH",
"395 -258 OFFCURVE",
"471 -193 OFFCURVE",
"471 -98 OFFCURVE",
"420 -48 OFFCURVE",
"385 -39 QCURVE",
"399 -3 LINE",
"500 2 OFFCURVE",
"555 41 QCURVE",
"526 120 LINE",
"510 108 OFFCURVE",
"438 82 OFFCURVE",
"395 82 QCURVE SMOOTH",
"279 82 OFFCURVE",
"209 158 QCURVE SMOOTH",
"140 233 OFFCURVE",
"140 348 QCURVE SMOOTH",
"140 456 OFFCURVE",
"202 528 QCURVE SMOOTH",
"233 563 OFFCURVE",
"321 605 OFFCURVE",
"414 605 OFFCURVE",
"433 598 QCURVE",
"472 490 LINE",
"540 490 LINE",
"521 672 LINE",
"437 691 OFFCURVE",
"373 691 QCURVE SMOOTH",
"230 691 OFFCURVE",
"136 602 QCURVE SMOOTH",
"35 504 OFFCURVE",
"35 338 QCURVE SMOOTH",
"35 202 OFFCURVE",
"118 108 QCURVE SMOOTH",
"193 23 OFFCURVE",
"309 2 QCURVE",
"281 -76 LINE"
);
}
);
width = 583;
}
);
leftKerningGroup = C;
rightKerningGroup = C;
unicode = 00C7;
userData = {
com.typemytype.robofont.mark = (
0.713,
0.6,
1,
1
);
};
},
{
color = 4;
glyphname = D;
layers = (
{
anchors = (
{
name = bar;
position = "{197, 357}";
},
{
name = bottom;
position = "{302, 0}";
},
{
name = top;
position = "{283, 691}";
}
);
layerId = "CBC04B6C-E875-491C-A1C2-2B8D0972DDA1";
paths = (
{
closed = 1;
nodes = (
"211 0 LINE SMOOTH",
"424 0 OFFCURVE",
"561 112 OFFCURVE",
"561 349 CURVE SMOOTH",
"561 582 OFFCURVE",
"404 691 OFFCURVE",
"198 691 CURVE SMOOTH",
"55 691 LINE",
"55 632 LINE",
"112 627 LINE",
"112 69 LINE",
"55 56 LINE {name = hr00;}",
"62 0 LINE"
);
},
{
closed = 1;
nodes = (
"181 68 LINE",
"181 623 LINE",
"208 623 LINE SMOOTH",
"387 623 OFFCURVE",
"490 511 OFFCURVE",
"490 348 CURVE SMOOTH",
"490 211 OFFCURVE",
"435 67 OFFCURVE",
"225 67 CURVE"
);
}
);
width = 605;
},
{
anchors = (
{
name = bar;
position = "{208, 360}";
},
{
name = bottom;
position = "{311, 0}";
},
{
name = top;
position = "{296, 691}";
}
);
layerId = "682D4A5D-117B-492A-B436-118C610C28E8";
paths = (
{
closed = 1;
nodes = (
"262 0 LINE SMOOTH",
"489 0 OFFCURVE",
"606 129 OFFCURVE",
"606 354 CURVE SMOOTH",
"606 579 OFFCURVE",
"462 691 OFFCURVE",
"219 691 CURVE SMOOTH",
"41 691 LINE",
"41 603 LINE",
"104 595 LINE",
"104 101 LINE",
"39 88 LINE",
"53 0 LINE {name = hr00;}"
);
},
{
closed = 1;
nodes = (
"235 105 LINE",
"235 586 LINE",
"240 586 LINE SMOOTH",
"388 584 OFFCURVE",
"469 507 OFFCURVE",
"469 351 CURVE SMOOTH",
"469 190 OFFCURVE",
"394 104 OFFCURVE",
"254 104 CURVE"
);
}
);
width = 637;
},
{
layerId = "97A2F932-1121-41E4-AD06-4A872C221506";
paths = (
{
closed = 1;
nodes = (
"53 0 LINE",
"262 0 LINE SMOOTH",
"433 0 OFFCURVE",
"606 183 OFFCURVE",
"606 353 QCURVE SMOOTH",
"606 437 OFFCURVE",
"580 500 QCURVE SMOOTH",
"500 690 OFFCURVE",
"219 690 QCURVE SMOOTH",
"41 690 LINE",
"41 602 LINE",
"104 594 LINE",
"104 101 LINE",
"39 88 LINE"
);
},
{
closed = 1;
nodes = (
"235 585 LINE",
"349 585 OFFCURVE",
"469 469 OFFCURVE",
"469 229 OFFCURVE",
"360 104 OFFCURVE",
"254 104 QCURVE",
"235 105 LINE"
);
}
);
width = 637;
},
{
layerId = "2CA35139-2F15-4242-9EF2-18C03B487D0C";
paths = (
{
closed = 1;
nodes = (
"62 0 LINE",
"211 0 LINE SMOOTH",
"376 0 OFFCURVE",
"466 86 QCURVE SMOOTH",
"561 175 OFFCURVE",
"561 349 QCURVE SMOOTH",
"561 516 OFFCURVE",
"456 608 QCURVE SMOOTH",
"361 691 OFFCURVE",
"198 691 QCURVE SMOOTH",
"55 691 LINE",
"55 632 LINE",
"112 627 LINE",
"112 69 LINE",
"55 56 LINE"
);
},
{
closed = 1;
nodes = (
"490 228 OFFCURVE",
"436 156 QCURVE SMOOTH",
"369 68 OFFCURVE",
"225 68 QCURVE SMOOTH",
"181 68 LINE",
"181 623 LINE",
"208 623 LINE SMOOTH",
"341 623 OFFCURVE",
"416 546 QCURVE SMOOTH",
"452 510 OFFCURVE",
"490 409 OFFCURVE",
"490 353 QCURVE SMOOTH"
);
}
);
width = 605;
},
{
layerId = "632A4CD3-2375-47CC-B7F1-E224D812DAB9";
paths = (
{
closed = 1;
nodes = (
"209 86 LINE",
"209 605 LINE",
"233 606 LINE",
"350 606 OFFCURVE",
"420 540 QCURVE SMOOTH",
"492 471 OFFCURVE",
"492 351 QCURVE SMOOTH",
"492 85 OFFCURVE",
"217 85 QCURVE"
);
},
{
closed = 1;
nodes = (
"49 71 LINE",
"59 0 LINE",
"243 0 LINE SMOOTH",
"408 0 OFFCURVE",
"502 92 QCURVE SMOOTH",
"597 185 OFFCURVE",
"597 515 OFFCURVE",
"498 604 QCURVE SMOOTH",
"402 691 OFFCURVE",
"239 691 QCURVE SMOOTH",
"50 691 LINE",
"50 617 LINE",
"110 611 LINE",
"110 85 LINE"
);
}
);
width = 633;
}
);
leftKerningGroup = E;
rightKerningGroup = D;
unicode = 0044;
userData = {
com.typemytype.robofont.mark = (
0.713,
0.6,
1,
1
);
};
},
{
color = 4;
glyphname = Eth;
layers = (
{
components = (
{
name = D;
},
{
name = _bar;
transform = "{1, 0, 0, 1, 197, -124}";
}
);
layerId = "CBC04B6C-E875-491C-A1C2-2B8D0972DDA1";
width = 605;
},
{
components = (
{
name = D;
},
{
name = _bar;
transform = "{1, 0, 0, 1, 208, -131}";
}
);
layerId = "682D4A5D-117B-492A-B436-118C610C28E8";
width = 637;
},
{
layerId = "97A2F932-1121-41E4-AD06-4A872C221506";
paths = (
{
closed = 1;
nodes = (
"48 0 LINE",
"265 0 LINE SMOOTH",
"434 0 OFFCURVE",
"608 185 OFFCURVE",
"608 354 QCURVE SMOOTH",
"608 438 OFFCURVE",
"582 502 QCURVE SMOOTH",
"502 691 OFFCURVE",
"222 691 QCURVE SMOOTH",
"43 691 LINE",
"43 603 LINE",
"106 595 LINE",
"106 403 LINE",
"28 403 LINE",
"14 391 LINE",
"14 309 LINE",
"106 309 LINE",
"106 101 LINE",
"41 88 LINE"
);
},
{
closed = 1;
nodes = (
"237 309 LINE",
"369 309 LINE",
"369 396 LINE SMOOTH",
"369 403 OFFCURVE",
"362 403 QCURVE SMOOTH",
"237 403 LINE",
"237 586 LINE",
"472 586 OFFCURVE",
"472 350 QCURVE SMOOTH",
"472 230 OFFCURVE",
"362 104 OFFCURVE",
"256 104 QCURVE",
"237 105 LINE"
);
}
);
width = 639;
},
{
layerId = "2CA35139-2F15-4242-9EF2-18C03B487D0C";
paths = (
{
closed = 1;
nodes = (
"63 0 LINE",
"212 0 LINE SMOOTH",
"377 0 OFFCURVE",
"467 86 QCURVE SMOOTH",
"562 175 OFFCURVE",
"562 349 QCURVE SMOOTH",
"562 516 OFFCURVE",
"458 608 QCURVE SMOOTH",
"362 691 OFFCURVE",
"199 691 QCURVE SMOOTH",
"56 691 LINE",
"56 632 LINE",
"113 627 LINE",
"113 377 LINE",
"30 377 LINE",
"23 369 LINE",
"23 314 LINE",
"113 314 LINE",
"113 69 LINE",
"56 56 LINE"
);
},
{
closed = 1;
nodes = (
"491 228 OFFCURVE",
"437 156 QCURVE SMOOTH",
"370 68 OFFCURVE",
"226 68 QCURVE SMOOTH",
"182 68 LINE",
"182 314 LINE",
"357 314 LINE",
"357 370 LINE SMOOTH",
"357 377 OFFCURVE",
"350 377 QCURVE SMOOTH",
"182 377 LINE",
"182 623 LINE",
"209 623 LINE SMOOTH",
"342 623 OFFCURVE",
"417 546 QCURVE SMOOTH",
"453 510 OFFCURVE",
"491 409 OFFCURVE",
"491 353 QCURVE SMOOTH"
);
}
);
width = 606;
},
{
layerId = "632A4CD3-2375-47CC-B7F1-E224D812DAB9";
paths = (
{
closed = 1;
nodes = (
"37 311 LINE",
"109 311 LINE",
"109 85 LINE",
"48 71 LINE",
"58 0 LINE",
"242 0 LINE SMOOTH",
"407 0 OFFCURVE",
"501 92 QCURVE SMOOTH",
"596 185 OFFCURVE",
"596 515 OFFCURVE",
"497 604 QCURVE SMOOTH",
"401 691 OFFCURVE",
"238 691 QCURVE SMOOTH",
"49 691 LINE",
"49 617 LINE",
"109 611 LINE",
"109 390 LINE",
"47 390 LINE",
"37 379 LINE"
);
},
{
closed = 1;
nodes = (
"491 226 OFFCURVE",
"427 158 QCURVE SMOOTH",
"361 86 OFFCURVE",
"232 86 QCURVE SMOOTH",
"208 86 LINE",
"208 311 LINE",
"381 311 LINE",
"381 382 LINE SMOOTH",
"381 390 OFFCURVE",
"374 390 QCURVE SMOOTH",
"208 390 LINE",
"208 607 LINE",
"338 607 OFFCURVE",
"412 544 QCURVE SMOOTH",
"450 513 OFFCURVE",
"491 417 OFFCURVE",
"491 354 QCURVE SMOOTH"
);
}
);
width = 632;
}
);
leftKerningGroup = E;
rightKerningGroup = D;
unicode = 00D0;
userData = {
com.typemytype.robofont.mark = (
0.713,
0.6,
1,
1
);
};
},
{
color = 4;
glyphname = E;
layers = (
{
anchors = (
{
name = bottom;
position = "{264, 0}";
},
{
name = ogonek;
position = "{412, 0}";
},
{
name = top;
position = "{258, 691}";
}
);
layerId = "CBC04B6C-E875-491C-A1C2-2B8D0972DDA1";
paths = (
{
closed = 1;
nodes = (
"464 0 LINE",
"483 171 LINE",
"436 171 LINE",
"401 68 LINE {name = hr02;}",
"181 68 LINE",
"181 314 LINE {name = hr01;}",
"343 314 LINE",
"343 377 LINE",
"181 377 LINE",
"181 623 LINE",
"391 623 LINE",
"425 520 LINE",
"473 520 LINE",
"453 691 LINE",
"55 691 LINE",
"55 632 LINE {name = hr00;}",
"112 627 LINE",
"112 68 LINE",
"55 56 LINE",
"62 0 LINE"
);
}
);
width = 523;
},
{
anchors = (
{
name = bottom;
position = "{280, 0}";
},
{
name = ogonek;
position = "{403, 10}";
},
{
name = top;
position = "{274, 691}";
}
);
layerId = "682D4A5D-117B-492A-B436-118C610C28E8";
paths = (
{
closed = 1;
nodes = (
"499 0 LINE",
"520 204 LINE {name = hr01;}",
"441 204 LINE",
"404 105 LINE {name = hr02;}",
"235 105 LINE",
"235 303 LINE",
"387 303 LINE",
"387 408 LINE",
"235 408 LINE",
"235 586 LINE",
"397 586 LINE",
"438 487 LINE {name = hr03;}",
"516 487 LINE",
"497 691 LINE",
"41 691 LINE {name = hr00;}",
"41 602 LINE",
"104 595 LINE",
"104 101 LINE",
"39 88 LINE",
"53 0 LINE"
);
}
);
width = 555;
},
{
layerId = "97A2F932-1121-41E4-AD06-4A872C221506";
paths = (
{
closed = 1;
nodes = (
"41 690 LINE",
"41 601 LINE",
"104 594 LINE",
"104 101 LINE",
"39 88 LINE",
"53 0 LINE",
"499 0 LINE",
"520 204 LINE",
"441 204 LINE",
"404 105 LINE",
"235 105 LINE",
"235 302 LINE",
"387 302 LINE",
"387 407 LINE",
"235 407 LINE",
"235 585 LINE",
"397 585 LINE",
"438 486 LINE",
"516 486 LINE",
"497 690 LINE"
);
}
);
width = 555;
},
{
layerId = "2CA35139-2F15-4242-9EF2-18C03B487D0C";
paths = (
{
closed = 1;
nodes = (
"112 627 LINE",
"112 68 LINE",
"55 56 LINE",
"62 0 LINE",
"464 0 LINE",
"483 171 LINE",
"436 171 LINE",
"401 68 LINE",
"181 68 LINE",
"181 314 LINE",
"343 314 LINE",
"343 377 LINE",
"181 377 LINE",
"181 623 LINE",
"391 623 LINE",
"425 520 LINE",
"473 520 LINE",
"453 691 LINE",
"55 691 LINE",
"55 632 LINE"
);
}
);
width = 523;
},
{
layerId = "632A4CD3-2375-47CC-B7F1-E224D812DAB9";
paths = (
{
closed = 1;
nodes = (
"49 616 LINE",
"109 611 LINE",
"109 84 LINE",
"48 71 LINE",
"58 0 LINE",
"482 0 LINE",
"502 187 LINE",
"439 187 LINE",
"404 86 LINE",
"208 86 LINE",
"208 309 LINE",
"366 309 LINE",
"366 395 LINE",
"208 395 LINE",
"208 605 LINE",
"394 605 LINE",
"432 503 LINE",
"495 503 LINE",
"475 691 LINE",
"49 691 LINE"
);
}
);
width = 539;
}
);
leftKerningGroup = E;
rightKerningGroup = E;
unicode = 0045;
userData = {
com.typemytype.robofont.mark = (
0.713,
0.6,
1,
1
);
};
},
{
color = 4;
glyphname = Eacute;
layers = (
{
anchors = (
{
name = _top;
position = "{263, 700}";
}
);
components = (
{
name = E;
}
);
layerId = "CBC04B6C-E875-491C-A1C2-2B8D0972DDA1";
paths = (
{
closed = 1;
nodes = (
"397 818 LINE",
"360 890 LINE",
"330 897 LINE",
"172 764 LINE {name = hr00;}",
"204 717 LINE"
);
}
);
width = 523;
},
{
anchors = (
{
name = _top;
position = "{274, 691}";
}
);
components = (
{
name = E;
}
);
layerId = "682D4A5D-117B-492A-B436-118C610C28E8";
paths = (
{
closed = 1;
nodes = (
"394 865 LINE",
"317 971 LINE",
"281 957 LINE",
"154 796 LINE",
"200 744 LINE"
);
}
);
width = 555;
},
{
layerId = "97A2F932-1121-41E4-AD06-4A872C221506";
paths = (
{
closed = 1;
nodes = (
"41 690 LINE",
"41 601 LINE",
"104 594 LINE",
"104 101 LINE",
"39 88 LINE",
"53 0 LINE",
"499 0 LINE",
"520 204 LINE",
"441 204 LINE",
"404 105 LINE",
"235 105 LINE",
"235 302 LINE",
"387 302 LINE",
"387 407 LINE",
"235 407 LINE",
"235 585 LINE",
"397 585 LINE",
"438 486 LINE",
"516 486 LINE",
"497 690 LINE"
);
},
{
closed = 1;
nodes = (
"252 741 LINE",
"449 865 LINE",
"371 974 LINE",
"334 959 LINE",
"205 795 LINE"
);
}
);
width = 555;
},
{
layerId = "2CA35139-2F15-4242-9EF2-18C03B487D0C";
paths = (
{
closed = 1;
nodes = (
"205 717 LINE",
"398 818 LINE",
"361 890 LINE",
"331 897 LINE",
"173 764 LINE"
);
},
{
closed = 1;
nodes = (
"112 627 LINE",
"112 68 LINE",
"55 56 LINE",
"62 0 LINE",
"464 0 LINE",
"483 171 LINE",
"436 171 LINE",
"401 68 LINE",
"181 68 LINE",
"181 314 LINE",
"343 314 LINE",
"343 377 LINE",
"181 377 LINE",
"181 623 LINE",
"391 623 LINE",
"425 520 LINE",
"473 520 LINE",
"453 691 LINE",
"55 691 LINE",
"55 632 LINE"
);
}
);
width = 523;
},
{
layerId = "632A4CD3-2375-47CC-B7F1-E224D812DAB9";
paths = (
{
closed = 1;
nodes = (
"189 780 LINE",
"229 729 LINE",
"424 841 LINE",
"367 932 LINE",
"333 928 LINE"
);
},
{
closed = 1;
nodes = (
"49 616 LINE",
"109 611 LINE",
"109 84 LINE",
"48 71 LINE",
"58 0 LINE",
"482 0 LINE",
"502 187 LINE",
"439 187 LINE",
"404 86 LINE",
"208 86 LINE",
"208 309 LINE",
"366 309 LINE",
"366 395 LINE",
"208 395 LINE",
"208 605 LINE",
"394 605 LINE",
"432 503 LINE",
"495 503 LINE",
"475 691 LINE",
"49 691 LINE"
);
}
);
width = 539;
}
);
unicode = 00C9;
},
{
color = 4;
glyphname = Ecircumflex;
layers = (
{
components = (
{
name = E;
},
{
name = circumflexcomb.case;
transform = "{1, 0, 0, 1, 258, 210}";
}
);
layerId = "CBC04B6C-E875-491C-A1C2-2B8D0972DDA1";
width = 523;
},
{
components = (
{
name = E;
},
{
name = circumflexcomb.case;
transform = "{1, 0, 0, 1, 274, 200}";
}
);
layerId = "682D4A5D-117B-492A-B436-118C610C28E8";
width = 555;
},
{
layerId = "97A2F932-1121-41E4-AD06-4A872C221506";
paths = (
{
closed = 1;
nodes = (
"99 724 LINE",
"184 724 LINE",
"281 782 LINE",
"379 724 LINE",
"465 724 LINE",
"472 736 LINE",
"300 903 LINE",
"263 903 LINE",
"92 737 LINE"
);
},
{
closed = 1;
nodes = (
"41 691 LINE",
"41 602 LINE",
"104 595 LINE",
"104 101 LINE",
"39 88 LINE",
"53 0 LINE",
"499 0 LINE",
"520 204 LINE",
"441 204 LINE",
"404 105 LINE",
"235 105 LINE",
"235 303 LINE",
"387 303 LINE",
"387 408 LINE",
"235 408 LINE",
"235 586 LINE",
"397 586 LINE",
"438 487 LINE",
"516 487 LINE",
"497 691 LINE"
);
}
);
width = 555;
},
{
layerId = "2CA35139-2F15-4242-9EF2-18C03B487D0C";
paths = (
{
closed = 1;
nodes = (
"109 727 LINE",
"183 727 LINE",
"258 790 LINE",
"334 727 LINE",
"408 727 LINE",
"267 884 LINE",
"251 884 LINE"
);
},
{
closed = 1;
nodes = (
"112 627 LINE",
"112 68 LINE",
"55 56 LINE",
"62 0 LINE",
"464 0 LINE",
"483 171 LINE",
"436 171 LINE",
"401 68 LINE",
"181 68 LINE",
"181 314 LINE",
"343 314 LINE",
"343 377 LINE",
"181 377 LINE",
"181 623 LINE",
"391 623 LINE",
"425 520 LINE",
"473 520 LINE",
"453 691 LINE",
"55 691 LINE",
"55 632 LINE"
);
}
);
width = 523;
},
{
layerId = "632A4CD3-2375-47CC-B7F1-E224D812DAB9";
paths = (
{
closed = 1;
nodes = (
"258 894 LINE",
"101 732 LINE",
"104 726 LINE",
"184 726 LINE",
"270 785 LINE",
"357 726 LINE",
"438 726 LINE",
"440 731 LINE",
"284 894 LINE"
);
},
{
closed = 1;
nodes = (
"49 616 LINE",
"109 611 LINE",
"109 84 LINE",
"48 71 LINE",
"58 0 LINE",
"482 0 LINE",
"502 187 LINE",
"439 187 LINE",
"404 86 LINE",
"208 86 LINE",
"208 309 LINE",
"366 309 LINE",
"366 395 LINE",
"208 395 LINE",
"208 605 LINE",
"394 605 LINE",
"432 503 LINE",
"495 503 LINE",
"475 691 LINE",
"49 691 LINE"
);
}
);
width = 539;
}
);
unicode = 00CA;
},
{
color = 4;
glyphname = Edieresis;
layers = (
{
anchors = (
{
name = _top;
position = "{258, 691}";
},
{
name = top;
position = "{258, 881}";
}
);
components = (
{
name = E;
}
);
layerId = "CBC04B6C-E875-491C-A1C2-2B8D0972DDA1";
paths = (
{
closed = 1;
nodes = (
"385 733 OFFCURVE",
"411 763 OFFCURVE",
"411 793 CURVE SMOOTH",
"411 826 OFFCURVE",
"385 853 OFFCURVE",
"354 853 CURVE SMOOTH",
"319 853 OFFCURVE",
"294 826 OFFCURVE",
"294 793 CURVE SMOOTH {name = hr00;}",
"294 763 OFFCURVE",
"319 733 OFFCURVE",
"354 733 CURVE SMOOTH"
);
},
{
closed = 1;
nodes = (
"207 733 OFFCURVE",
"233 762 OFFCURVE",
"233 792 CURVE SMOOTH",
"233 824 OFFCURVE",
"207 851 OFFCURVE",
"177 851 CURVE SMOOTH",
"143 851 OFFCURVE",
"119 824 OFFCURVE",
"119 792 CURVE SMOOTH",
"119 762 OFFCURVE",
"143 733 OFFCURVE",
"177 733 CURVE SMOOTH"
);
}
);
width = 523;
},
{
anchors = (
{
name = _top;
position = "{274, 691}";
},
{
name = top;
position = "{274, 891}";
}
);
components = (
{
name = E;
}
);
layerId = "682D4A5D-117B-492A-B436-118C610C28E8";
paths = (
{
closed = 1;
nodes = (
"406 739 OFFCURVE",
"434 768 OFFCURVE",
"434 804 CURVE SMOOTH {name = hr02;}",
"434 841 OFFCURVE",
"406 869 OFFCURVE",
"369 869 CURVE SMOOTH {name = hr03;}",
"332 869 OFFCURVE",
"304 841 OFFCURVE",
"304 804 CURVE SMOOTH",
"304 768 OFFCURVE",
"332 739 OFFCURVE",
"369 739 CURVE SMOOTH {name = hr01;}"
);
},
{
closed = 1;
nodes = (
"216 739 OFFCURVE",
"244 768 OFFCURVE",
"244 804 CURVE SMOOTH",
"244 841 OFFCURVE",
"216 869 OFFCURVE",
"179 869 CURVE SMOOTH",
"143 869 OFFCURVE",
"114 841 OFFCURVE",
"114 804 CURVE SMOOTH {name = hr00;}",
"114 768 OFFCURVE",
"143 739 OFFCURVE",
"179 739 CURVE SMOOTH"
);
}
);
width = 555;
},
{
layerId = "97A2F932-1121-41E4-AD06-4A872C221506";
paths = (
{
closed = 1;
nodes = (
"41 691 LINE",
"41 602 LINE",
"104 595 LINE",
"104 101 LINE",
"39 88 LINE",
"53 0 LINE",
"499 0 LINE",
"520 204 LINE",
"441 204 LINE",
"404 105 LINE",
"235 105 LINE",
"235 303 LINE",
"387 303 LINE",
"387 408 LINE",
"235 408 LINE",
"235 586 LINE",
"397 586 LINE",
"438 487 LINE",
"516 487 LINE",
"497 691 LINE"
);
},
{
closed = 1;
nodes = (
"131 775 OFFCURVE",
"171 736 OFFCURVE",
"228 736 OFFCURVE",
"268 775 OFFCURVE",
"268 804 QCURVE SMOOTH",
"268 833 OFFCURVE",
"228 873 OFFCURVE",
"171 873 OFFCURVE",
"131 833 OFFCURVE",
"131 804 QCURVE SMOOTH"
);
},
{
closed = 1;
nodes = (
"309 775 OFFCURVE",
"348 736 OFFCURVE",
"377 736 QCURVE SMOOTH",
"406 736 OFFCURVE",
"444 775 OFFCURVE",
"444 804 QCURVE SMOOTH",
"444 833 OFFCURVE",
"406 873 OFFCURVE",
"377 873 QCURVE SMOOTH",
"348 873 OFFCURVE",
"309 833 OFFCURVE",
"309 804 QCURVE SMOOTH"
);
}
);
width = 555;
},
{
layerId = "2CA35139-2F15-4242-9EF2-18C03B487D0C";
paths = (
{
closed = 1;
nodes = (
"112 627 LINE",
"112 68 LINE",
"55 56 LINE",
"62 0 LINE",
"464 0 LINE",
"483 171 LINE",
"436 171 LINE",
"401 68 LINE",
"181 68 LINE",
"181 314 LINE",
"343 314 LINE",
"343 377 LINE",
"181 377 LINE",
"181 623 LINE",
"391 623 LINE",
"425 520 LINE",
"473 520 LINE",
"453 691 LINE",
"55 691 LINE",
"55 632 LINE"
);
},
{
closed = 1;
nodes = (
"119 769 OFFCURVE",
"152 735 OFFCURVE",
"199 735 OFFCURVE",
"234 769 OFFCURVE",
"234 793 QCURVE SMOOTH",
"234 817 OFFCURVE",
"199 850 OFFCURVE",
"152 850 OFFCURVE",
"119 817 OFFCURVE",
"119 793 QCURVE SMOOTH"
);
},
{
closed = 1;
nodes = (
"295 769 OFFCURVE",
"330 735 OFFCURVE",
"378 735 OFFCURVE",
"410 769 OFFCURVE",
"410 793 QCURVE SMOOTH",
"410 817 OFFCURVE",
"378 850 OFFCURVE",
"330 850 OFFCURVE",
"295 817 OFFCURVE",
"295 793 QCURVE SMOOTH"
);
}
);
width = 523;
},
{
layerId = "632A4CD3-2375-47CC-B7F1-E224D812DAB9";
paths = (
{
closed = 1;
nodes = (
"49 616 LINE",
"109 611 LINE",
"109 84 LINE",
"48 71 LINE",
"58 0 LINE",
"482 0 LINE",
"502 187 LINE",
"439 187 LINE",
"404 86 LINE",
"208 86 LINE",
"208 309 LINE",
"366 309 LINE",
"366 395 LINE",
"208 395 LINE",
"208 605 LINE",
"394 605 LINE",
"432 503 LINE",
"495 503 LINE",
"475 691 LINE",
"49 691 LINE"
);
},
{
closed = 1;
nodes = (
"431 910 OFFCURVE",
"394 948 OFFCURVE",
"341 948 OFFCURVE",
"303 910 OFFCURVE",
"303 859 OFFCURVE",
"342 820 OFFCURVE",
"393 820 OFFCURVE",
"431 858 OFFCURVE",
"431 884 QCURVE SMOOTH"
);
},
{
closed = 1;
nodes = (
"126 858 OFFCURVE",
"163 820 OFFCURVE",
"213 820 OFFCURVE",
"252 857 OFFCURVE",
"252 910 OFFCURVE",
"215 948 OFFCURVE",
"162 948 OFFCURVE",
"126 910 OFFCURVE",
"126 884 QCURVE SMOOTH"
);
}
);
width = 539;
}
);
unicode = 00CB;
},
{
color = 4;
glyphname = Egrave;
layers = (
{
components = (
{
name = E;
},
{
name = gravecomb.case;
transform = "{1, 0, 0, 1, 258, 210}";
}
);
layerId = "CBC04B6C-E875-491C-A1C2-2B8D0972DDA1";
width = 523;
},
{
components = (
{
name = E;
},
{
name = gravecomb.case;
transform = "{1, 0, 0, 1, 274, 200}";
}
);
layerId = "682D4A5D-117B-492A-B436-118C610C28E8";
width = 555;
},
{
layerId = "97A2F932-1121-41E4-AD06-4A872C221506";
paths = (
{
closed = 1;
nodes = (
"41 691 LINE",
"41 602 LINE",
"104 595 LINE",
"104 101 LINE",
"39 88 LINE",
"53 0 LINE",
"499 0 LINE",
"520 204 LINE",
"441 204 LINE",
"404 105 LINE",
"235 105 LINE",
"235 303 LINE",
"387 303 LINE",
"387 408 LINE",
"235 408 LINE",
"235 586 LINE",
"397 586 LINE",
"438 487 LINE",
"516 487 LINE",
"497 691 LINE"
);
},
{
closed = 1;
nodes = (
"394 765 LINE",
"282 942 LINE",
"247 959 LINE",
"170 868 LINE",
"353 724 LINE"
);
}
);
width = 555;
},
{
layerId = "2CA35139-2F15-4242-9EF2-18C03B487D0C";
paths = (
{
closed = 1;
nodes = (
"359 764 LINE",
"191 897 LINE",
"161 890 LINE",
"124 818 LINE",
"328 717 LINE"
);
},
{
closed = 1;
nodes = (
"112 627 LINE",
"112 68 LINE",
"55 56 LINE",
"62 0 LINE",
"464 0 LINE",
"483 171 LINE",
"436 171 LINE",
"401 68 LINE",
"181 68 LINE",
"181 314 LINE",
"343 314 LINE",
"343 377 LINE",
"181 377 LINE",
"181 623 LINE",
"391 623 LINE",
"425 520 LINE",
"473 520 LINE",
"453 691 LINE",
"55 691 LINE",
"55 632 LINE"
);
}
);
width = 523;
},
{
layerId = "632A4CD3-2375-47CC-B7F1-E224D812DAB9";
paths = (
{
closed = 1;
nodes = (
"341 720 LINE",
"377 764 LINE",
"238 919 LINE",
"204 925 LINE",
"147 843 LINE"
);
},
{
closed = 1;
nodes = (
"49 616 LINE",
"109 611 LINE",
"109 84 LINE",
"48 71 LINE",
"58 0 LINE",
"482 0 LINE",
"502 187 LINE",
"439 187 LINE",
"404 86 LINE",
"208 86 LINE",
"208 309 LINE",
"366 309 LINE",
"366 395 LINE",
"208 395 LINE",
"208 605 LINE",
"394 605 LINE",
"432 503 LINE",
"495 503 LINE",
"475 691 LINE",
"49 691 LINE"
);
}
);
width = 539;
}
);
unicode = 00C8;
},
{
color = 4;
glyphname = F;
layers = (
{
layerId = "CBC04B6C-E875-491C-A1C2-2B8D0972DDA1";
paths = (
{
closed = 1;
nodes = (
"328 0 LINE {name = hr00;}",
"333 51 LINE",
"181 72 LINE",
"181 314 LINE",
"343 314 LINE",
"343 377 LINE",
"181 377 LINE",
"181 624 LINE",
"391 624 LINE",
"426 520 LINE",
"474 520 LINE",
"453 691 LINE",
"55 691 LINE",
"55 632 LINE {name = hr02;}",
"112 627 LINE",
"112 68 LINE {name = hr01;}",
"55 56 LINE",
"61 0 LINE"
);
}
);
width = 492;
},
{
layerId = "682D4A5D-117B-492A-B436-118C610C28E8";
paths = (
{
closed = 1;
nodes = (
"398 0 LINE",
"405 79 LINE {name = hr00;}",
"235 105 LINE",
"235 303 LINE",
"387 303 LINE",
"387 408 LINE",
"235 408 LINE",
"235 586 LINE",
"397 586 LINE",
"440 486 LINE {name = hr01;}",
"516 486 LINE",
"497 691 LINE",
"41 691 LINE",
"41 602 LINE",
"104 595 LINE",
"104 101 LINE",
"39 88 LINE",
"53 0 LINE"
);
}
);
width = 528;
},
{
layerId = "97A2F932-1121-41E4-AD06-4A872C221506";
paths = (
{
closed = 1;
nodes = (
"405 79 LINE",
"235 105 LINE",
"235 302 LINE",
"387 302 LINE",
"387 407 LINE",
"235 407 LINE",
"235 585 LINE",
"397 585 LINE",
"440 485 LINE",
"516 485 LINE",
"497 690 LINE",
"41 690 LINE",
"41 601 LINE",
"104 594 LINE",
"104 101 LINE",
"39 88 LINE",
"53 0 LINE",
"398 0 LINE"
);
}
);
width = 528;
},
{
layerId = "2CA35139-2F15-4242-9EF2-18C03B487D0C";
paths = (
{
closed = 1;
nodes = (
"333 51 LINE",
"181 72 LINE",
"181 314 LINE",
"343 314 LINE",
"343 377 LINE",
"181 377 LINE",
"181 624 LINE",
"391 624 LINE",
"426 520 LINE",
"474 520 LINE",
"453 691 LINE",
"55 691 LINE",
"55 632 LINE",
"112 627 LINE",
"112 68 LINE",
"55 56 LINE",
"61 0 LINE",
"328 0 LINE"
);
}
);
width = 492;
},
{
layerId = "632A4CD3-2375-47CC-B7F1-E224D812DAB9";
paths = (
{
closed = 1;
nodes = (
"364 0 LINE",
"370 65 LINE",
"208 88 LINE",
"208 309 LINE",
"366 309 LINE",
"366 395 LINE",
"208 395 LINE",
"208 605 LINE",
"394 605 LINE",
"434 503 LINE",
"496 503 LINE",
"475 691 LINE",
"49 691 LINE",
"49 616 LINE",
"109 611 LINE",
"109 84 LINE",
"48 71 LINE",
"58 0 LINE"
);
}
);
width = 511;
}
);
leftKerningGroup = E;
unicode = 0046;
userData = {
com.typemytype.robofont.mark = (
0.713,
0.6,
1,
1
);
};
},
{
color = 4;
glyphname = G;
layers = (
{
anchors = (
{
name = bottom;
position = "{383, 0}";
},
{
name = top;
position = "{356, 691}";
}
);
layerId = "CBC04B6C-E875-491C-A1C2-2B8D0972DDA1";
paths = (
{
closed = 1;
nodes = (
"440 -4 OFFCURVE",
"495 2 OFFCURVE",
"544 17 CURVE",
"544 313 LINE {name = hr00;}",
"370 313 LINE",
"352 252 LINE",
"475 238 LINE",
"475 71 LINE",
"451 66 OFFCURVE",
"417 64 OFFCURVE",
"392 64 CURVE SMOOTH",
"225 64 OFFCURVE",
"111 176 OFFCURVE",
"111 343 CURVE SMOOTH",
"111 498 OFFCURVE",
"207 622 OFFCURVE",
"381 623 CURVE",
"400 623 OFFCURVE",
"430 621 OFFCURVE",
"450 618 CURVE {name = hr01;}",
"473 519 LINE",
"536 519 LINE",
"525 673 LINE",
"482 684 OFFCURVE",
"435 691 OFFCURVE",
"386 691 CURVE SMOOTH",
"177 691 OFFCURVE",
"40 546 OFFCURVE",
"40 340 CURVE SMOOTH",
"40 138 OFFCURVE",
"185 -4 OFFCURVE",
"386 -4 CURVE SMOOTH"
);
}
);
width = 607;
},
{
anchors = (
{
name = bottom;
position = "{368, 0}";
},
{
name = top;
position = "{374, 691}";
}
);
layerId = "682D4A5D-117B-492A-B436-118C610C28E8";
paths = (
{
closed = 1;
nodes = (
"454 -4 OFFCURVE",
"536 4 OFFCURVE",
"572 9 CURVE",
"572 324 LINE",
"356 324 LINE {name = hr00;}",
"338 243 LINE",
"441 229 LINE",
"441 100 LINE",
"435 99 OFFCURVE",
"426 98 OFFCURVE",
"411 98 CURVE SMOOTH",
"250 98 OFFCURVE",
"164 197 OFFCURVE",
"164 337 CURVE SMOOTH",
"164 489 OFFCURVE",
"260 587 OFFCURVE",
"372 587 CURVE SMOOTH",
"412 587 OFFCURVE",
"421 585 OFFCURVE",
"433 584 CURVE",
"484 461 LINE {name = hr01;}",
"565 461 LINE",
"547 667 LINE",
"527 673 OFFCURVE",
"453 692 OFFCURVE",
"374 692 CURVE SMOOTH",
"175 692 OFFCURVE",
"27 559 OFFCURVE",
"27 337 CURVE SMOOTH",
"27 102 OFFCURVE",
"193 -4 OFFCURVE",
"380 -4 CURVE SMOOTH"
);
}
);
width = 620;
},
{
layerId = "97A2F932-1121-41E4-AD06-4A872C221506";
paths = (
{
closed = 1;
nodes = (
"292 98 OFFCURVE",
"227 165 QCURVE SMOOTH",
"164 230 OFFCURVE",
"164 337 QCURVE SMOOTH",
"164 448 OFFCURVE",
"226 519 QCURVE SMOOTH",
"254 552 OFFCURVE",
"330 587 OFFCURVE",
"406 587 OFFCURVE",
"433 584 QCURVE",
"484 461 LINE",
"565 461 LINE",
"547 667 LINE",
"539 669 OFFCURVE",
"522 674 QCURVE SMOOTH",
"455 692 OFFCURVE",
"374 692 QCURVE SMOOTH",
"222 692 OFFCURVE",
"126 598 QCURVE SMOOTH",
"27 501 OFFCURVE",
"27 337 QCURVE SMOOTH",
"27 170 OFFCURVE",
"134 78 QCURVE SMOOTH",
"182 36 OFFCURVE",
"310 -4 OFFCURVE",
"481 -4 OFFCURVE",
"572 9 QCURVE",
"572 324 LINE",
"356 324 LINE",
"338 243 LINE",
"441 229 LINE",
"441 100 LINE",
"431 98 OFFCURVE",
"411 98 QCURVE SMOOTH"
);
}
);
width = 620;
},
{
layerId = "2CA35139-2F15-4242-9EF2-18C03B487D0C";
paths = (
{
closed = 1;
nodes = (
"111 219 OFFCURVE",
"111 343 QCURVE SMOOTH",
"111 464 OFFCURVE",
"180 541 QCURVE SMOOTH",
"255 623 OFFCURVE",
"381 623 QCURVE SMOOTH",
"412 623 OFFCURVE",
"450 618 QCURVE",
"473 519 LINE",
"536 519 LINE",
"525 673 LINE",
"453 691 OFFCURVE",
"386 691 QCURVE SMOOTH",
"231 691 OFFCURVE",
"134 592 QCURVE SMOOTH",
"40 496 OFFCURVE",
"40 340 QCURVE SMOOTH",
"40 189 OFFCURVE",
"138 92 QCURVE SMOOTH",
"184 47 OFFCURVE",
"311 -4 OFFCURVE",
"473 -4 OFFCURVE",
"544 17 QCURVE",
"544 313 LINE",
"370 313 LINE",
"352 252 LINE",
"475 238 LINE",
"475 71 LINE",
"443 64 OFFCURVE",
"329 64 OFFCURVE",
"226 104 OFFCURVE",
"189 141 QCURVE SMOOTH"
);
}
);
width = 607;
},
{
layerId = "632A4CD3-2375-47CC-B7F1-E224D812DAB9";
paths = (
{
closed = 1;
nodes = (
"439 82 OFFCURVE",
"405 82 QCURVE SMOOTH",
"283 82 OFFCURVE",
"210 153 QCURVE SMOOTH",
"138 223 OFFCURVE",
"138 340 QCURVE SMOOTH",
"138 453 OFFCURVE",
"206 530 QCURVE SMOOTH",
"237 565 OFFCURVE",
"325 605 OFFCURVE",
"413 605 OFFCURVE",
"443 600 QCURVE",
"479 489 LINE",
"552 489 LINE",
"537 670 LINE",
"456 691 OFFCURVE",
"381 691 QCURVE SMOOTH",
"227 691 OFFCURVE",
"130 594 QCURVE SMOOTH",
"33 497 OFFCURVE",
"33 337 QCURVE SMOOTH",
"33 179 OFFCURVE",
"137 86 QCURVE SMOOTH",
"186 42 OFFCURVE",
"317 -4 OFFCURVE",
"487 -4 OFFCURVE",
"559 14 QCURVE",
"559 318 LINE",
"364 318 LINE",
"346 247 LINE",
"460 233 LINE",
"459 86 LINE"
);
}
);
width = 615;
}
);
leftKerningGroup = C;
unicode = 0047;
userData = {
com.typemytype.robofont.mark = (
0.713,
0.6,
1,
1
);
};
},
{
color = 4;
glyphname = H;
layers = (
{
layerId = "CBC04B6C-E875-491C-A1C2-2B8D0972DDA1";
paths = (
{
closed = 1;
nodes = (
"238 0 LINE",
"238 60 LINE {name = hr01;}",
"180 64 LINE",
"180 324 LINE",
"476 324 LINE",
"476 64 LINE {name = hr00;}",
"421 56 LINE",
"425 0 LINE",
"602 0 LINE",
"602 60 LINE {name = hr07;}",
"544 64 LINE",
"544 627 LINE {name = hr06;}",
"599 635 LINE",
"594 691 LINE",
"418 691 LINE",
"418 631 LINE {name = hr05;}",
"476 627 LINE",
"476 387 LINE {name = hr04;}",
"180 387 LINE",
"180 627 LINE",
"235 635 LINE",
"231 691 LINE",
"54 691 LINE",
"54 631 LINE {name = hr03;}",
"112 627 LINE",
"112 64 LINE {name = hr02;}",
"57 56 LINE",
"62 0 LINE"
);
}
);
width = 656;
},
{
layerId = "682D4A5D-117B-492A-B436-118C610C28E8";
paths = (
{
closed = 1;
nodes = (
"300 0 LINE",
"299 87 LINE",
"236 99 LINE",
"236 302 LINE",
"461 302 LINE",
"461 102 LINE",
"403 89 LINE",
"418 0 LINE {name = hr00;}",
"664 0 LINE",
"665 87 LINE",
"592 99 LINE",
"592 586 LINE",
"667 598 LINE",
"652 691 LINE",
"405 691 LINE",
"405 600 LINE",
"461 593 LINE",
"461 407 LINE",
"236 407 LINE",
"236 586 LINE",
"301 598 LINE",
"286 691 LINE",
"42 691 LINE",
"42 600 LINE",
"105 593 LINE",
"105 102 LINE",
"40 89 LINE",
"55 0 LINE"
);
}
);
width = 702;
},
{
layerId = "97A2F932-1121-41E4-AD06-4A872C221506";
paths = (
{
closed = 1;
nodes = (
"665 87 LINE",
"592 99 LINE",
"592 585 LINE",
"667 597 LINE",
"652 690 LINE",
"405 690 LINE",
"405 599 LINE",
"461 592 LINE",
"461 407 LINE",
"236 407 LINE",
"236 585 LINE",
"301 597 LINE",
"286 690 LINE",
"42 690 LINE",
"42 599 LINE",
"105 592 LINE",
"105 102 LINE",
"40 89 LINE",
"55 0 LINE",
"300 0 LINE",
"300 15 LINE",
"299 68 LINE",
"299 87 LINE",
"236 99 LINE",
"236 302 LINE",
"461 302 LINE",
"461 102 LINE",
"403 89 LINE",
"418 0 LINE",
"664 0 LINE",
"664 15 LINE",
"665 68 LINE"
);
}
);
width = 702;
},
{
layerId = "2CA35139-2F15-4242-9EF2-18C03B487D0C";
paths = (
{
closed = 1;
nodes = (
"421 56 LINE",
"425 0 LINE",
"602 0 LINE",
"602 60 LINE",
"544 64 LINE",
"544 627 LINE",
"599 635 LINE",
"594 691 LINE",
"418 691 LINE",
"418 631 LINE",
"476 627 LINE",
"476 387 LINE",
"180 387 LINE",
"180 627 LINE",
"235 635 LINE",
"231 691 LINE",
"54 691 LINE",
"54 631 LINE",
"112 627 LINE",
"112 64 LINE",
"57 56 LINE",
"62 0 LINE",
"238 0 LINE",
"238 60 LINE",
"180 64 LINE",
"180 324 LINE",
"476 324 LINE",
"476 64 LINE"
);
}
);
width = 656;
},
{
layerId = "632A4CD3-2375-47CC-B7F1-E224D812DAB9";
paths = (
{
closed = 1;
nodes = (
"109 83 LINE",
"49 72 LINE",
"59 0 LINE",
"270 0 LINE",
"270 73 LINE",
"209 81 LINE",
"209 313 LINE",
"463 313 LINE",
"463 83 LINE",
"406 72 LINE",
"416 0 LINE",
"623 0 LINE",
"623 73 LINE",
"563 81 LINE",
"563 606 LINE",
"623 616 LINE",
"613 691 LINE",
"406 691 LINE",
"406 615 LINE",
"463 610 LINE",
"463 399 LINE",
"209 399 LINE",
"209 606 LINE",
"269 616 LINE",
"259 691 LINE",
"49 691 LINE",
"49 615 LINE",
"109 610 LINE"
);
}
);
width = 672;
}
);
leftKerningGroup = H;
rightKerningGroup = H;
unicode = 0048;
userData = {
com.typemytype.robofont.mark = (
0.713,
0.6,
1,
1
);
};
},
{
color = 4;
glyphname = I;
layers = (
{
anchors = (
{
name = bottom;
position = "{149, 0}";
},
{
name = ogonek;
position = "{177, 3}";
},
{
name = top;
position = "{147, 691}";
}
);
layerId = "CBC04B6C-E875-491C-A1C2-2B8D0972DDA1";
paths = (
{
closed = 1;
nodes = (
"238 0 LINE",
"238 60 LINE {name = hr02;}",
"181 64 LINE",
"181 627 LINE",
"235 635 LINE",
"231 691 LINE {name = hr01;}",
"55 691 LINE",
"55 631 LINE",
"112 627 LINE",
"112 64 LINE {name = hr00;}",
"58 56 LINE",
"62 0 LINE {name = hr03;}"
);
}
);
width = 293;
},
{
anchors = (
{
name = bottom;
position = "{179, 0}";
},
{
name = ogonek;
position = "{237, -2}";
},
{
name = top;
position = "{177, 691}";
}
);
layerId = "682D4A5D-117B-492A-B436-118C610C28E8";
paths = (
{
closed = 1;
nodes = (
"311 0 LINE",
"312 87 LINE",
"238 99 LINE",
"238 586 LINE",
"314 598 LINE",
"299 691 LINE",
"39 691 LINE",
"39 600 LINE",
"107 593 LINE",
"107 102 LINE",
"37 89 LINE",
"51 0 LINE {name = hr00;}"
);
}
);
width = 348;
},
{
layerId = "97A2F932-1121-41E4-AD06-4A872C221506";
paths = (
{
closed = 1;
nodes = (
"312 87 LINE",
"238 99 LINE",
"238 585 LINE",
"314 597 LINE",
"299 690 LINE",
"39 690 LINE",
"39 599 LINE",
"107 592 LINE",
"107 102 LINE",
"37 89 LINE",
"51 0 LINE",
"311 0 LINE",
"311 15 LINE",
"312 68 LINE"
);
}
);
width = 348;
},
{
layerId = "2CA35139-2F15-4242-9EF2-18C03B487D0C";
paths = (
{
closed = 1;
nodes = (
"58 56 LINE",
"62 0 LINE",
"238 0 LINE",
"238 60 LINE",
"181 64 LINE",
"181 627 LINE",
"235 635 LINE",
"231 691 LINE",
"55 691 LINE",
"55 631 LINE",
"112 627 LINE",
"112 64 LINE"
);
}
);
width = 293;
},
{
layerId = "632A4CD3-2375-47CC-B7F1-E224D812DAB9";
paths = (
{
closed = 1;
nodes = (
"109 83 LINE",
"46 72 LINE",
"55 0 LINE",
"274 0 LINE",
"274 73 LINE",
"209 81 LINE",
"209 606 LINE",
"274 616 LINE",
"264 691 LINE",
"46 691 LINE",
"46 615 LINE",
"109 610 LINE"
);
}
);
width = 319;
}
);
leftKerningGroup = I;
rightKerningGroup = I;
unicode = 0049;
userData = {
com.typemytype.robofont.mark = (
0.713,
0.6,
1,
1
);
};
},
{
color = 4;
glyphname = Iacute;
layers = (
{
components = (
{
name = I;
},
{
name = acutecomb.case;
transform = "{1, 0, 0, 1, 147, 210}";
}
);
layerId = "CBC04B6C-E875-491C-A1C2-2B8D0972DDA1";
width = 293;
},
{
components = (
{
name = I;
},
{
name = acutecomb.case;
transform = "{1, 0, 0, 1, 177, 200}";
}
);
layerId = "682D4A5D-117B-492A-B436-118C610C28E8";
width = 348;
},
{
layerId = "97A2F932-1121-41E4-AD06-4A872C221506";
paths = (
{
closed = 1;
nodes = (
"312 87 LINE",
"238 99 LINE",
"238 586 LINE",
"314 598 LINE",
"299 691 LINE",
"39 691 LINE",
"39 600 LINE",
"107 593 LINE",
"107 102 LINE",
"37 89 LINE",
"51 0 LINE",
"311 0 LINE",
"311 15 LINE",
"312 68 LINE"
);
},
{
closed = 1;
nodes = (
"118 741 LINE",
"315 865 LINE",
"237 974 LINE",
"200 959 LINE",
"71 795 LINE"
);
}
);
width = 348;
},
{
layerId = "2CA35139-2F15-4242-9EF2-18C03B487D0C";
paths = (
{
closed = 1;
nodes = (
"68 717 LINE",
"261 818 LINE",
"225 890 LINE",
"194 897 LINE",
"37 764 LINE"
);
},
{
closed = 1;
nodes = (
"58 56 LINE",
"62 0 LINE",
"238 0 LINE",
"238 60 LINE",
"181 64 LINE",
"181 627 LINE",
"235 635 LINE",
"231 691 LINE",
"55 691 LINE",
"55 631 LINE",
"112 627 LINE",
"112 64 LINE"
);
}
);
width = 293;
},
{
layerId = "632A4CD3-2375-47CC-B7F1-E224D812DAB9";
paths = (
{
closed = 1;
nodes = (
"47 780 LINE",
"86 729 LINE",
"281 841 LINE",
"224 932 LINE",
"190 928 LINE"
);
},
{
closed = 1;
nodes = (
"109 83 LINE",
"46 72 LINE",
"55 0 LINE",
"274 0 LINE",
"274 73 LINE",
"209 81 LINE",
"209 606 LINE",
"274 616 LINE",
"264 691 LINE",
"46 691 LINE",
"46 615 LINE",
"109 610 LINE"
);
}
);
width = 319;
}
);
unicode = 00CD;
},
{
color = 4;
glyphname = Icircumflex;
layers = (
{
components = (
{
name = I;
},
{
name = circumflexcomb.case;
transform = "{1, 0, 0, 1, 147, 210}";
}
);
layerId = "CBC04B6C-E875-491C-A1C2-2B8D0972DDA1";
width = 293;
},
{
components = (
{
name = I;
},
{
name = circumflexcomb.case;
transform = "{1, 0, 0, 1, 177, 200}";
}
);
layerId = "682D4A5D-117B-492A-B436-118C610C28E8";
width = 348;
},
{
layerId = "97A2F932-1121-41E4-AD06-4A872C221506";
paths = (
{
closed = 1;
nodes = (
"312 87 LINE",
"238 99 LINE",
"238 586 LINE",
"314 598 LINE",
"299 691 LINE",
"39 691 LINE",
"39 600 LINE",
"107 593 LINE",
"107 102 LINE",
"37 89 LINE",
"51 0 LINE",
"311 0 LINE",
"311 15 LINE",
"312 68 LINE"
);
},
{
closed = 1;
nodes = (
"-8 724 LINE",
"77 724 LINE",
"175 782 LINE",
"273 724 LINE",
"359 724 LINE",
"366 736 LINE",
"194 903 LINE",
"157 903 LINE",
"-14 737 LINE"
);
}
);
width = 348;
},
{
layerId = "2CA35139-2F15-4242-9EF2-18C03B487D0C";
paths = (
{
closed = 1;
nodes = (
"-1 727 LINE",
"73 727 LINE",
"148 790 LINE",
"224 727 LINE",
"297 727 LINE",
"157 884 LINE",
"141 884 LINE"
);
},
{
closed = 1;
nodes = (
"58 56 LINE",
"62 0 LINE",
"238 0 LINE",
"238 60 LINE",
"181 64 LINE",
"181 627 LINE",
"235 635 LINE",
"231 691 LINE",
"55 691 LINE",
"55 631 LINE",
"112 627 LINE",
"112 64 LINE"
);
}
);
width = 293;
},
{
layerId = "632A4CD3-2375-47CC-B7F1-E224D812DAB9";
paths = (
{
closed = 1;
nodes = (
"109 83 LINE",
"46 72 LINE",
"55 0 LINE",
"274 0 LINE",
"274 73 LINE",
"209 81 LINE",
"209 606 LINE",
"274 616 LINE",
"264 691 LINE",
"46 691 LINE",
"46 615 LINE",
"109 610 LINE"
);
},
{
closed = 1;
nodes = (
"147 894 LINE",
"-10 732 LINE",
"-7 726 LINE",
"73 726 LINE",
"159 785 LINE",
"246 726 LINE",
"327 726 LINE",
"329 731 LINE",
"173 894 LINE"
);
}
);
width = 319;
}
);
unicode = 00CE;
},
{
color = 4;
glyphname = Idieresis;
layers = (
{
components = (
{
name = I;
},
{
name = dieresiscomb.case;
transform = "{1, 0, 0, 1, 147, 210}";
}
);
layerId = "CBC04B6C-E875-491C-A1C2-2B8D0972DDA1";
width = 293;
},
{
components = (
{
name = I;
},
{
name = dieresiscomb.case;
transform = "{1, 0, 0, 1, 177, 200}";
}
);
layerId = "682D4A5D-117B-492A-B436-118C610C28E8";
width = 348;
},
{
layerId = "97A2F932-1121-41E4-AD06-4A872C221506";
paths = (
{
closed = 1;
nodes = (
"312 87 LINE",
"238 99 LINE",
"238 586 LINE",
"314 598 LINE",
"299 691 LINE",
"39 691 LINE",
"39 600 LINE",
"107 593 LINE",
"107 102 LINE",
"37 89 LINE",
"51 0 LINE",
"311 0 LINE",
"311 15 LINE",
"312 68 LINE"
);
},
{
closed = 1;
nodes = (
"23 775 OFFCURVE",
"63 736 OFFCURVE",
"120 736 OFFCURVE",
"160 775 OFFCURVE",
"160 804 QCURVE SMOOTH",
"160 833 OFFCURVE",
"120 873 OFFCURVE",
"63 873 OFFCURVE",
"23 833 OFFCURVE",
"23 804 QCURVE SMOOTH"
);
},
{
closed = 1;
nodes = (
"201 775 OFFCURVE",
"240 736 OFFCURVE",
"269 736 QCURVE SMOOTH",
"298 736 OFFCURVE",
"336 775 OFFCURVE",
"336 804 QCURVE SMOOTH",
"336 833 OFFCURVE",
"298 873 OFFCURVE",
"269 873 QCURVE SMOOTH",
"240 873 OFFCURVE",
"201 833 OFFCURVE",
"201 804 QCURVE SMOOTH"
);
}
);
width = 348;
},
{
layerId = "2CA35139-2F15-4242-9EF2-18C03B487D0C";
paths = (
{
closed = 1;
nodes = (
"100 735 OFFCURVE",
"134 769 OFFCURVE",
"134 816 OFFCURVE",
"100 850 OFFCURVE",
"76 850 QCURVE SMOOTH",
"52 850 OFFCURVE",
"20 816 OFFCURVE",
"20 769 OFFCURVE",
"52 735 OFFCURVE",
"76 735 QCURVE SMOOTH"
);
},
{
closed = 1;
nodes = (
"247 735 OFFCURVE",
"279 769 OFFCURVE",
"279 816 OFFCURVE",
"247 850 OFFCURVE",
"223 850 QCURVE SMOOTH",
"199 850 OFFCURVE",
"165 816 OFFCURVE",
"165 769 OFFCURVE",
"199 735 OFFCURVE",
"223 735 QCURVE SMOOTH"
);
},
{
closed = 1;
nodes = (
"58 56 LINE",
"62 0 LINE",
"238 0 LINE",
"238 60 LINE",
"181 64 LINE",
"181 627 LINE",
"235 635 LINE",
"231 691 LINE",
"55 691 LINE",
"55 631 LINE",
"112 627 LINE",
"112 64 LINE"
);
}
);
width = 293;
},
{
layerId = "632A4CD3-2375-47CC-B7F1-E224D812DAB9";
paths = (
{
closed = 1;
nodes = (
"109 83 LINE",
"46 72 LINE",
"55 0 LINE",
"274 0 LINE",
"274 73 LINE",
"209 81 LINE",
"209 606 LINE",
"274 616 LINE",
"264 691 LINE",
"46 691 LINE",
"46 615 LINE",
"109 610 LINE"
);
},
{
closed = 1;
nodes = (
"219 861 OFFCURVE",
"181 824 OFFCURVE",
"181 771 OFFCURVE",
"219 735 OFFCURVE",
"270 735 OFFCURVE",
"306 772 OFFCURVE",
"306 823 OFFCURVE",
"271 861 OFFCURVE",
"245 861 QCURVE SMOOTH"
);
},
{
closed = 1;
nodes = (
"21 772 OFFCURVE",
"57 735 OFFCURVE",
"107 735 OFFCURVE",
"146 772 OFFCURVE",
"146 798 QCURVE SMOOTH",
"146 824 OFFCURVE",
"107 861 OFFCURVE",
"57 861 OFFCURVE",
"21 824 OFFCURVE",
"21 798 QCURVE SMOOTH"
);
}
);
width = 319;
}
);
unicode = 00CF;
},
{
color = 4;
glyphname = Igrave;
layers = (
{
anchors = (
{
name = _top;
position = "{147, 691}";
}
);
components = (
{
name = I;
}
);
layerId = "CBC04B6C-E875-491C-A1C2-2B8D0972DDA1";
paths = (
{
closed = 1;
nodes = (
"275 764 LINE",
"107 897 LINE",
"77 890 LINE",
"40 818 LINE",
"244 717 LINE {name = hr00;}"
);
}
);
width = 293;
},
{
anchors = (
{
name = _top;
position = "{177, 691}";
}
);
components = (
{
name = I;
}
);
layerId = "682D4A5D-117B-492A-B436-118C610C28E8";
paths = (
{
closed = 1;
nodes = (
"285 766 LINE",
"173 943 LINE",
"138 960 LINE",
"61 869 LINE",
"244 725 LINE"
);
}
);
width = 348;
},
{
layerId = "97A2F932-1121-41E4-AD06-4A872C221506";
paths = (
{
closed = 1;
nodes = (
"312 87 LINE",
"238 99 LINE",
"238 586 LINE",
"314 598 LINE",
"299 691 LINE",
"39 691 LINE",
"39 600 LINE",
"107 593 LINE",
"107 102 LINE",
"37 89 LINE",
"51 0 LINE",
"311 0 LINE",
"311 15 LINE",
"312 68 LINE"
);
},
{
closed = 1;
nodes = (
"282 765 LINE",
"170 942 LINE",
"135 959 LINE",
"58 868 LINE",
"241 724 LINE"
);
}
);
width = 348;
},
{
layerId = "2CA35139-2F15-4242-9EF2-18C03B487D0C";
paths = (
{
closed = 1;
nodes = (
"275 764 LINE",
"107 897 LINE",
"76 890 LINE",
"40 818 LINE",
"243 717 LINE"
);
},
{
closed = 1;
nodes = (
"58 56 LINE",
"62 0 LINE",
"238 0 LINE",
"238 60 LINE",
"181 64 LINE",
"181 627 LINE",
"235 635 LINE",
"231 691 LINE",
"55 691 LINE",
"55 631 LINE",
"112 627 LINE",
"112 64 LINE"
);
}
);
width = 293;
},
{
layerId = "632A4CD3-2375-47CC-B7F1-E224D812DAB9";
paths = (
{
closed = 1;
nodes = (
"231 720 LINE",
"267 764 LINE",
"127 919 LINE",
"95 925 LINE",
"38 843 LINE"
);
},
{
closed = 1;
nodes = (
"110 83 LINE",
"38 72 LINE",
"56 0 LINE",
"275 0 LINE",
"275 73 LINE",
"210 81 LINE",
"210 606 LINE",
"275 616 LINE",
"265 691 LINE",
"47 691 LINE",
"47 615 LINE",
"110 610 LINE"
);
}
);
width = 320;
}
);
unicode = 00CC;
},
{
color = 4;
glyphname = J;
layers = (
{
layerId = "CBC04B6C-E875-491C-A1C2-2B8D0972DDA1";
paths = (
{
closed = 1;
nodes = (
"165 -4 OFFCURVE",
"257 0 OFFCURVE",
"257 144 CURVE SMOOTH",
"257 627 LINE",
"315 631 LINE",
"315 691 LINE",
"122 691 LINE",
"116 635 LINE {name = hr00;}",
"189 627 LINE",
"189 123 LINE SMOOTH",
"189 78 OFFCURVE",
"166 62 OFFCURVE",
"138 62 CURVE SMOOTH",
"94 62 OFFCURVE",
"63 89 OFFCURVE",
"50 102 CURVE",
"11 44 LINE",
"43 16 OFFCURVE",
"88 -4 OFFCURVE",
"133 -4 CURVE SMOOTH"
);
}
);
width = 358;
},
{
layerId = "682D4A5D-117B-492A-B436-118C610C28E8";
paths = (
{
closed = 1;
nodes = (
"219 -4 OFFCURVE",
"304 21 OFFCURVE",
"304 175 CURVE SMOOTH",
"304 593 LINE {name = hr00;}",
"372 600 LINE",
"372 691 LINE",
"108 691 LINE",
"93 598 LINE",
"173 586 LINE",
"173 136 LINE SMOOTH",
"173 117 OFFCURVE",
"166 110 OFFCURVE",
"156 110 CURVE SMOOTH",
"138 110 OFFCURVE",
"110 129 OFFCURVE",
"72 160 CURVE",
"2 59 LINE",
"33 31 OFFCURVE",
"96 -4 OFFCURVE",
"159 -4 CURVE SMOOTH"
);
}
);
width = 397;
},
{
layerId = "97A2F932-1121-41E4-AD06-4A872C221506";
paths = (
{
closed = 1;
nodes = (
"304 592 LINE",
"372 599 LINE",
"372 690 LINE",
"108 690 LINE",
"93 597 LINE",
"173 585 LINE",
"173 136 LINE SMOOTH",
"173 110 OFFCURVE",
"156 110 QCURVE SMOOTH",
"142 110 OFFCURVE",
"101 137 OFFCURVE",
"72 160 QCURVE",
"2 59 LINE",
"14 48 OFFCURVE",
"31 37 QCURVE SMOOTH",
"94 -4 OFFCURVE",
"159 -4 QCURVE SMOOTH",
"217 -4 OFFCURVE",
"254 28 QCURVE SMOOTH",
"304 71 OFFCURVE",
"304 175 QCURVE SMOOTH"
);
}
);
width = 397;
},
{
layerId = "2CA35139-2F15-4242-9EF2-18C03B487D0C";
paths = (
{
closed = 1;
nodes = (
"11 44 LINE",
"66 -4 OFFCURVE",
"139 -4 QCURVE SMOOTH",
"178 -4 OFFCURVE",
"207 16 QCURVE SMOOTH",
"257 51 OFFCURVE",
"257 144 QCURVE SMOOTH",
"257 627 LINE",
"315 631 LINE",
"315 691 LINE",
"122 691 LINE",
"116 635 LINE",
"189 627 LINE",
"189 123 LINE SMOOTH",
"189 89 OFFCURVE",
"159 62 OFFCURVE",
"138 62 QCURVE SMOOTH",
"90 62 OFFCURVE",
"50 102 QCURVE"
);
}
);
width = 358;
},
{
layerId = "632A4CD3-2375-47CC-B7F1-E224D812DAB9";
paths = (
{
closed = 1;
nodes = (
"8 47 LINE",
"61 -4 OFFCURVE",
"139 -4 QCURVE SMOOTH",
"184 -4 OFFCURVE",
"218 21 QCURVE SMOOTH",
"271 60 OFFCURVE",
"271 149 QCURVE SMOOTH",
"271 610 LINE",
"333 615 LINE",
"333 691 LINE",
"104 691 LINE",
"94 616 LINE",
"171 606 LINE",
"171 140 LINE SMOOTH",
"171 85 OFFCURVE",
"134 85 QCURVE SMOOTH",
"105 85 OFFCURVE",
"61 126 QCURVE"
);
}
);
width = 367;
}
);
unicode = 004A;
userData = {
com.typemytype.robofont.mark = (
0.713,
0.6,
1,
1
);
};
},
{
color = 4;
glyphname = K;
layers = (
{
anchors = (
{
name = bottom;
position = "{324, 0}";
}
);
layerId = "CBC04B6C-E875-491C-A1C2-2B8D0972DDA1";
paths = (
{
closed = 1;
nodes = (
"238 0 LINE",
"238 60 LINE {name = hr02;}",
"181 64 LINE",
"181 187 LINE",
"291 323 LINE",
"471 0 LINE",
"577 0 LINE",
"577 57 LINE",
"517 66 LINE",
"338 381 LINE",
"538 628 LINE",
"572 635 LINE",
"572 691 LINE",
"382 691 LINE",
"382 637 LINE",
"461 631 LINE",
"181 286 LINE",
"181 627 LINE",
"235 635 LINE",
"231 691 LINE {name = hr01;}",
"55 691 LINE",
"55 631 LINE",
"112 627 LINE",
"112 64 LINE {name = hr00;}",
"58 56 LINE",
"62 0 LINE {name = hr03;}"
);
}
);
width = 594;
},
{
anchors = (
{
name = bottom;
position = "{350, 0}";
}
);
layerId = "682D4A5D-117B-492A-B436-118C610C28E8";
paths = (
{
closed = 1;
nodes = (
"305 0 LINE",
"304 87 LINE",
"238 99 LINE",
"238 202 LINE",
"314 291 LINE",
"460 0 LINE",
"618 0 LINE",
"618 87 LINE",
"564 97 LINE",
"402 391 LINE",
"575 594 LINE",
"614 602 LINE",
"614 691 LINE",
"362 691 LINE",
"362 602 LINE",
"439 586 LINE",
"238 345 LINE",
"238 586 LINE",
"307 601 LINE",
"292 691 LINE",
"39 691 LINE",
"39 598 LINE",
"107 593 LINE",
"107 102 LINE",
"37 89 LINE",
"51 0 LINE {name = hr00;}"
);
}
);
width = 635;
},
{
layerId = "97A2F932-1121-41E4-AD06-4A872C221506";
paths = (
{
closed = 1;
nodes = (
"304 87 LINE",
"238 99 LINE",
"238 202 LINE",
"275 247 OFFCURVE",
"314 291 QCURVE",
"460 0 LINE",
"618 0 LINE",
"618 87 LINE",
"564 97 LINE",
"402 391 LINE",
"443 438 OFFCURVE",
"512 516 QCURVE SMOOTH",
"544 553 OFFCURVE",
"575 593 QCURVE",
"614 601 LINE",
"614 690 LINE",
"362 690 LINE",
"362 601 LINE",
"439 585 LINE",
"238 345 LINE",
"238 585 LINE",
"307 600 LINE",
"292 690 LINE",
"39 690 LINE",
"39 597 LINE",
"107 592 LINE",
"107 102 LINE",
"37 89 LINE",
"51 0 LINE",
"305 0 LINE",
"305 15 LINE",
"304 68 LINE"
);
}
);
width = 635;
},
{
layerId = "2CA35139-2F15-4242-9EF2-18C03B487D0C";
paths = (
{
closed = 1;
nodes = (
"58 56 LINE",
"62 0 LINE",
"238 0 LINE",
"238 60 LINE",
"181 64 LINE",
"181 187 LINE",
"291 323 LINE",
"471 0 LINE",
"577 0 LINE",
"577 57 LINE",
"517 66 LINE",
"338 381 LINE",
"538 628 LINE",
"572 635 LINE",
"572 691 LINE",
"382 691 LINE",
"382 637 LINE",
"461 631 LINE",
"181 286 LINE",
"181 627 LINE",
"235 635 LINE",
"231 691 LINE",
"55 691 LINE",
"55 631 LINE",
"112 627 LINE",
"112 64 LINE"
);
}
);
width = 594;
},
{
layerId = "632A4CD3-2375-47CC-B7F1-E224D812DAB9";
paths = (
{
closed = 1;
nodes = (
"540 81 LINE",
"367 380 LINE",
"559 611 LINE",
"592 618 LINE",
"592 691 LINE",
"371 691 LINE",
"371 619 LINE",
"442 608 LINE",
"209 324 LINE",
"209 606 LINE",
"269 617 LINE",
"260 691 LINE",
"46 691 LINE",
"46 614 LINE",
"109 610 LINE",
"109 83 LINE",
"46 72 LINE",
"55 0 LINE",
"270 0 LINE",
"270 73 LINE",
"209 81 LINE",
"209 190 LINE",
"298 297 LINE",
"456 0 LINE",
"595 0 LINE",
"595 71 LINE"
);
}
);
width = 613;
}
);
leftKerningGroup = I;
unicode = 004B;
userData = {
com.typemytype.robofont.mark = (
0.713,
0.6,
1,
1
);
};
},
{
color = 4;
glyphname = L;
layers = (
{
anchors = (
{
name = bottom;
position = "{258, 0}";
},
{
name = top;
position = "{155, 691}";
}
);
layerId = "CBC04B6C-E875-491C-A1C2-2B8D0972DDA1";
paths = (
{
closed = 1;
nodes = (
"463 0 LINE",
"482 171 LINE",
"435 171 LINE",
"400 68 LINE",
"180 68 LINE",
"180 627 LINE",
"244 635 LINE",
"240 691 LINE",
"54 691 LINE",
"54 631 LINE {name = hr00;}",
"111 627 LINE",
"111 64 LINE",
"54 56 LINE",
"61 0 LINE"
);
}
);
width = 496;
},
{
anchors = (
{
name = bottom;
position = "{263, 0}";
},
{
name = top;
position = "{178, 691}";
}
);
layerId = "682D4A5D-117B-492A-B436-118C610C28E8";
paths = (
{
closed = 1;
nodes = (
"499 0 LINE",
"520 204 LINE {name = hr01;}",
"441 204 LINE",
"404 105 LINE {name = hr02;}",
"235 105 LINE",
"235 586 LINE",
"310 600 LINE",
"295 691 LINE",
"41 691 LINE {name = hr00;}",
"41 602 LINE",
"104 595 LINE",
"104 101 LINE",
"39 88 LINE",
"53 0 LINE"
);
}
);
width = 524;
},
{
layerId = "97A2F932-1121-41E4-AD06-4A872C221506";
paths = (
{
closed = 1;
nodes = (
"41 690 LINE",
"41 601 LINE",
"104 594 LINE",
"104 101 LINE",
"39 88 LINE",
"53 0 LINE",
"499 0 LINE",
"520 204 LINE",
"441 204 LINE",
"404 105 LINE",
"235 105 LINE",
"235 585 LINE",
"310 599 LINE",
"295 690 LINE"
);
}
);
width = 524;
},
{
layerId = "2CA35139-2F15-4242-9EF2-18C03B487D0C";
paths = (
{
closed = 1;
nodes = (
"111 627 LINE",
"111 64 LINE",
"54 56 LINE",
"61 0 LINE",
"463 0 LINE",
"482 171 LINE",
"435 171 LINE",
"400 68 LINE",
"180 68 LINE",
"180 627 LINE",
"244 635 LINE",
"240 691 LINE",
"54 691 LINE",
"54 631 LINE"
);
}
);
width = 496;
},
{
layerId = "632A4CD3-2375-47CC-B7F1-E224D812DAB9";
paths = (
{
closed = 1;
nodes = (
"49 616 LINE",
"109 611 LINE",
"109 82 LINE",
"48 71 LINE",
"58 0 LINE",
"482 0 LINE",
"502 187 LINE",
"439 187 LINE",
"404 86 LINE",
"208 86 LINE",
"208 606 LINE",
"273 617 LINE",
"264 691 LINE",
"49 691 LINE"
);
}
);
width = 511;
}
);
unicode = 004C;
userData = {
com.typemytype.robofont.mark = (
0.713,
0.6,
1,
1
);
};
},
{
color = 4;
glyphname = M;
layers = (
{
layerId = "CBC04B6C-E875-491C-A1C2-2B8D0972DDA1";
paths = (
{
closed = 1;
nodes = (
"238 0 LINE",
"238 56 LINE",
"175 66 LINE",
"175 623 LINE",
"371 15 LINE",
"458 15 LINE",
"651 636 LINE",
"651 68 LINE",
"595 55 LINE",
"600 0 LINE",
"780 0 LINE",
"780 55 LINE",
"720 67 LINE",
"720 626 LINE",
"772 631 LINE",
"766 691 LINE",
"608 691 LINE",
"421 87 LINE",
"226 691 LINE {name = hr00;}",
"55 691 LINE",
"55 632 LINE",
"112 627 LINE",
"112 68 LINE",
"54 56 LINE",
"62 0 LINE"
);
}
);
width = 831;
},
{
layerId = "682D4A5D-117B-492A-B436-118C610C28E8";
paths = (
{
closed = 1;
nodes = (
"251 0 LINE",
"250 87 LINE",
"204 98 LINE",
"204 590 LINE",
"367 13 LINE",
"501 13 LINE",
"668 597 LINE",
"668 103 LINE",
"624 90 LINE",
"633 0 LINE",
"845 0 LINE",
"845 87 LINE",
"794 94 LINE",
"794 586 LINE",
"849 598 LINE",
"834 691 LINE",
"595 691 LINE",
"450 178 LINE",
"306 691 LINE",
"49 691 LINE",
"49 597 LINE {name = hr00;}",
"104 591 LINE",
"104 95 LINE",
"45 87 LINE",
"51 0 LINE"
);
}
);
width = 895;
},
{
layerId = "97A2F932-1121-41E4-AD06-4A872C221506";
paths = (
{
closed = 1;
nodes = (
"204 98 LINE",
"204 589 LINE",
"367 13 LINE",
"501 13 LINE",
"668 596 LINE",
"668 103 LINE",
"624 90 LINE",
"633 0 LINE",
"845 0 LINE",
"845 87 LINE",
"794 94 LINE",
"794 585 LINE",
"849 597 LINE",
"834 690 LINE",
"595 690 LINE",
"450 178 LINE",
"306 690 LINE",
"49 690 LINE",
"49 596 LINE",
"104 590 LINE",
"104 95 LINE",
"45 87 LINE",
"51 0 LINE",
"251 0 LINE",
"251 40 LINE",
"250 87 LINE"
);
}
);
width = 895;
},
{
layerId = "2CA35139-2F15-4242-9EF2-18C03B487D0C";
paths = (
{
closed = 1;
nodes = (
"55 691 LINE",
"55 632 LINE",
"112 627 LINE",
"112 68 LINE",
"54 56 LINE",
"62 0 LINE",
"238 0 LINE",
"238 56 LINE",
"175 66 LINE",
"175 623 LINE",
"371 15 LINE",
"458 15 LINE",
"651 636 LINE",
"651 68 LINE",
"595 55 LINE",
"600 0 LINE",
"780 0 LINE",
"780 55 LINE",
"720 67 LINE",
"720 626 LINE",
"772 631 LINE",
"766 691 LINE",
"608 691 LINE",
"421 87 LINE",
"226 691 LINE"
);
}
);
width = 831;
},
{
layerId = "632A4CD3-2375-47CC-B7F1-E224D812DAB9";
paths = (
{
closed = 1;
nodes = (
"747 606 LINE",
"799 614 LINE",
"789 691 LINE",
"594 691 LINE",
"426 131 LINE",
"264 691 LINE",
"58 691 LINE",
"58 614 LINE",
"108 609 LINE",
"108 84 LINE",
"45 71 LINE",
"57 0 LINE",
"250 0 LINE",
"250 71 LINE",
"191 82 LINE",
"191 604 LINE",
"362 15 LINE",
"477 15 LINE",
"654 599 LINE",
"654 85 LINE",
"596 72 LINE",
"604 0 LINE",
"798 0 LINE",
"802 70 LINE",
"747 81 LINE"
);
}
);
width = 854;
}
);
leftKerningGroup = H;
rightKerningGroup = H;
unicode = 004D;
userData = {
com.typemytype.robofont.mark = (
0.713,
0.6,
1,
1
);
};
},
{
color = 4;
glyphname = N;
layers = (
{
anchors = (
{
name = bottom;
position = "{347, 0}";
},
{
name = top;
position = "{317, 691}";
}
);
layerId = "CBC04B6C-E875-491C-A1C2-2B8D0972DDA1";
paths = (
{
closed = 1;
nodes = (
"241 0 LINE",
"241 56 LINE",
"174 66 LINE",
"174 629 LINE {name = hr00;}",
"449 0 LINE",
"554 0 LINE",
"554 623 LINE",
"615 635 LINE",
"605 691 LINE",
"427 691 LINE",
"427 635 LINE",
"491 625 LINE",
"491 75 LINE",
"221 691 LINE",
"54 691 LINE",
"54 632 LINE",
"112 627 LINE",
"112 68 LINE",
"54 56 LINE",
"62 0 LINE"
);
}
);
width = 659;
},
{
anchors = (
{
name = bottom;
position = "{368, 0}";
},
{
name = top;
position = "{358, 691}";
}
);
layerId = "682D4A5D-117B-492A-B436-118C610C28E8";
paths = (
{
closed = 1;
nodes = (
"261 0 LINE",
"262 88 LINE",
"211 104 LINE",
"211 563 LINE",
"428 0 LINE {name = hr00;}",
"630 0 LINE",
"630 586 LINE",
"697 598 LINE",
"682 691 LINE",
"467 691 LINE",
"467 600 LINE",
"525 593 LINE",
"525 96 LINE",
"298 691 LINE",
"42 691 LINE",
"42 598 LINE",
"106 591 LINE",
"106 100 LINE",
"37 87 LINE",
"53 0 LINE"
);
}
);
width = 727;
},
{
layerId = "97A2F932-1121-41E4-AD06-4A872C221506";
paths = (
{
closed = 1;
nodes = (
"262 88 LINE",
"211 104 LINE",
"211 562 LINE",
"428 0 LINE",
"630 0 LINE",
"630 585 LINE",
"697 597 LINE",
"682 690 LINE",
"467 690 LINE",
"467 599 LINE",
"525 592 LINE",
"525 96 LINE",
"298 690 LINE",
"42 690 LINE",
"42 597 LINE",
"106 590 LINE",
"106 100 LINE",
"37 87 LINE",
"53 0 LINE",
"261 0 LINE",
"261 13 LINE",
"262 65 LINE"
);
}
);
width = 727;
},
{
layerId = "2CA35139-2F15-4242-9EF2-18C03B487D0C";
paths = (
{
closed = 1;
nodes = (
"449 0 LINE",
"554 0 LINE",
"554 623 LINE",
"615 635 LINE",
"605 691 LINE",
"427 691 LINE",
"427 635 LINE",
"491 625 LINE",
"491 75 LINE",
"221 691 LINE",
"54 691 LINE",
"54 632 LINE",
"112 627 LINE",
"112 68 LINE",
"54 56 LINE",
"62 0 LINE",
"241 0 LINE",
"241 56 LINE",
"174 66 LINE",
"174 629 LINE"
);
}
);
width = 659;
},
{
layerId = "632A4CD3-2375-47CC-B7F1-E224D812DAB9";
paths = (
{
closed = 1;
nodes = (
"194 596 LINE",
"447 0 LINE",
"595 0 LINE",
"595 604 LINE",
"659 616 LINE",
"646 691 LINE",
"449 691 LINE",
"449 617 LINE",
"511 609 LINE",
"511 96 LINE",
"259 691 LINE",
"50 691 LINE",
"50 615 LINE",
"110 609 LINE",
"110 84 LINE",
"47 71 LINE",
"59 0 LINE",
"253 0 LINE",
"253 71 LINE",
"196 81 LINE",
"195 84 OFFCURVE",
"195 90 QCURVE",
"194 161 LINE"
);
}
);
width = 696;
}
);
leftKerningGroup = H;
rightKerningGroup = N;
unicode = 004E;
userData = {
com.typemytype.robofont.mark = (
0.713,
0.6,
1,
1
);
};
},
{
color = 4;
glyphname = Ntilde;
layers = (
{
components = (
{
name = N;
},
{
name = tildecomb.case;
transform = "{1, 0, 0, 1, 317, 210}";
}
);
layerId = "CBC04B6C-E875-491C-A1C2-2B8D0972DDA1";
width = 659;
},
{
components = (
{
name = N;
},
{
name = tildecomb.case;
transform = "{1, 0, 0, 1, 358, 200}";
}
);
layerId = "682D4A5D-117B-492A-B436-118C610C28E8";
width = 727;
},
{
layerId = "97A2F932-1121-41E4-AD06-4A872C221506";
paths = (
{
closed = 1;
nodes = (
"262 88 LINE",
"211 104 LINE",
"211 562 LINE",
"428 0 LINE",
"630 0 LINE",
"630 585 LINE",
"697 597 LINE",
"682 690 LINE",
"467 690 LINE",
"467 599 LINE",
"525 592 LINE",
"525 96 LINE",
"298 690 LINE",
"42 690 LINE",
"42 597 LINE",
"106 590 LINE",
"106 100 LINE",
"37 87 LINE",
"53 0 LINE",
"261 0 LINE",
"261 13 LINE",
"262 65 LINE"
);
},
{
closed = 1;
nodes = (
"432 823 LINE",
"425 823 OFFCURVE",
"412 831 QCURVE SMOOTH",
"347 873 OFFCURVE",
"295 873 QCURVE SMOOTH",
"243 873 OFFCURVE",
"197 833 QCURVE SMOOTH",
"173 812 OFFCURVE",
"163 781 QCURVE",
"163 762 LINE",
"237 718 LINE",
"243 737 OFFCURVE",
"277 772 OFFCURVE",
"327 772 OFFCURVE",
"358 758 OFFCURVE",
"388 741 OFFCURVE",
"421 727 OFFCURVE",
"479 727 OFFCURVE",
"545 775 OFFCURVE",
"567 805 QCURVE",
"486 881 LINE"
);
}
);
width = 727;
},
{
layerId = "2CA35139-2F15-4242-9EF2-18C03B487D0C";
paths = (
{
closed = 1;
nodes = (
"467 836 LINE",
"405 786 LINE",
"373 808 OFFCURVE",
"320 842 OFFCURVE",
"254 842 OFFCURVE",
"234 834 QCURVE SMOOTH",
"189 816 OFFCURVE",
"169 776 QCURVE",
"169 760 LINE",
"206 729 LINE",
"217 747 OFFCURVE",
"249 778 OFFCURVE",
"303 778 OFFCURVE",
"335 762 OFFCURVE",
"365 743 OFFCURVE",
"397 727 OFFCURVE",
"420 727 QCURVE SMOOTH",
"455 727 OFFCURVE",
"504 770 QCURVE"
);
},
{
closed = 1;
nodes = (
"449 0 LINE",
"554 0 LINE",
"554 623 LINE",
"615 635 LINE",
"605 691 LINE",
"427 691 LINE",
"427 635 LINE",
"491 625 LINE",
"491 75 LINE",
"221 691 LINE",
"54 691 LINE",
"54 632 LINE",
"112 627 LINE",
"112 68 LINE",
"54 56 LINE",
"62 0 LINE",
"241 0 LINE",
"241 56 LINE",
"174 66 LINE",
"174 629 LINE"
);
}
);
width = 659;
},
{
layerId = "632A4CD3-2375-47CC-B7F1-E224D812DAB9";
paths = (
{
closed = 1;
nodes = (
"194 597 LINE",
"478 0 LINE",
"595 0 LINE",
"595 604 LINE",
"659 616 LINE",
"646 691 LINE",
"449 691 LINE",
"449 617 LINE",
"511 609 LINE",
"511 96 LINE",
"259 691 LINE",
"50 691 LINE",
"50 615 LINE",
"110 609 LINE",
"110 84 LINE",
"47 71 LINE",
"59 0 LINE",
"253 0 LINE",
"253 71 LINE",
"196 81 LINE",
"195 84 OFFCURVE",
"195 90 QCURVE",
"194 161 LINE"
);
},
{
closed = 1;
nodes = (
"478 858 LINE",
"417 802 LINE",
"408 808 LINE",
"385 825 OFFCURVE",
"328 857 OFFCURVE",
"261 857 OFFCURVE",
"240 848 QCURVE SMOOTH",
"189 827 OFFCURVE",
"167 778 QCURVE",
"167 761 LINE",
"223 727 LINE",
"231 744 OFFCURVE",
"263 778 OFFCURVE",
"316 778 OFFCURVE",
"348 763 OFFCURVE",
"379 745 OFFCURVE",
"413 730 OFFCURVE",
"437 730 QCURVE SMOOTH",
"482 730 OFFCURVE",
"537 791 QCURVE"
);
}
);
width = 696;
}
);
unicode = 00D1;
},
{
color = 4;
glyphname = O;
layers = (
{
anchors = (
{
name = bottom;
position = "{322, 0}";
},
{
name = top;
position = "{316, 691}";
}
);
layerId = "CBC04B6C-E875-491C-A1C2-2B8D0972DDA1";
paths = (
{
closed = 1;
nodes = (
"513 -4 OFFCURVE",
"595 175 OFFCURVE",
"595 343 CURVE SMOOTH",
"595 511 OFFCURVE",
"513 691 OFFCURVE",
"323 691 CURVE SMOOTH",
"133 691 OFFCURVE",
"50 511 OFFCURVE",
"50 343 CURVE SMOOTH",
"50 175 OFFCURVE",
"133 -4 OFFCURVE",
"323 -4 CURVE SMOOTH {name = hr00;}"
);
},
{
closed = 1;
nodes = (
"177 64 OFFCURVE",
"121 205 OFFCURVE",
"121 341 CURVE SMOOTH",
"121 477 OFFCURVE",
"177 623 OFFCURVE",
"323 623 CURVE SMOOTH",
"469 623 OFFCURVE",
"524 477 OFFCURVE",
"524 341 CURVE SMOOTH",
"524 205 OFFCURVE",
"469 64 OFFCURVE",
"323 64 CURVE SMOOTH"
);
}
);
width = 645;
},
{
anchors = (
{
name = bottom;
position = "{327, 0}";
},
{
name = top;
position = "{328, 691}";
}
);
layerId = "682D4A5D-117B-492A-B436-118C610C28E8";
paths = (
{
closed = 1;
nodes = (
"517 -4 OFFCURVE",
"619 141 OFFCURVE",
"619 345 CURVE SMOOTH",
"619 550 OFFCURVE",
"517 693 OFFCURVE",
"328 693 CURVE SMOOTH",
"139 693 OFFCURVE",
"36 550 OFFCURVE",
"36 345 CURVE SMOOTH",
"36 141 OFFCURVE",
"139 -4 OFFCURVE",
"328 -4 CURVE SMOOTH {name = hr00;}"
);
},
{
closed = 1;
nodes = (
"233 101 OFFCURVE",
"173 207 OFFCURVE",
"173 343 CURVE SMOOTH",
"173 480 OFFCURVE",
"233 588 OFFCURVE",
"328 588 CURVE SMOOTH",
"422 588 OFFCURVE",
"482 480 OFFCURVE",
"482 343 CURVE SMOOTH",
"482 207 OFFCURVE",
"422 101 OFFCURVE",
"328 101 CURVE SMOOTH"
);
}
);
width = 655;
},
{
layerId = "97A2F932-1121-41E4-AD06-4A872C221506";
paths = (
{
closed = 1;
nodes = (
"467 -4 OFFCURVE",
"544 94 QCURVE SMOOTH",
"619 188 OFFCURVE",
"619 345 QCURVE SMOOTH",
"619 502 OFFCURVE",
"544 596 QCURVE SMOOTH",
"468 693 OFFCURVE",
"328 693 QCURVE SMOOTH",
"189 693 OFFCURVE",
"111 596 QCURVE SMOOTH",
"36 503 OFFCURVE",
"36 345 QCURVE SMOOTH",
"36 187 OFFCURVE",
"111 94 QCURVE SMOOTH",
"190 -4 OFFCURVE",
"328 -4 QCURVE SMOOTH"
);
},
{
closed = 1;
nodes = (
"173 448 OFFCURVE",
"215 517 QCURVE SMOOTH",
"258 588 OFFCURVE",
"328 588 QCURVE SMOOTH",
"397 588 OFFCURVE",
"440 517 QCURVE SMOOTH",
"482 448 OFFCURVE",
"482 343 QCURVE SMOOTH",
"482 240 OFFCURVE",
"440 171 QCURVE SMOOTH",
"398 101 OFFCURVE",
"328 101 QCURVE SMOOTH",
"257 101 OFFCURVE",
"215 171 QCURVE SMOOTH",
"173 240 OFFCURVE",
"173 343 QCURVE SMOOTH"
);
}
);
width = 655;
},
{
layerId = "2CA35139-2F15-4242-9EF2-18C03B487D0C";
paths = (
{
closed = 1;
nodes = (
"394 -4 OFFCURVE",
"497 57 OFFCURVE",
"530 106 QCURVE SMOOTH",
"595 204 OFFCURVE",
"595 343 QCURVE SMOOTH",
"595 482 OFFCURVE",
"530 580 QCURVE SMOOTH",
"497 629 OFFCURVE",
"394 691 OFFCURVE",
"323 691 QCURVE SMOOTH",
"252 691 OFFCURVE",
"149 629 OFFCURVE",
"116 580 QCURVE SMOOTH",
"50 483 OFFCURVE",
"50 343 QCURVE SMOOTH",
"50 203 OFFCURVE",
"116 106 QCURVE SMOOTH",
"190 -4 OFFCURVE",
"323 -4 QCURVE SMOOTH"
);
},
{
closed = 1;
nodes = (
"121 456 OFFCURVE",
"167 533 QCURVE SMOOTH",
"221 623 OFFCURVE",
"323 623 QCURVE SMOOTH",
"424 623 OFFCURVE",
"478 533 QCURVE SMOOTH",
"524 456 OFFCURVE",
"524 341 QCURVE SMOOTH",
"524 227 OFFCURVE",
"478 152 QCURVE SMOOTH",
"425 64 OFFCURVE",
"323 64 QCURVE SMOOTH",
"220 64 OFFCURVE",
"167 152 QCURVE SMOOTH",
"121 227 OFFCURVE",
"121 341 QCURVE SMOOTH"
);
}
);
width = 645;
},
{
layerId = "632A4CD3-2375-47CC-B7F1-E224D812DAB9";
paths = (
{
closed = 1;
nodes = (
"148 452 OFFCURVE",
"192 526 QCURVE SMOOTH",
"239 606 OFFCURVE",
"325 606 QCURVE SMOOTH",
"411 606 OFFCURVE",
"460 526 QCURVE SMOOTH",
"504 452 OFFCURVE",
"504 342 QCURVE SMOOTH",
"504 233 OFFCURVE",
"460 161 QCURVE SMOOTH",
"412 82 OFFCURVE",
"325 82 QCURVE SMOOTH",
"239 82 OFFCURVE",
"192 161 QCURVE SMOOTH",
"148 234 OFFCURVE",
"148 342 QCURVE SMOOTH"
);
},
{
closed = 1;
nodes = (
"461 -4 OFFCURVE",
"538 100 QCURVE SMOOTH",
"609 197 OFFCURVE",
"609 344 QCURVE SMOOTH",
"609 491 OFFCURVE",
"538 588 QCURVE SMOOTH",
"461 692 OFFCURVE",
"325 692 QCURVE SMOOTH",
"189 692 OFFCURVE",
"113 588 QCURVE SMOOTH",
"43 492 OFFCURVE",
"43 344 QCURVE SMOOTH",
"43 196 OFFCURVE",
"113 100 QCURVE SMOOTH",
"189 -4 OFFCURVE",
"325 -4 QCURVE SMOOTH"
);
}
);
width = 651;
}
);
leftKerningGroup = O;
rightKerningGroup = O;
unicode = 004F;
userData = {
com.typemytype.robofont.mark = (
0.713,
0.6,
1,
1
);
};
},
{
color = 4;
glyphname = Oacute;
layers = (
{
components = (
{
name = O;
},
{
name = acutecomb.case;
transform = "{1, 0, 0, 1, 316, 210}";
}
);
layerId = "CBC04B6C-E875-491C-A1C2-2B8D0972DDA1";
width = 645;
},
{
components = (
{
name = O;
},
{
name = acutecomb.case;
transform = "{1, 0, 0, 1, 328, 200}";
}
);
layerId = "682D4A5D-117B-492A-B436-118C610C28E8";
width = 655;
},
{
layerId = "97A2F932-1121-41E4-AD06-4A872C221506";
paths = (
{
closed = 1;
nodes = (
"467 -4 OFFCURVE",
"544 94 QCURVE SMOOTH",
"619 188 OFFCURVE",
"619 345 QCURVE SMOOTH",
"619 502 OFFCURVE",
"544 596 QCURVE SMOOTH",
"468 693 OFFCURVE",
"328 693 QCURVE SMOOTH",
"189 693 OFFCURVE",
"111 596 QCURVE SMOOTH",
"36 503 OFFCURVE",
"36 345 QCURVE SMOOTH",
"36 187 OFFCURVE",
"111 94 QCURVE SMOOTH",
"190 -4 OFFCURVE",
"328 -4 QCURVE SMOOTH"
);
},
{
closed = 1;
nodes = (
"173 448 OFFCURVE",
"215 517 QCURVE SMOOTH",
"258 588 OFFCURVE",
"328 588 QCURVE SMOOTH",
"397 588 OFFCURVE",
"440 517 QCURVE SMOOTH",
"482 448 OFFCURVE",
"482 343 QCURVE SMOOTH",
"482 240 OFFCURVE",
"440 171 QCURVE SMOOTH",
"398 101 OFFCURVE",
"328 101 QCURVE SMOOTH",
"257 101 OFFCURVE",
"215 171 QCURVE SMOOTH",
"173 240 OFFCURVE",
"173 343 QCURVE SMOOTH"
);
},
{
closed = 1;
nodes = (
"276 741 LINE",
"473 865 LINE",
"395 974 LINE",
"358 959 LINE",
"229 795 LINE"
);
}
);
width = 655;
},
{
layerId = "2CA35139-2F15-4242-9EF2-18C03B487D0C";
paths = (
{
closed = 1;
nodes = (
"240 717 LINE",
"433 818 LINE",
"396 890 LINE",
"366 897 LINE",
"208 764 LINE"
);
},
{
closed = 1;
nodes = (
"394 -4 OFFCURVE",
"497 57 OFFCURVE",
"530 106 QCURVE SMOOTH",
"595 204 OFFCURVE",
"595 343 QCURVE SMOOTH",
"595 482 OFFCURVE",
"530 580 QCURVE SMOOTH",
"497 629 OFFCURVE",
"394 691 OFFCURVE",
"323 691 QCURVE SMOOTH",
"252 691 OFFCURVE",
"149 629 OFFCURVE",
"116 580 QCURVE SMOOTH",
"50 483 OFFCURVE",
"50 343 QCURVE SMOOTH",
"50 203 OFFCURVE",
"116 106 QCURVE SMOOTH",
"190 -4 OFFCURVE",
"323 -4 QCURVE SMOOTH"
);
},
{
closed = 1;
nodes = (
"121 456 OFFCURVE",
"167 533 QCURVE SMOOTH",
"221 623 OFFCURVE",
"323 623 QCURVE SMOOTH",
"424 623 OFFCURVE",
"478 533 QCURVE SMOOTH",
"524 456 OFFCURVE",
"524 341 QCURVE SMOOTH",
"524 227 OFFCURVE",
"478 152 QCURVE SMOOTH",
"425 64 OFFCURVE",
"323 64 QCURVE SMOOTH",
"220 64 OFFCURVE",
"167 152 QCURVE SMOOTH",
"121 227 OFFCURVE",
"121 341 QCURVE SMOOTH"
);
}
);
width = 645;
},
{
layerId = "632A4CD3-2375-47CC-B7F1-E224D812DAB9";
paths = (
{
closed = 1;
nodes = (
"148 452 OFFCURVE",
"192 526 QCURVE SMOOTH",
"239 606 OFFCURVE",
"325 606 QCURVE SMOOTH",
"411 606 OFFCURVE",
"460 526 QCURVE SMOOTH",
"504 452 OFFCURVE",
"504 342 QCURVE SMOOTH",
"504 233 OFFCURVE",
"460 161 QCURVE SMOOTH",
"412 82 OFFCURVE",
"325 82 QCURVE SMOOTH",
"239 82 OFFCURVE",
"192 161 QCURVE SMOOTH",
"148 234 OFFCURVE",
"148 342 QCURVE SMOOTH"
);
},
{
closed = 1;
nodes = (
"461 -4 OFFCURVE",
"538 100 QCURVE SMOOTH",
"609 197 OFFCURVE",
"609 344 QCURVE SMOOTH",
"609 491 OFFCURVE",
"538 588 QCURVE SMOOTH",
"461 692 OFFCURVE",
"325 692 QCURVE SMOOTH",
"189 692 OFFCURVE",
"113 588 QCURVE SMOOTH",
"43 492 OFFCURVE",
"43 344 QCURVE SMOOTH",
"43 196 OFFCURVE",
"113 100 QCURVE SMOOTH",
"189 -4 OFFCURVE",
"325 -4 QCURVE SMOOTH"
);
},
{
closed = 1;
nodes = (
"219 780 LINE",
"258 729 LINE",
"453 841 LINE",
"396 932 LINE",
"362 928 LINE"
);
}
);
width = 651;
}
);
unicode = 00D3;
},
{
color = 4;
glyphname = Ocircumflex;
layers = (
{
components = (
{
name = O;
},
{
name = circumflexcomb.case;
transform = "{1, 0, 0, 1, 316, 210}";
}
);
layerId = "CBC04B6C-E875-491C-A1C2-2B8D0972DDA1";
width = 645;
},
{
components = (
{
name = O;
},
{
name = circumflexcomb.case;
transform = "{1, 0, 0, 1, 328, 200}";
}
);
layerId = "682D4A5D-117B-492A-B436-118C610C28E8";
width = 655;
},
{
layerId = "97A2F932-1121-41E4-AD06-4A872C221506";
paths = (
{
closed = 1;
nodes = (
"153 724 LINE",
"238 724 LINE",
"336 782 LINE",
"434 724 LINE",
"520 724 LINE",
"527 736 LINE",
"355 903 LINE",
"318 903 LINE",
"147 737 LINE"
);
},
{
closed = 1;
nodes = (
"467 -4 OFFCURVE",
"544 94 QCURVE SMOOTH",
"619 188 OFFCURVE",
"619 345 QCURVE SMOOTH",
"619 502 OFFCURVE",
"544 596 QCURVE SMOOTH",
"468 693 OFFCURVE",
"328 693 QCURVE SMOOTH",
"189 693 OFFCURVE",
"111 596 QCURVE SMOOTH",
"36 503 OFFCURVE",
"36 345 QCURVE SMOOTH",
"36 187 OFFCURVE",
"111 94 QCURVE SMOOTH",
"190 -4 OFFCURVE",
"328 -4 QCURVE SMOOTH"
);
},
{
closed = 1;
nodes = (
"173 448 OFFCURVE",
"215 517 QCURVE SMOOTH",
"258 588 OFFCURVE",
"328 588 QCURVE SMOOTH",
"397 588 OFFCURVE",
"440 517 QCURVE SMOOTH",
"482 448 OFFCURVE",
"482 343 QCURVE SMOOTH",
"482 240 OFFCURVE",
"440 171 QCURVE SMOOTH",
"398 101 OFFCURVE",
"328 101 QCURVE SMOOTH",
"257 101 OFFCURVE",
"215 171 QCURVE SMOOTH",
"173 240 OFFCURVE",
"173 343 QCURVE SMOOTH"
);
}
);
width = 655;
},
{
layerId = "2CA35139-2F15-4242-9EF2-18C03B487D0C";
paths = (
{
closed = 1;
nodes = (
"165 727 LINE",
"239 727 LINE",
"314 790 LINE",
"390 727 LINE",
"464 727 LINE",
"323 884 LINE",
"307 884 LINE"
);
},
{
closed = 1;
nodes = (
"394 -4 OFFCURVE",
"497 57 OFFCURVE",
"530 106 QCURVE SMOOTH",
"595 204 OFFCURVE",
"595 343 QCURVE SMOOTH",
"595 482 OFFCURVE",
"530 580 QCURVE SMOOTH",
"497 629 OFFCURVE",
"394 691 OFFCURVE",
"323 691 QCURVE SMOOTH",
"252 691 OFFCURVE",
"149 629 OFFCURVE",
"116 580 QCURVE SMOOTH",
"50 483 OFFCURVE",
"50 343 QCURVE SMOOTH",
"50 203 OFFCURVE",
"116 106 QCURVE SMOOTH",
"190 -4 OFFCURVE",
"323 -4 QCURVE SMOOTH"
);
},
{
closed = 1;
nodes = (
"121 456 OFFCURVE",
"167 533 QCURVE SMOOTH",
"221 623 OFFCURVE",
"323 623 QCURVE SMOOTH",
"424 623 OFFCURVE",
"478 533 QCURVE SMOOTH",
"524 456 OFFCURVE",
"524 341 QCURVE SMOOTH",
"524 227 OFFCURVE",
"478 152 QCURVE SMOOTH",
"425 64 OFFCURVE",
"323 64 QCURVE SMOOTH",
"220 64 OFFCURVE",
"167 152 QCURVE SMOOTH",
"121 227 OFFCURVE",
"121 341 QCURVE SMOOTH"
);
}
);
width = 645;
},
{
layerId = "632A4CD3-2375-47CC-B7F1-E224D812DAB9";
paths = (
{
closed = 1;
nodes = (
"148 452 OFFCURVE",
"192 526 QCURVE SMOOTH",
"239 606 OFFCURVE",
"325 606 QCURVE SMOOTH",
"411 606 OFFCURVE",
"460 526 QCURVE SMOOTH",
"504 452 OFFCURVE",
"504 342 QCURVE SMOOTH",
"504 233 OFFCURVE",
"460 161 QCURVE SMOOTH",
"412 82 OFFCURVE",
"325 82 QCURVE SMOOTH",
"239 82 OFFCURVE",
"192 161 QCURVE SMOOTH",
"148 234 OFFCURVE",
"148 342 QCURVE SMOOTH"
);
},
{
closed = 1;
nodes = (
"461 -4 OFFCURVE",
"538 100 QCURVE SMOOTH",
"609 197 OFFCURVE",
"609 344 QCURVE SMOOTH",
"609 491 OFFCURVE",
"538 588 QCURVE SMOOTH",
"461 692 OFFCURVE",
"325 692 QCURVE SMOOTH",
"189 692 OFFCURVE",
"113 588 QCURVE SMOOTH",
"43 492 OFFCURVE",
"43 344 QCURVE SMOOTH",
"43 196 OFFCURVE",
"113 100 QCURVE SMOOTH",
"189 -4 OFFCURVE",
"325 -4 QCURVE SMOOTH"
);
},
{
closed = 1;
nodes = (
"313 894 LINE",
"156 732 LINE",
"157 726 LINE",
"239 726 LINE",
"325 785 LINE",
"412 726 LINE",
"494 726 LINE",
"495 731 LINE",
"339 894 LINE"
);
}
);
width = 651;
}
);
unicode = 00D4;
},
{
color = 4;
glyphname = Odieresis;
layers = (
{
anchors = (
{
name = _top;
position = "{316, 691}";
},
{
name = top;
position = "{316, 881}";
}
);
components = (
{
name = O;
}
);
layerId = "CBC04B6C-E875-491C-A1C2-2B8D0972DDA1";
paths = (
{
closed = 1;
nodes = (
"450 736 OFFCURVE",
"475 764 OFFCURVE",
"475 793 CURVE SMOOTH",
"475 824 OFFCURVE",
"450 850 OFFCURVE",
"421 850 CURVE SMOOTH",
"388 850 OFFCURVE",
"364 824 OFFCURVE",
"364 793 CURVE SMOOTH {name = hr00;}",
"364 764 OFFCURVE",
"388 736 OFFCURVE",
"421 736 CURVE SMOOTH"
);
},
{
closed = 1;
nodes = (
"273 736 OFFCURVE",
"298 764 OFFCURVE",
"298 793 CURVE SMOOTH",
"298 824 OFFCURVE",
"273 850 OFFCURVE",
"244 850 CURVE SMOOTH",
"211 850 OFFCURVE",
"188 824 OFFCURVE",
"188 793 CURVE SMOOTH",
"188 764 OFFCURVE",
"211 736 OFFCURVE",
"244 736 CURVE SMOOTH"
);
}
);
width = 645;
},
{
anchors = (
{
name = _top;
position = "{328, 691}";
},
{
name = top;
position = "{328, 891}";
}
);
components = (
{
name = O;
}
);
layerId = "682D4A5D-117B-492A-B436-118C610C28E8";
paths = (
{
closed = 1;
nodes = (
"460 739 OFFCURVE",
"488 768 OFFCURVE",
"488 804 CURVE SMOOTH {name = hr02;}",
"488 841 OFFCURVE",
"460 869 OFFCURVE",
"423 869 CURVE SMOOTH {name = hr03;}",
"386 869 OFFCURVE",
"358 841 OFFCURVE",
"358 804 CURVE SMOOTH",
"358 768 OFFCURVE",
"386 739 OFFCURVE",
"423 739 CURVE SMOOTH {name = hr01;}"
);
},
{
closed = 1;
nodes = (
"270 739 OFFCURVE",
"298 768 OFFCURVE",
"298 804 CURVE SMOOTH",
"298 841 OFFCURVE",
"270 869 OFFCURVE",
"233 869 CURVE SMOOTH",
"197 869 OFFCURVE",
"168 841 OFFCURVE",
"168 804 CURVE SMOOTH {name = hr00;}",
"168 768 OFFCURVE",
"197 739 OFFCURVE",
"233 739 CURVE SMOOTH"
);
}
);
width = 655;
},
{
layerId = "97A2F932-1121-41E4-AD06-4A872C221506";
paths = (
{
closed = 1;
nodes = (
"467 -4 OFFCURVE",
"544 94 QCURVE SMOOTH",
"619 188 OFFCURVE",
"619 345 QCURVE SMOOTH",
"619 502 OFFCURVE",
"544 596 QCURVE SMOOTH",
"468 693 OFFCURVE",
"328 693 QCURVE SMOOTH",
"189 693 OFFCURVE",
"111 596 QCURVE SMOOTH",
"36 503 OFFCURVE",
"36 345 QCURVE SMOOTH",
"36 187 OFFCURVE",
"111 94 QCURVE SMOOTH",
"190 -4 OFFCURVE",
"328 -4 QCURVE SMOOTH"
);
},
{
closed = 1;
nodes = (
"173 448 OFFCURVE",
"215 517 QCURVE SMOOTH",
"258 588 OFFCURVE",
"328 588 QCURVE SMOOTH",
"397 588 OFFCURVE",
"440 517 QCURVE SMOOTH",
"482 448 OFFCURVE",
"482 343 QCURVE SMOOTH",
"482 240 OFFCURVE",
"440 171 QCURVE SMOOTH",
"398 101 OFFCURVE",
"328 101 QCURVE SMOOTH",
"257 101 OFFCURVE",
"215 171 QCURVE SMOOTH",
"173 240 OFFCURVE",
"173 343 QCURVE SMOOTH"
);
},
{
closed = 1;
nodes = (
"174 775 OFFCURVE",
"214 736 OFFCURVE",
"271 736 OFFCURVE",
"311 775 OFFCURVE",
"311 804 QCURVE SMOOTH",
"311 833 OFFCURVE",
"271 873 OFFCURVE",
"214 873 OFFCURVE",
"174 833 OFFCURVE",
"174 804 QCURVE SMOOTH"
);
},
{
closed = 1;
nodes = (
"352 775 OFFCURVE",
"391 736 OFFCURVE",
"420 736 QCURVE SMOOTH",
"449 736 OFFCURVE",
"487 775 OFFCURVE",
"487 804 QCURVE SMOOTH",
"487 833 OFFCURVE",
"449 873 OFFCURVE",
"420 873 QCURVE SMOOTH",
"391 873 OFFCURVE",
"352 833 OFFCURVE",
"352 804 QCURVE SMOOTH"
);
}
);
width = 655;
},
{
layerId = "2CA35139-2F15-4242-9EF2-18C03B487D0C";
paths = (
{
closed = 1;
nodes = (
"394 -4 OFFCURVE",
"497 57 OFFCURVE",
"530 106 QCURVE SMOOTH",
"595 204 OFFCURVE",
"595 343 QCURVE SMOOTH",
"595 482 OFFCURVE",
"530 580 QCURVE SMOOTH",
"497 629 OFFCURVE",
"394 691 OFFCURVE",
"323 691 QCURVE SMOOTH",
"252 691 OFFCURVE",
"149 629 OFFCURVE",
"116 580 QCURVE SMOOTH",
"50 483 OFFCURVE",
"50 343 QCURVE SMOOTH",
"50 203 OFFCURVE",
"116 106 QCURVE SMOOTH",
"190 -4 OFFCURVE",
"323 -4 QCURVE SMOOTH"
);
},
{
closed = 1;
nodes = (
"121 456 OFFCURVE",
"167 533 QCURVE SMOOTH",
"221 623 OFFCURVE",
"323 623 QCURVE SMOOTH",
"424 623 OFFCURVE",
"478 533 QCURVE SMOOTH",
"524 456 OFFCURVE",
"524 341 QCURVE SMOOTH",
"524 227 OFFCURVE",
"478 152 QCURVE SMOOTH",
"425 64 OFFCURVE",
"323 64 QCURVE SMOOTH",
"220 64 OFFCURVE",
"167 152 QCURVE SMOOTH",
"121 227 OFFCURVE",
"121 341 QCURVE SMOOTH"
);
},
{
closed = 1;
nodes = (
"187 769 OFFCURVE",
"220 735 OFFCURVE",
"267 735 OFFCURVE",
"302 769 OFFCURVE",
"302 793 QCURVE SMOOTH",
"302 817 OFFCURVE",
"267 850 OFFCURVE",
"220 850 OFFCURVE",
"187 817 OFFCURVE",
"187 793 QCURVE SMOOTH"
);
},
{
closed = 1;
nodes = (
"363 769 OFFCURVE",
"398 735 OFFCURVE",
"446 735 OFFCURVE",
"478 769 OFFCURVE",
"478 793 QCURVE SMOOTH",
"478 817 OFFCURVE",
"446 850 OFFCURVE",
"398 850 OFFCURVE",
"363 817 OFFCURVE",
"363 793 QCURVE SMOOTH"
);
}
);
width = 645;
},
{
layerId = "632A4CD3-2375-47CC-B7F1-E224D812DAB9";
paths = (
{
closed = 1;
nodes = (
"148 452 OFFCURVE",
"192 526 QCURVE SMOOTH",
"239 606 OFFCURVE",
"325 606 QCURVE SMOOTH",
"411 606 OFFCURVE",
"460 526 QCURVE SMOOTH",
"504 452 OFFCURVE",
"504 342 QCURVE SMOOTH",
"504 233 OFFCURVE",
"460 161 QCURVE SMOOTH",
"412 82 OFFCURVE",
"325 82 QCURVE SMOOTH",
"239 82 OFFCURVE",
"192 161 QCURVE SMOOTH",
"148 234 OFFCURVE",
"148 342 QCURVE SMOOTH"
);
},
{
closed = 1;
nodes = (
"461 -4 OFFCURVE",
"538 100 QCURVE SMOOTH",
"609 197 OFFCURVE",
"609 344 QCURVE SMOOTH",
"609 491 OFFCURVE",
"538 588 QCURVE SMOOTH",
"461 692 OFFCURVE",
"325 692 QCURVE SMOOTH",
"189 692 OFFCURVE",
"113 588 QCURVE SMOOTH",
"43 492 OFFCURVE",
"43 344 QCURVE SMOOTH",
"43 196 OFFCURVE",
"113 100 QCURVE SMOOTH",
"189 -4 OFFCURVE",
"325 -4 QCURVE SMOOTH"
);
},
{
closed = 1;
nodes = (
"486 910 OFFCURVE",
"449 948 OFFCURVE",
"396 948 OFFCURVE",
"358 910 OFFCURVE",
"358 859 OFFCURVE",
"397 820 OFFCURVE",
"448 820 OFFCURVE",
"486 858 OFFCURVE",
"486 884 QCURVE SMOOTH"
);
},
{
closed = 1;
nodes = (
"181 858 OFFCURVE",
"218 820 OFFCURVE",
"268 820 OFFCURVE",
"307 857 OFFCURVE",
"307 910 OFFCURVE",
"270 948 OFFCURVE",
"217 948 OFFCURVE",
"181 910 OFFCURVE",
"181 884 QCURVE SMOOTH"
);
}
);
width = 651;
}
);
unicode = 00D6;
},
{
color = 4;
glyphname = Ograve;
layers = (
{
anchors = (
{
name = _top;
position = "{316, 691}";
}
);
components = (
{
name = O;
}
);
layerId = "CBC04B6C-E875-491C-A1C2-2B8D0972DDA1";
paths = (
{
closed = 1;
nodes = (
"446 764 LINE",
"278 897 LINE",
"248 890 LINE",
"211 818 LINE",
"415 717 LINE {name = hr00;}"
);
}
);
width = 645;
},
{
anchors = (
{
name = _top;
position = "{328, 691}";
}
);
components = (
{
name = O;
}
);
layerId = "682D4A5D-117B-492A-B436-118C610C28E8";
paths = (
{
closed = 1;
nodes = (
"436 766 LINE",
"324 943 LINE",
"289 960 LINE",
"212 869 LINE",
"395 725 LINE"
);
}
);
width = 655;
},
{
layerId = "97A2F932-1121-41E4-AD06-4A872C221506";
paths = (
{
closed = 1;
nodes = (
"467 -4 OFFCURVE",
"544 94 QCURVE SMOOTH",
"619 188 OFFCURVE",
"619 345 QCURVE SMOOTH",
"619 502 OFFCURVE",
"544 596 QCURVE SMOOTH",
"468 693 OFFCURVE",
"328 693 QCURVE SMOOTH",
"189 693 OFFCURVE",
"111 596 QCURVE SMOOTH",
"36 503 OFFCURVE",
"36 345 QCURVE SMOOTH",
"36 187 OFFCURVE",
"111 94 QCURVE SMOOTH",
"190 -4 OFFCURVE",
"328 -4 QCURVE SMOOTH"
);
},
{
closed = 1;
nodes = (
"173 448 OFFCURVE",
"215 517 QCURVE SMOOTH",
"258 588 OFFCURVE",
"328 588 QCURVE SMOOTH",
"397 588 OFFCURVE",
"440 517 QCURVE SMOOTH",
"482 448 OFFCURVE",
"482 343 QCURVE SMOOTH",
"482 240 OFFCURVE",
"440 171 QCURVE SMOOTH",
"398 101 OFFCURVE",
"328 101 QCURVE SMOOTH",
"257 101 OFFCURVE",
"215 171 QCURVE SMOOTH",
"173 240 OFFCURVE",
"173 343 QCURVE SMOOTH"
);
},
{
closed = 1;
nodes = (
"429 765 LINE",
"317 942 LINE",
"282 959 LINE",
"205 868 LINE",
"388 724 LINE"
);
}
);
width = 655;
},
{
layerId = "2CA35139-2F15-4242-9EF2-18C03B487D0C";
paths = (
{
closed = 1;
nodes = (
"447 764 LINE",
"279 897 LINE",
"248 890 LINE",
"212 818 LINE",
"415 717 LINE"
);
},
{
closed = 1;
nodes = (
"394 -4 OFFCURVE",
"497 57 OFFCURVE",
"530 106 QCURVE SMOOTH",
"595 204 OFFCURVE",
"595 343 QCURVE SMOOTH",
"595 482 OFFCURVE",
"530 580 QCURVE SMOOTH",
"497 629 OFFCURVE",
"394 691 OFFCURVE",
"323 691 QCURVE SMOOTH",
"252 691 OFFCURVE",
"149 629 OFFCURVE",
"116 580 QCURVE SMOOTH",
"50 483 OFFCURVE",
"50 343 QCURVE SMOOTH",
"50 203 OFFCURVE",
"116 106 QCURVE SMOOTH",
"190 -4 OFFCURVE",
"323 -4 QCURVE SMOOTH"
);
},
{
closed = 1;
nodes = (
"121 456 OFFCURVE",
"167 533 QCURVE SMOOTH",
"221 623 OFFCURVE",
"323 623 QCURVE SMOOTH",
"424 623 OFFCURVE",
"478 533 QCURVE SMOOTH",
"524 456 OFFCURVE",
"524 341 QCURVE SMOOTH",
"524 227 OFFCURVE",
"478 152 QCURVE SMOOTH",
"425 64 OFFCURVE",
"323 64 QCURVE SMOOTH",
"220 64 OFFCURVE",
"167 152 QCURVE SMOOTH",
"121 227 OFFCURVE",
"121 341 QCURVE SMOOTH"
);
}
);
width = 645;
},
{
layerId = "632A4CD3-2375-47CC-B7F1-E224D812DAB9";
paths = (
{
closed = 1;
nodes = (
"148 452 OFFCURVE",
"192 526 QCURVE SMOOTH",
"239 606 OFFCURVE",
"325 606 QCURVE SMOOTH",
"411 606 OFFCURVE",
"460 526 QCURVE SMOOTH",
"504 452 OFFCURVE",
"504 342 QCURVE SMOOTH",
"504 233 OFFCURVE",
"460 161 QCURVE SMOOTH",
"412 82 OFFCURVE",
"325 82 QCURVE SMOOTH",
"239 82 OFFCURVE",
"192 161 QCURVE SMOOTH",
"148 234 OFFCURVE",
"148 342 QCURVE SMOOTH"
);
},
{
closed = 1;
nodes = (
"461 -4 OFFCURVE",
"538 100 QCURVE SMOOTH",
"609 197 OFFCURVE",
"609 344 QCURVE SMOOTH",
"609 491 OFFCURVE",
"538 588 QCURVE SMOOTH",
"461 692 OFFCURVE",
"325 692 QCURVE SMOOTH",
"189 692 OFFCURVE",
"113 588 QCURVE SMOOTH",
"43 492 OFFCURVE",
"43 344 QCURVE SMOOTH",
"43 196 OFFCURVE",
"113 100 QCURVE SMOOTH",
"189 -4 OFFCURVE",
"325 -4 QCURVE SMOOTH"
);
},
{
closed = 1;
nodes = (
"402 720 LINE",
"438 764 LINE",
"298 919 LINE",
"265 925 LINE",
"209 843 LINE"
);
}
);
width = 651;
}
);
unicode = 00D2;
},
{
color = 4;
glyphname = Oslash;
layers = (
{
layerId = "CBC04B6C-E875-491C-A1C2-2B8D0972DDA1";
paths = (
{
closed = 1;
nodes = (
"158 -42 LINE",
"193 30 LINE",
"229 8 OFFCURVE",
"272 -4 OFFCURVE",
"323 -4 CURVE SMOOTH {name = hr00;}",
"513 -4 OFFCURVE",
"595 175 OFFCURVE",
"595 343 CURVE SMOOTH",
"595 450 OFFCURVE",
"561 562 OFFCURVE",
"488 629 CURVE",
"538 731 LINE",
"539 745 LINE",
"472 745 LINE",
"433 666 LINE",
"401 682 OFFCURVE",
"365 691 OFFCURVE",
"323 691 CURVE SMOOTH",
"133 691 OFFCURVE",
"50 511 OFFCURVE",
"50 343 CURVE SMOOTH",
"50 244 OFFCURVE",
"79 141 OFFCURVE",
"141 73 CURVE",
"91 -29 LINE",
"94 -42 LINE"
);
},
{
closed = 1;
nodes = (
"137 194 OFFCURVE",
"121 268 OFFCURVE",
"121 341 CURVE SMOOTH",
"121 477 OFFCURVE",
"177 623 OFFCURVE",
"323 623 CURVE SMOOTH",
"353 623 OFFCURVE",
"380 616 OFFCURVE",
"403 605 CURVE",
"174 140 LINE"
);
},
{
closed = 1;
nodes = (
"283 64 OFFCURVE",
"251 74 OFFCURVE",
"224 92 CURVE",
"456 564 LINE",
"504 509 OFFCURVE",
"524 423 OFFCURVE",
"524 341 CURVE SMOOTH",
"524 205 OFFCURVE",
"469 64 OFFCURVE",
"323 64 CURVE SMOOTH"
);
}
);
width = 645;
},
{
layerId = "682D4A5D-117B-492A-B436-118C610C28E8";
paths = (
{
closed = 1;
nodes = (
"201 -63 LINE",
"234 10 LINE",
"262 1 OFFCURVE",
"293 -4 OFFCURVE",
"328 -4 CURVE SMOOTH {name = hr00;}",
"517 -4 OFFCURVE",
"619 141 OFFCURVE",
"619 345 CURVE SMOOTH",
"619 466 OFFCURVE",
"583 566 OFFCURVE",
"515 627 CURVE",
"563 733 LINE",
"563 757 LINE",
"436 757 LINE",
"403 684 LINE",
"380 690 OFFCURVE",
"355 693 OFFCURVE",
"328 693 CURVE SMOOTH",
"139 693 OFFCURVE",
"36 550 OFFCURVE",
"36 345 CURVE SMOOTH",
"36 233 OFFCURVE",
"66 139 OFFCURVE",
"125 77 CURVE",
"72 -40 LINE",
"76 -63 LINE"
);
},
{
closed = 1;
nodes = (
"179 257 OFFCURVE",
"173 298 OFFCURVE",
"173 343 CURVE SMOOTH",
"173 480 OFFCURVE",
"233 588 OFFCURVE",
"328 588 CURVE SMOOTH",
"338 588 OFFCURVE",
"347 587 OFFCURVE",
"357 584 CURVE",
"191 221 LINE"
);
},
{
closed = 1;
nodes = (
"311 101 OFFCURVE",
"295 104 OFFCURVE",
"280 111 CURVE",
"453 492 LINE",
"472 451 OFFCURVE",
"482 399 OFFCURVE",
"482 343 CURVE SMOOTH",
"482 207 OFFCURVE",
"422 101 OFFCURVE",
"328 101 CURVE SMOOTH"
);
}
);
width = 655;
},
{
layerId = "97A2F932-1121-41E4-AD06-4A872C221506";
paths = (
{
closed = 1;
nodes = (
"563 733 LINE",
"563 757 LINE",
"436 757 LINE",
"403 684 LINE",
"368 693 OFFCURVE",
"328 693 QCURVE SMOOTH",
"189 693 OFFCURVE",
"111 596 QCURVE SMOOTH",
"36 503 OFFCURVE",
"36 345 QCURVE SMOOTH",
"36 170 OFFCURVE",
"125 77 QCURVE",
"72 -40 LINE",
"76 -63 LINE",
"201 -63 LINE",
"234 10 LINE",
"278 -4 OFFCURVE",
"328 -4 QCURVE SMOOTH",
"467 -4 OFFCURVE",
"544 94 QCURVE SMOOTH",
"619 188 OFFCURVE",
"619 345 QCURVE SMOOTH",
"619 533 OFFCURVE",
"515 627 QCURVE"
);
},
{
closed = 1;
nodes = (
"482 429 OFFCURVE",
"482 240 OFFCURVE",
"440 171 QCURVE SMOOTH",
"420 138 OFFCURVE",
"363 101 OFFCURVE",
"301 101 OFFCURVE",
"280 111 QCURVE",
"453 492 LINE"
);
},
{
closed = 1;
nodes = (
"191 221 LINE",
"173 275 OFFCURVE",
"173 394 OFFCURVE",
"195 484 OFFCURVE",
"235 550 OFFCURVE",
"292 588 OFFCURVE",
"344 588 OFFCURVE",
"357 584 QCURVE"
);
}
);
width = 655;
},
{
layerId = "2CA35139-2F15-4242-9EF2-18C03B487D0C";
paths = (
{
closed = 1;
nodes = (
"91 -29 LINE",
"94 -42 LINE",
"158 -42 LINE",
"193 30 LINE",
"249 -4 OFFCURVE",
"394 -4 OFFCURVE",
"497 57 OFFCURVE",
"563 156 OFFCURVE",
"595 280 OFFCURVE",
"595 424 OFFCURVE",
"543 578 OFFCURVE",
"488 629 QCURVE",
"538 731 LINE",
"539 745 LINE",
"472 745 LINE",
"433 666 LINE",
"383 691 OFFCURVE",
"252 691 OFFCURVE",
"149 629 OFFCURVE",
"82 530 OFFCURVE",
"50 406 OFFCURVE",
"50 269 OFFCURVE",
"94 124 OFFCURVE",
"141 73 QCURVE"
);
},
{
closed = 1;
nodes = (
"456 564 LINE",
"524 485 OFFCURVE",
"524 341 QCURVE SMOOTH",
"524 227 OFFCURVE",
"478 152 QCURVE SMOOTH",
"454 112 OFFCURVE",
"378 64 OFFCURVE",
"264 64 OFFCURVE",
"224 92 QCURVE"
);
},
{
closed = 1;
nodes = (
"174 140 LINE",
"121 218 OFFCURVE",
"121 341 QCURVE SMOOTH",
"121 456 OFFCURVE",
"167 533 QCURVE SMOOTH",
"191 573 OFFCURVE",
"268 623 OFFCURVE",
"365 623 OFFCURVE",
"403 605 QCURVE"
);
}
);
width = 645;
},
{
layerId = "632A4CD3-2375-47CC-B7F1-E224D812DAB9";
paths = (
{
closed = 1;
nodes = (
"454 751 LINE",
"420 676 LINE",
"376 692 OFFCURVE",
"325 692 QCURVE SMOOTH",
"189 692 OFFCURVE",
"113 588 QCURVE SMOOTH",
"78 540 OFFCURVE",
"43 414 OFFCURVE",
"43 261 OFFCURVE",
"91 117 OFFCURVE",
"140 69 QCURVE",
"92 -35 LINE",
"95 -53 LINE",
"189 -53 LINE",
"220 15 LINE",
"265 -4 OFFCURVE",
"325 -4 QCURVE SMOOTH",
"461 -4 OFFCURVE",
"538 100 QCURVE SMOOTH",
"573 148 OFFCURVE",
"609 274 OFFCURVE",
"609 429 OFFCURVE",
"556 578 OFFCURVE",
"502 626 QCURVE",
"551 732 LINE",
"552 751 LINE"
);
},
{
closed = 1;
nodes = (
"504 453 OFFCURVE",
"504 233 OFFCURVE",
"460 161 QCURVE SMOOTH",
"438 125 OFFCURVE",
"370 82 OFFCURVE",
"288 82 OFFCURVE",
"258 97 QCURVE",
"457 529 LINE"
);
},
{
closed = 1;
nodes = (
"213 562 OFFCURVE",
"280 606 OFFCURVE",
"355 606 OFFCURVE",
"382 595 QCURVE",
"186 169 LINE",
"148 236 OFFCURVE",
"148 452 OFFCURVE",
"192 526 QCURVE SMOOTH"
);
}
);
width = 651;
}
);
leftKerningGroup = O;
rightKerningGroup = O;
unicode = 00D8;
userData = {
com.typemytype.robofont.mark = (
0.713,
0.6,
1,
1
);
};
},
{
color = 4;
glyphname = Otilde;
layers = (
{
components = (
{
name = O;
},
{
name = tildecomb.case;
transform = "{1, 0, 0, 1, 316, 210}";
}
);
layerId = "CBC04B6C-E875-491C-A1C2-2B8D0972DDA1";
width = 645;
},
{
components = (
{
name = O;
},
{
name = tildecomb.case;
transform = "{1, 0, 0, 1, 328, 200}";
}
);
layerId = "682D4A5D-117B-492A-B436-118C610C28E8";
width = 655;
},
{
layerId = "97A2F932-1121-41E4-AD06-4A872C221506";
paths = (
{
closed = 1;
nodes = (
"390 823 LINE",
"383 823 OFFCURVE",
"370 831 QCURVE SMOOTH",
"305 873 OFFCURVE",
"252 873 QCURVE SMOOTH",
"200 873 OFFCURVE",
"154 833 QCURVE SMOOTH",
"132 813 OFFCURVE",
"121 781 QCURVE",
"121 762 LINE",
"194 718 LINE",
"201 737 OFFCURVE",
"234 772 OFFCURVE",
"284 772 OFFCURVE",
"315 758 OFFCURVE",
"345 741 OFFCURVE",
"378 727 OFFCURVE",
"437 727 OFFCURVE",
"503 775 OFFCURVE",
"524 805 QCURVE",
"443 881 LINE"
);
},
{
closed = 1;
nodes = (
"467 -4 OFFCURVE",
"544 94 QCURVE SMOOTH",
"619 188 OFFCURVE",
"619 345 QCURVE SMOOTH",
"619 502 OFFCURVE",
"544 596 QCURVE SMOOTH",
"468 693 OFFCURVE",
"328 693 QCURVE SMOOTH",
"189 693 OFFCURVE",
"111 596 QCURVE SMOOTH",
"36 503 OFFCURVE",
"36 345 QCURVE SMOOTH",
"36 187 OFFCURVE",
"111 94 QCURVE SMOOTH",
"190 -4 OFFCURVE",
"328 -4 QCURVE SMOOTH"
);
},
{
closed = 1;
nodes = (
"173 448 OFFCURVE",
"215 517 QCURVE SMOOTH",
"258 588 OFFCURVE",
"328 588 QCURVE SMOOTH",
"397 588 OFFCURVE",
"440 517 QCURVE SMOOTH",
"482 448 OFFCURVE",
"482 343 QCURVE SMOOTH",
"482 240 OFFCURVE",
"440 171 QCURVE SMOOTH",
"398 101 OFFCURVE",
"328 101 QCURVE SMOOTH",
"257 101 OFFCURVE",
"215 171 QCURVE SMOOTH",
"173 240 OFFCURVE",
"173 343 QCURVE SMOOTH"
);
}
);
width = 655;
},
{
layerId = "2CA35139-2F15-4242-9EF2-18C03B487D0C";
paths = (
{
closed = 1;
nodes = (
"462 836 LINE",
"400 786 LINE",
"368 808 OFFCURVE",
"315 842 OFFCURVE",
"249 842 OFFCURVE",
"229 834 QCURVE SMOOTH",
"184 816 OFFCURVE",
"164 776 QCURVE",
"164 760 LINE",
"201 729 LINE",
"212 747 OFFCURVE",
"244 778 OFFCURVE",
"298 778 OFFCURVE",
"330 762 OFFCURVE",
"360 743 OFFCURVE",
"392 727 OFFCURVE",
"415 727 QCURVE SMOOTH",
"450 727 OFFCURVE",
"499 770 QCURVE"
);
},
{
closed = 1;
nodes = (
"394 -4 OFFCURVE",
"497 57 OFFCURVE",
"530 106 QCURVE SMOOTH",
"595 204 OFFCURVE",
"595 343 QCURVE SMOOTH",
"595 482 OFFCURVE",
"530 580 QCURVE SMOOTH",
"497 629 OFFCURVE",
"394 691 OFFCURVE",
"323 691 QCURVE SMOOTH",
"252 691 OFFCURVE",
"149 629 OFFCURVE",
"116 580 QCURVE SMOOTH",
"50 483 OFFCURVE",
"50 343 QCURVE SMOOTH",
"50 203 OFFCURVE",
"116 106 QCURVE SMOOTH",
"190 -4 OFFCURVE",
"323 -4 QCURVE SMOOTH"
);
},
{
closed = 1;
nodes = (
"121 456 OFFCURVE",
"167 533 QCURVE SMOOTH",
"221 623 OFFCURVE",
"323 623 QCURVE SMOOTH",
"424 623 OFFCURVE",
"478 533 QCURVE SMOOTH",
"524 456 OFFCURVE",
"524 341 QCURVE SMOOTH",
"524 227 OFFCURVE",
"478 152 QCURVE SMOOTH",
"425 64 OFFCURVE",
"323 64 QCURVE SMOOTH",
"220 64 OFFCURVE",
"167 152 QCURVE SMOOTH",
"121 227 OFFCURVE",
"121 341 QCURVE SMOOTH"
);
}
);
width = 645;
},
{
layerId = "632A4CD3-2375-47CC-B7F1-E224D812DAB9";
paths = (
{
closed = 1;
nodes = (
"148 452 OFFCURVE",
"192 526 QCURVE SMOOTH",
"239 606 OFFCURVE",
"325 606 QCURVE SMOOTH",
"411 606 OFFCURVE",
"460 526 QCURVE SMOOTH",
"504 452 OFFCURVE",
"504 342 QCURVE SMOOTH",
"504 233 OFFCURVE",
"460 161 QCURVE SMOOTH",
"412 82 OFFCURVE",
"325 82 QCURVE SMOOTH",
"239 82 OFFCURVE",
"192 161 QCURVE SMOOTH",
"148 234 OFFCURVE",
"148 342 QCURVE SMOOTH"
);
},
{
closed = 1;
nodes = (
"461 -4 OFFCURVE",
"538 100 QCURVE SMOOTH",
"609 197 OFFCURVE",
"609 344 QCURVE SMOOTH",
"609 491 OFFCURVE",
"538 588 QCURVE SMOOTH",
"461 692 OFFCURVE",
"325 692 QCURVE SMOOTH",
"189 692 OFFCURVE",
"113 588 QCURVE SMOOTH",
"43 492 OFFCURVE",
"43 344 QCURVE SMOOTH",
"43 196 OFFCURVE",
"113 100 QCURVE SMOOTH",
"189 -4 OFFCURVE",
"325 -4 QCURVE SMOOTH"
);
},
{
closed = 1;
nodes = (
"393 802 LINE",
"370 820 OFFCURVE",
"308 857 OFFCURVE",
"238 857 OFFCURVE",
"216 848 QCURVE SMOOTH",
"167 827 OFFCURVE",
"145 778 QCURVE",
"145 761 LINE",
"199 727 LINE",
"226 778 OFFCURVE",
"267 778 QCURVE SMOOTH",
"293 778 OFFCURVE",
"325 763 OFFCURVE",
"355 745 OFFCURVE",
"390 730 OFFCURVE",
"427 730 OFFCURVE",
"441 736 QCURVE",
"481 751 OFFCURVE",
"513 791 QCURVE",
"454 858 LINE"
);
}
);
width = 651;
}
);
unicode = 00D5;
},
{
color = 4;
glyphname = OE;
layers = (
{
layerId = "CBC04B6C-E875-491C-A1C2-2B8D0972DDA1";
paths = (
{
closed = 1;
nodes = (
"350 -4 OFFCURVE",
"369 -3 OFFCURVE",
"387 0 CURVE SMOOTH",
"799 0 LINE",
"818 171 LINE {name = hr03;}",
"771 171 LINE",
"736 68 LINE {name = hr02;}",
"516 68 LINE",
"516 314 LINE",
"688 314 LINE",
"688 377 LINE",
"516 377 LINE",
"516 623 LINE",
"726 623 LINE {name = hr01;}",
"760 520 LINE",
"808 520 LINE",
"788 691 LINE",
"323 695 LINE",
"142 695 OFFCURVE",
"48 507 OFFCURVE",
"48 343 CURVE SMOOTH",
"48 176 OFFCURVE",
"137 -4 OFFCURVE",
"331 -4 CURVE SMOOTH {name = hr00;}"
);
},
{
closed = 1;
nodes = (
"184 64 OFFCURVE",
"119 205 OFFCURVE",
"119 341 CURVE SMOOTH",
"119 477 OFFCURVE",
"200 624 OFFCURVE",
"336 624 CURVE SMOOTH",
"384 624 OFFCURVE",
"417 617 OFFCURVE",
"447 591 CURVE",
"447 102 LINE {name = hr04;}",
"416 74 OFFCURVE",
"376 64 OFFCURVE",
"331 64 CURVE SMOOTH"
);
}
);
width = 858;
},
{
layerId = "682D4A5D-117B-492A-B436-118C610C28E8";
paths = (
{
closed = 1;
nodes = (
"338 -1 OFFCURVE",
"357 -1 OFFCURVE",
"377 0 CURVE SMOOTH {name = hr01;}",
"823 0 LINE",
"844 204 LINE {name = hr02;}",
"765 204 LINE",
"728 105 LINE {name = hr03;}",
"559 105 LINE",
"559 303 LINE",
"711 303 LINE",
"711 408 LINE",
"559 408 LINE",
"559 586 LINE",
"721 586 LINE",
"762 487 LINE {name = hr04;}",
"840 487 LINE",
"821 691 LINE",
"318 691 LINE SMOOTH {name = hr00;}",
"159 691 OFFCURVE",
"36 550 OFFCURVE",
"36 345 CURVE SMOOTH",
"36 141 OFFCURVE",
"139 -1 OFFCURVE",
"328 -1 CURVE SMOOTH"
);
},
{
closed = 1;
nodes = (
"223 104 OFFCURVE",
"173 207 OFFCURVE",
"173 343 CURVE SMOOTH",
"173 480 OFFCURVE",
"233 586 OFFCURVE",
"348 586 CURVE SMOOTH",
"390 586 OFFCURVE",
"417 573 OFFCURVE",
"428 562 CURVE",
"428 129 LINE",
"411 114 OFFCURVE",
"373 104 OFFCURVE",
"348 104 CURVE SMOOTH"
);
}
);
width = 879;
},
{
layerId = "97A2F932-1121-41E4-AD06-4A872C221506";
paths = (
{
closed = 1;
nodes = (
"823 0 LINE",
"844 204 LINE",
"765 204 LINE",
"728 105 LINE",
"559 105 LINE",
"559 303 LINE",
"711 303 LINE",
"711 408 LINE",
"559 408 LINE",
"559 586 LINE",
"721 586 LINE",
"762 487 LINE",
"840 487 LINE",
"821 691 LINE",
"318 691 LINE SMOOTH",
"196 691 OFFCURVE",
"117 595 QCURVE SMOOTH",
"36 497 OFFCURVE",
"36 345 QCURVE SMOOTH",
"36 188 OFFCURVE",
"111 96 QCURVE SMOOTH",
"189 -1 OFFCURVE",
"328 -1 QCURVE SMOOTH",
"377 0 LINE"
);
},
{
closed = 1;
nodes = (
"428 129 LINE",
"398 104 OFFCURVE",
"334 104 QCURVE SMOOTH",
"301 104 OFFCURVE",
"268 122 QCURVE SMOOTH",
"173 174 OFFCURVE",
"173 343 QCURVE SMOOTH",
"173 450 OFFCURVE",
"217 516 QCURVE SMOOTH",
"239 549 OFFCURVE",
"305 586 OFFCURVE",
"404 586 OFFCURVE",
"428 562 QCURVE"
);
}
);
width = 879;
},
{
layerId = "2CA35139-2F15-4242-9EF2-18C03B487D0C";
paths = (
{
closed = 1;
nodes = (
"799 0 LINE",
"818 171 LINE",
"771 171 LINE",
"736 68 LINE",
"516 68 LINE",
"516 314 LINE",
"688 314 LINE",
"688 377 LINE",
"516 377 LINE",
"516 623 LINE",
"726 623 LINE",
"760 520 LINE",
"808 520 LINE",
"788 691 LINE",
"397 691 LINE",
"369 695 OFFCURVE",
"335 695 QCURVE SMOOTH",
"323 695 LINE SMOOTH",
"255 695 OFFCURVE",
"152 631 OFFCURVE",
"83 530 OFFCURVE",
"48 404 OFFCURVE",
"48 343 QCURVE SMOOTH",
"48 204 OFFCURVE",
"117 106 QCURVE SMOOTH",
"195 -4 OFFCURVE",
"331 -4 QCURVE SMOOTH",
"359 -4 OFFCURVE",
"387 0 QCURVE"
);
},
{
closed = 1;
nodes = (
"119 229 OFFCURVE",
"119 341 QCURVE SMOOTH",
"119 449 OFFCURVE",
"176 534 QCURVE SMOOTH",
"204 574 OFFCURVE",
"285 624 OFFCURVE",
"372 624 OFFCURVE",
"424 611 OFFCURVE",
"447 591 QCURVE",
"447 102 LINE",
"405 64 OFFCURVE",
"276 64 OFFCURVE",
"196 112 OFFCURVE",
"170 152 QCURVE SMOOTH"
);
}
);
width = 858;
},
{
layerId = "632A4CD3-2375-47CC-B7F1-E224D812DAB9";
paths = (
{
closed = 1;
nodes = (
"816 0 LINE",
"836 187 LINE",
"773 187 LINE",
"738 86 LINE",
"542 86 LINE",
"542 309 LINE",
"700 309 LINE",
"700 395 LINE",
"542 395 LINE",
"542 605 LINE",
"728 605 LINE",
"766 503 LINE",
"829 503 LINE",
"809 691 LINE",
"352 691 LINE",
"325 692 LINE",
"189 692 OFFCURVE",
"113 588 QCURVE SMOOTH",
"43 492 OFFCURVE",
"43 344 QCURVE SMOOTH",
"43 196 OFFCURVE",
"113 100 QCURVE SMOOTH",
"189 -4 OFFCURVE",
"325 -4 QCURVE SMOOTH",
"356 -4 OFFCURVE",
"390 0 QCURVE"
);
},
{
closed = 1;
nodes = (
"443 117 LINE",
"410 82 OFFCURVE",
"345 82 QCURVE SMOOTH",
"257 82 OFFCURVE",
"202 161 QCURVE SMOOTH",
"148 237 OFFCURVE",
"148 342 QCURVE SMOOTH",
"148 452 OFFCURVE",
"198 526 QCURVE SMOOTH",
"222 562 OFFCURVE",
"295 606 OFFCURVE",
"396 606 OFFCURVE",
"443 568 QCURVE"
);
}
);
width = 873;
}
);
leftKerningGroup = O;
rightKerningGroup = E;
unicode = 0152;
userData = {
com.typemytype.robofont.mark = (
0.713,
0.6,
1,
1
);
};
},
{
color = 4;
glyphname = P;
layers = (
{
layerId = "CBC04B6C-E875-491C-A1C2-2B8D0972DDA1";
paths = (
{
closed = 1;
nodes = (
"321 0 LINE",
"321 51 LINE",
"181 70 LINE",
"181 264 LINE",
"238 264 LINE SMOOTH",
"370 264 OFFCURVE",
"494 328 OFFCURVE",
"494 481 CURVE SMOOTH",
"494 580 OFFCURVE",
"436 691 OFFCURVE",
"219 691 CURVE SMOOTH",
"55 691 LINE",
"55 632 LINE",
"112 627 LINE",
"112 68 LINE",
"55 55 LINE",
"62 0 LINE"
);
},
{
closed = 1;
nodes = (
"181 623 LINE",
"245 623 LINE SMOOTH",
"347 623 OFFCURVE",
"423 579 OFFCURVE",
"423 480 CURVE SMOOTH",
"423 405 OFFCURVE",
"393 332 OFFCURVE",
"235 332 CURVE SMOOTH {name = hr00;}",
"181 332 LINE"
);
}
);
width = 520;
},
{
layerId = "682D4A5D-117B-492A-B436-118C610C28E8";
paths = (
{
closed = 1;
nodes = (
"384 0 LINE",
"390 83 LINE",
"238 106 LINE",
"238 223 LINE",
"285 223 LINE SMOOTH",
"477 223 OFFCURVE",
"571 319 OFFCURVE",
"571 461 CURVE SMOOTH",
"571 603 OFFCURVE",
"478 691 OFFCURVE",
"289 691 CURVE SMOOTH",
"39 691 LINE",
"39 600 LINE",
"107 593 LINE",
"107 100 LINE",
"37 86 LINE",
"51 0 LINE"
);
},
{
closed = 1;
nodes = (
"238 586 LINE",
"293 586 LINE SMOOTH",
"390 586 OFFCURVE",
"434 538 OFFCURVE",
"434 464 CURVE SMOOTH",
"434 381 OFFCURVE",
"403 330 OFFCURVE",
"247 328 CURVE",
"238 328 LINE {name = hr00;}"
);
}
);
width = 585;
},
{
layerId = "97A2F932-1121-41E4-AD06-4A872C221506";
paths = (
{
closed = 1;
nodes = (
"238 585 LINE",
"293 585 LINE SMOOTH",
"366 585 OFFCURVE",
"434 519 OFFCURVE",
"434 463 QCURVE SMOOTH",
"434 431 OFFCURVE",
"426 406 QCURVE SMOOTH",
"403 327 OFFCURVE",
"238 327 QCURVE"
);
},
{
closed = 1;
nodes = (
"51 0 LINE",
"384 0 LINE",
"390 83 LINE",
"378 85 OFFCURVE",
"342 90 OFFCURVE",
"304 96 OFFCURVE",
"267 100 OFFCURVE",
"247 103 OFFCURVE",
"238 106 OFFCURVE",
"238 114 QCURVE SMOOTH",
"238 222 LINE",
"285 222 LINE SMOOTH",
"425 222 OFFCURVE",
"500 288 QCURVE SMOOTH",
"571 350 OFFCURVE",
"571 460 QCURVE SMOOTH",
"571 513 OFFCURVE",
"554 556 QCURVE SMOOTH",
"498 690 OFFCURVE",
"289 690 QCURVE SMOOTH",
"39 690 LINE",
"39 599 LINE",
"107 592 LINE",
"107 100 LINE",
"37 86 LINE"
);
}
);
width = 585;
},
{
layerId = "2CA35139-2F15-4242-9EF2-18C03B487D0C";
paths = (
{
closed = 1;
nodes = (
"181 332 LINE",
"181 623 LINE",
"245 623 LINE SMOOTH",
"325 623 OFFCURVE",
"372 588 QCURVE SMOOTH",
"423 551 OFFCURVE",
"423 480 QCURVE SMOOTH",
"423 413 OFFCURVE",
"388 378 QCURVE SMOOTH",
"344 332 OFFCURVE",
"235 332 QCURVE SMOOTH"
);
},
{
closed = 1;
nodes = (
"62 0 LINE",
"321 0 LINE",
"321 51 LINE",
"181 70 LINE",
"181 264 LINE",
"238 264 LINE SMOOTH",
"346 264 OFFCURVE",
"416 315 QCURVE SMOOTH",
"494 372 OFFCURVE",
"494 481 QCURVE SMOOTH",
"494 569 OFFCURVE",
"438 623 QCURVE SMOOTH",
"368 691 OFFCURVE",
"219 691 QCURVE SMOOTH",
"55 691 LINE",
"55 632 LINE",
"112 627 LINE",
"112 68 LINE",
"55 55 LINE"
);
}
);
width = 520;
},
{
layerId = "632A4CD3-2375-47CC-B7F1-E224D812DAB9";
paths = (
{
closed = 1;
nodes = (
"210 244 LINE",
"256 244 LINE SMOOTH",
"383 244 OFFCURVE",
"453 295 QCURVE SMOOTH",
"532 353 OFFCURVE",
"532 470 QCURVE SMOOTH",
"532 570 OFFCURVE",
"468 628 QCURVE SMOOTH",
"397 691 OFFCURVE",
"258 691 QCURVE SMOOTH",
"47 691 LINE",
"47 615 LINE",
"110 610 LINE",
"110 84 LINE",
"46 70 LINE",
"56 0 LINE",
"352 0 LINE",
"355 67 LINE",
"235 82 OFFCURVE",
"210 87 QCURVE"
);
},
{
closed = 1;
nodes = (
"427 409 OFFCURVE",
"388 372 QCURVE SMOOTH",
"344 330 OFFCURVE",
"252 330 QCURVE SMOOTH",
"210 330 LINE",
"210 605 LINE",
"245 605 LINE SMOOTH",
"427 605 OFFCURVE",
"427 471 QCURVE SMOOTH"
);
}
);
width = 553;
}
);
leftKerningGroup = H;
unicode = 0050;
userData = {
com.typemytype.robofont.mark = (
0.713,
0.6,
1,
1
);
};
},
{
color = 4;
glyphname = Thorn;
layers = (
{
layerId = "CBC04B6C-E875-491C-A1C2-2B8D0972DDA1";
paths = (
{
closed = 1;
nodes = (
"291 0 LINE",
"291 51 LINE",
"181 64 LINE",
"181 175 LINE",
"221 175 LINE SMOOTH {name = hr01;}",
"355 175 OFFCURVE",
"475 226 OFFCURVE",
"475 371 CURVE SMOOTH",
"475 516 OFFCURVE",
"357 561 OFFCURVE",
"224 561 CURVE SMOOTH",
"181 561 LINE",
"181 627 LINE",
"236 635 LINE",
"232 691 LINE",
"55 691 LINE",
"55 631 LINE",
"112 627 LINE",
"112 64 LINE {name = hr00;}",
"58 56 LINE",
"63 0 LINE"
);
},
{
closed = 1;
nodes = (
"181 492 LINE",
"218 492 LINE SMOOTH",
"322 492 OFFCURVE",
"402 470 OFFCURVE",
"402 370 CURVE SMOOTH",
"402 270 OFFCURVE",
"320 244 OFFCURVE",
"217 244 CURVE SMOOTH {name = hr02;}",
"181 244 LINE"
);
}
);
width = 500;
},
{
layerId = "682D4A5D-117B-492A-B436-118C610C28E8";
paths = (
{
closed = 1;
nodes = (
"354 0 LINE",
"354 87 LINE",
"240 99 LINE",
"240 147 LINE",
"279 146 LINE SMOOTH",
"457 146 OFFCURVE",
"545 229 OFFCURVE",
"545 352 CURVE SMOOTH",
"545 475 OFFCURVE",
"456 559 OFFCURVE",
"276 559 CURVE",
"240 558 LINE",
"240 586 LINE",
"315 598 LINE",
"301 691 LINE {name = hr01;}",
"40 691 LINE",
"40 600 LINE",
"108 593 LINE",
"108 102 LINE",
"40 89 LINE",
"40 0 LINE {name = hr00;}"
);
},
{
closed = 1;
nodes = (
"240 453 LINE",
"253 453 LINE SMOOTH",
"382 448 OFFCURVE",
"409 405 OFFCURVE",
"409 352 CURVE SMOOTH",
"409 298 OFFCURVE",
"382 255 OFFCURVE",
"253 251 CURVE SMOOTH",
"240 251 LINE"
);
}
);
width = 556;
},
{
layerId = "97A2F932-1121-41E4-AD06-4A872C221506";
paths = (
{
closed = 1;
nodes = (
"240 586 LINE",
"315 598 LINE",
"301 691 LINE",
"40 691 LINE",
"40 600 LINE",
"108 593 LINE",
"108 102 LINE",
"40 89 LINE",
"40 0 LINE",
"354 0 LINE",
"354 87 LINE",
"240 99 LINE",
"240 147 LINE",
"251 146 OFFCURVE",
"260 146 QCURVE SMOOTH",
"279 146 LINE SMOOTH",
"409 146 OFFCURVE",
"479 203 QCURVE SMOOTH",
"545 257 OFFCURVE",
"545 352 QCURVE SMOOTH",
"545 447 OFFCURVE",
"478 502 QCURVE SMOOTH",
"407 559 OFFCURVE",
"276 559 QCURVE SMOOTH",
"240 558 LINE"
);
},
{
closed = 1;
nodes = (
"409 331 OFFCURVE",
"402 312 QCURVE SMOOTH",
"381 251 OFFCURVE",
"240 251 QCURVE",
"240 453 LINE",
"337 451 OFFCURVE",
"377 422 QCURVE SMOOTH",
"409 400 OFFCURVE",
"409 352 QCURVE SMOOTH"
);
}
);
width = 556;
},
{
layerId = "2CA35139-2F15-4242-9EF2-18C03B487D0C";
paths = (
{
closed = 1;
nodes = (
"58 56 LINE",
"63 0 LINE",
"291 0 LINE",
"291 51 LINE",
"181 64 LINE",
"181 175 LINE",
"221 175 LINE SMOOTH",
"333 175 OFFCURVE",
"398 218 QCURVE SMOOTH",
"475 270 OFFCURVE",
"475 371 QCURVE SMOOTH",
"475 425 OFFCURVE",
"454 462 QCURVE SMOOTH",
"399 561 OFFCURVE",
"224 561 QCURVE SMOOTH",
"181 561 LINE",
"181 627 LINE",
"236 635 LINE",
"232 691 LINE",
"55 691 LINE",
"55 631 LINE",
"112 627 LINE",
"112 64 LINE"
);
},
{
closed = 1;
nodes = (
"181 244 LINE",
"181 492 LINE",
"218 492 LINE SMOOTH",
"305 492 OFFCURVE",
"349 468 QCURVE SMOOTH",
"374 455 OFFCURVE",
"402 407 OFFCURVE",
"402 332 OFFCURVE",
"388 308 QCURVE SMOOTH",
"349 244 OFFCURVE",
"217 244 QCURVE SMOOTH"
);
}
);
width = 500;
},
{
layerId = "632A4CD3-2375-47CC-B7F1-E224D812DAB9";
paths = (
{
closed = 1;
nodes = (
"109 83 LINE",
"46 72 LINE",
"55 0 LINE",
"324 0 LINE",
"324 63 LINE",
"209 81 LINE",
"209 152 LINE",
"229 152 LINE SMOOTH",
"356 152 OFFCURVE",
"426 200 QCURVE SMOOTH",
"505 255 OFFCURVE",
"505 362 QCURVE SMOOTH",
"505 468 OFFCURVE",
"358 569 OFFCURVE",
"211 569 QCURVE",
"209 606 LINE",
"274 616 LINE",
"264 691 LINE",
"46 691 LINE",
"46 615 LINE",
"109 610 LINE"
);
},
{
closed = 1;
nodes = (
"217 478 LINE SMOOTH",
"308 478 OFFCURVE",
"400 423 OFFCURVE",
"400 354 QCURVE SMOOTH",
"400 301 OFFCURVE",
"322 238 OFFCURVE",
"225 238 QCURVE SMOOTH",
"209 238 LINE",
"209 478 LINE"
);
}
);
width = 525;
}
);
leftKerningGroup = I;
unicode = 00DE;
userData = {
com.typemytype.robofont.mark = (
0.713,
0.6,
1,
1
);
};
},
{
color = 4;
glyphname = Q;
layers = (
{
layerId = "CBC04B6C-E875-491C-A1C2-2B8D0972DDA1";
paths = (
{
closed = 1;
nodes = (
"515 -4 OFFCURVE",
"600 175 OFFCURVE",
"600 343 CURVE SMOOTH",
"600 511 OFFCURVE",
"515 691 OFFCURVE",
"325 691 CURVE SMOOTH",
"135 691 OFFCURVE",
"50 511 OFFCURVE",
"50 343 CURVE SMOOTH",
"50 175 OFFCURVE",
"135 -4 OFFCURVE",
"325 -4 CURVE SMOOTH"
);
},
{
closed = 1;
nodes = (
"501 -130 LINE",
"496 -102 LINE",
"283 -29 LINE {name = hr00;}",
"260 -56 LINE",
"417 -191 LINE"
);
},
{
closed = 1;
nodes = (
"179 64 OFFCURVE",
"123 205 OFFCURVE",
"123 341 CURVE SMOOTH",
"123 477 OFFCURVE",
"179 624 OFFCURVE",
"325 624 CURVE SMOOTH",
"471 624 OFFCURVE",
"526 477 OFFCURVE",
"526 341 CURVE SMOOTH",
"526 205 OFFCURVE",
"471 64 OFFCURVE",
"325 64 CURVE SMOOTH"
);
}
);
width = 649;
},
{
layerId = "682D4A5D-117B-492A-B436-118C610C28E8";
paths = (
{
closed = 1;
nodes = (
"517 -4 OFFCURVE",
"619 141 OFFCURVE",
"619 345 CURVE SMOOTH",
"619 550 OFFCURVE",
"517 693 OFFCURVE",
"328 693 CURVE SMOOTH",
"139 693 OFFCURVE",
"36 550 OFFCURVE",
"36 345 CURVE SMOOTH",
"36 141 OFFCURVE",
"139 -4 OFFCURVE",
"328 -4 CURVE SMOOTH"
);
},
{
closed = 1;
nodes = (
"529 -129 LINE",
"522 -91 LINE",
"314 -15 LINE",
"259 -72 LINE {name = hr00;}",
"435 -227 LINE"
);
},
{
closed = 1;
nodes = (
"233 101 OFFCURVE",
"173 207 OFFCURVE",
"173 343 CURVE SMOOTH",
"173 480 OFFCURVE",
"233 588 OFFCURVE",
"328 588 CURVE SMOOTH",
"422 588 OFFCURVE",
"482 480 OFFCURVE",
"482 343 CURVE SMOOTH",
"482 207 OFFCURVE",
"422 101 OFFCURVE",
"328 101 CURVE SMOOTH"
);
}
);
width = 655;
},
{
layerId = "97A2F932-1121-41E4-AD06-4A872C221506";
paths = (
{
closed = 1;
nodes = (
"259 -72 LINE",
"435 -227 LINE",
"529 -129 LINE",
"522 -91 LINE",
"314 -15 LINE"
);
},
{
closed = 1;
nodes = (
"467 -4 OFFCURVE",
"544 94 QCURVE SMOOTH",
"619 188 OFFCURVE",
"619 345 QCURVE SMOOTH",
"619 502 OFFCURVE",
"544 596 QCURVE SMOOTH",
"468 693 OFFCURVE",
"328 693 QCURVE SMOOTH",
"189 693 OFFCURVE",
"111 596 QCURVE SMOOTH",
"36 503 OFFCURVE",
"36 345 QCURVE SMOOTH",
"36 187 OFFCURVE",
"111 94 QCURVE SMOOTH",
"190 -4 OFFCURVE",
"328 -4 QCURVE SMOOTH"
);
},
{
closed = 1;
nodes = (
"173 448 OFFCURVE",
"215 517 QCURVE SMOOTH",
"258 588 OFFCURVE",
"328 588 QCURVE SMOOTH",
"397 588 OFFCURVE",
"440 517 QCURVE SMOOTH",
"482 448 OFFCURVE",
"482 343 QCURVE SMOOTH",
"482 240 OFFCURVE",
"440 171 QCURVE SMOOTH",
"398 101 OFFCURVE",
"328 101 QCURVE SMOOTH",
"257 101 OFFCURVE",
"215 171 QCURVE SMOOTH",
"173 240 OFFCURVE",
"173 343 QCURVE SMOOTH"
);
}
);
width = 655;
},
{
layerId = "2CA35139-2F15-4242-9EF2-18C03B487D0C";
paths = (
{
closed = 1;
nodes = (
"501 -130 LINE",
"496 -102 LINE",
"283 -29 LINE",
"260 -56 LINE",
"334 -124 OFFCURVE",
"417 -191 QCURVE"
);
},
{
closed = 1;
nodes = (
"396 -4 OFFCURVE",
"500 57 OFFCURVE",
"534 106 QCURVE SMOOTH",
"600 205 OFFCURVE",
"600 343 QCURVE SMOOTH",
"600 481 OFFCURVE",
"534 580 QCURVE SMOOTH",
"500 629 OFFCURVE",
"396 691 OFFCURVE",
"325 691 QCURVE SMOOTH",
"254 691 OFFCURVE",
"150 629 OFFCURVE",
"116 580 QCURVE SMOOTH",
"50 483 OFFCURVE",
"50 343 QCURVE SMOOTH",
"50 203 OFFCURVE",
"116 106 QCURVE SMOOTH",
"192 -4 OFFCURVE",
"325 -4 QCURVE SMOOTH"
);
},
{
closed = 1;
nodes = (
"123 456 OFFCURVE",
"169 534 QCURVE SMOOTH",
"223 624 OFFCURVE",
"325 624 QCURVE SMOOTH",
"426 624 OFFCURVE",
"480 534 QCURVE SMOOTH",
"526 456 OFFCURVE",
"526 341 QCURVE SMOOTH",
"526 227 OFFCURVE",
"480 152 QCURVE SMOOTH",
"427 64 OFFCURVE",
"325 64 QCURVE SMOOTH",
"222 64 OFFCURVE",
"169 152 QCURVE SMOOTH",
"123 227 OFFCURVE",
"123 341 QCURVE SMOOTH"
);
}
);
width = 649;
},
{
layerId = "632A4CD3-2375-47CC-B7F1-E224D812DAB9";
paths = (
{
closed = 1;
nodes = (
"148 452 OFFCURVE",
"192 526 QCURVE SMOOTH",
"239 606 OFFCURVE",
"325 606 QCURVE SMOOTH",
"411 606 OFFCURVE",
"460 526 QCURVE SMOOTH",
"504 452 OFFCURVE",
"504 342 QCURVE SMOOTH",
"504 233 OFFCURVE",
"460 161 QCURVE SMOOTH",
"412 82 OFFCURVE",
"325 82 QCURVE SMOOTH",
"239 82 OFFCURVE",
"192 161 QCURVE SMOOTH",
"148 234 OFFCURVE",
"148 342 QCURVE SMOOTH"
);
},
{
closed = 1;
nodes = (
"461 -4 OFFCURVE",
"538 100 QCURVE SMOOTH",
"609 197 OFFCURVE",
"609 344 QCURVE SMOOTH",
"609 491 OFFCURVE",
"538 588 QCURVE SMOOTH",
"461 692 OFFCURVE",
"325 692 QCURVE SMOOTH",
"189 692 OFFCURVE",
"113 588 QCURVE SMOOTH",
"43 492 OFFCURVE",
"43 344 QCURVE SMOOTH",
"43 196 OFFCURVE",
"113 100 QCURVE SMOOTH",
"189 -4 OFFCURVE",
"325 -4 QCURVE SMOOTH"
);
},
{
closed = 1;
nodes = (
"298 -22 LINE",
"259 -64 LINE",
"301 -101 OFFCURVE",
"382 -174 OFFCURVE",
"425 -209 QCURVE",
"514 -130 LINE",
"508 -97 LINE"
);
}
);
width = 651;
}
);
leftKerningGroup = O;
rightKerningGroup = O;
unicode = 0051;
userData = {
com.typemytype.robofont.mark = (
0.713,
0.6,
1,
1
);
};
},
{
color = 4;
glyphname = R;
layers = (
{
anchors = (
{
name = bottom;
position = "{308, 0}";
},
{
name = top;
position = "{191, 691}";
}
);
layerId = "CBC04B6C-E875-491C-A1C2-2B8D0972DDA1";
paths = (
{
closed = 1;
nodes = (
"259 0 LINE",
"259 51 LINE",
"181 70 LINE",
"181 264 LINE",
"224 264 OFFCURVE",
"246 264 OFFCURVE",
"272 266 CURVE",
"392 0 LINE",
"510 0 LINE",
"510 51 LINE",
"445 65 LINE",
"343 282 LINE",
"428 310 OFFCURVE",
"494 373 OFFCURVE",
"494 481 CURVE SMOOTH",
"494 627 OFFCURVE",
"383 691 OFFCURVE",
"229 691 CURVE SMOOTH",
"55 691 LINE",
"55 632 LINE",
"112 627 LINE",
"112 68 LINE",
"55 55 LINE {name = hr00;}",
"62 0 LINE"
);
},
{
closed = 1;
nodes = (
"181 623 LINE",
"255 623 LINE SMOOTH",
"350 623 OFFCURVE",
"423 582 OFFCURVE",
"423 480 CURVE SMOOTH",
"423 363 OFFCURVE",
"334 332 OFFCURVE",
"235 332 CURVE SMOOTH",
"181 332 LINE"
);
}
);
width = 544;
},
{
anchors = (
{
name = bottom;
position = "{324, 0}";
},
{
name = top;
position = "{250, 691}";
}
);
layerId = "682D4A5D-117B-492A-B436-118C610C28E8";
paths = (
{
closed = 1;
nodes = (
"290 0 LINE",
"290 87 LINE",
"238 95 LINE",
"238 232 LINE",
"263 232 OFFCURVE",
"288 233 OFFCURVE",
"311 235 CURVE",
"415 0 LINE",
"584 0 LINE",
"584 87 LINE",
"521 97 LINE",
"433 265 LINE",
"520 301 OFFCURVE",
"572 368 OFFCURVE",
"572 466 CURVE SMOOTH",
"572 597 OFFCURVE",
"480 691 OFFCURVE",
"284 691 CURVE SMOOTH",
"39 691 LINE",
"39 600 LINE",
"107 593 LINE",
"107 99 LINE",
"38 85 LINE",
"47 0 LINE {name = hr00;}"
);
},
{
closed = 1;
nodes = (
"238 585 LINE",
"250 585 LINE SMOOTH",
"396 583 OFFCURVE",
"437 539 OFFCURVE",
"437 463 CURVE SMOOTH",
"437 393 OFFCURVE",
"389 338 OFFCURVE",
"271 338 CURVE SMOOTH",
"238 338 LINE"
);
}
);
width = 612;
},
{
layerId = "97A2F932-1121-41E4-AD06-4A872C221506";
paths = (
{
closed = 1;
nodes = (
"572 567 OFFCURVE",
"502 627 QCURVE SMOOTH",
"427 690 OFFCURVE",
"284 690 QCURVE SMOOTH",
"39 690 LINE",
"39 599 LINE",
"107 592 LINE",
"107 99 LINE",
"38 85 LINE",
"47 0 LINE",
"290 0 LINE",
"290 87 LINE",
"238 95 LINE",
"238 231 LINE",
"276 231 OFFCURVE",
"311 234 QCURVE",
"415 0 LINE",
"584 0 LINE",
"584 87 LINE",
"521 97 LINE",
"433 264 LINE",
"572 321 OFFCURVE",
"572 465 QCURVE SMOOTH"
);
},
{
closed = 1;
nodes = (
"238 584 LINE",
"349 584 OFFCURVE",
"396 552 QCURVE SMOOTH",
"437 525 OFFCURVE",
"437 462 QCURVE SMOOTH",
"437 406 OFFCURVE",
"398 373 QCURVE SMOOTH",
"354 336 OFFCURVE",
"271 336 QCURVE SMOOTH",
"253 336 LINE SMOOTH",
"244 336 OFFCURVE",
"238 337 QCURVE"
);
}
);
width = 612;
},
{
layerId = "2CA35139-2F15-4242-9EF2-18C03B487D0C";
paths = (
{
closed = 1;
nodes = (
"392 0 LINE",
"510 0 LINE",
"510 51 LINE",
"445 65 LINE",
"343 282 LINE",
"410 303 OFFCURVE",
"450 352 QCURVE SMOOTH",
"471 376 OFFCURVE",
"494 440 OFFCURVE",
"494 536 OFFCURVE",
"474 576 QCURVE SMOOTH",
"416 691 OFFCURVE",
"229 691 QCURVE SMOOTH",
"55 691 LINE",
"55 632 LINE",
"112 627 LINE",
"112 68 LINE",
"55 55 LINE",
"62 0 LINE",
"259 0 LINE",
"259 51 LINE",
"181 70 LINE",
"181 264 LINE",
"228 264 LINE SMOOTH",
"250 264 OFFCURVE",
"272 266 QCURVE"
);
},
{
closed = 1;
nodes = (
"181 332 LINE",
"181 623 LINE",
"255 623 LINE SMOOTH",
"331 623 OFFCURVE",
"374 590 QCURVE SMOOTH",
"423 552 OFFCURVE",
"423 480 QCURVE SMOOTH",
"423 332 OFFCURVE",
"235 332 QCURVE SMOOTH"
);
}
);
width = 544;
},
{
layerId = "632A4CD3-2375-47CC-B7F1-E224D812DAB9";
paths = (
{
closed = 1;
nodes = (
"46 70 LINE",
"56 0 LINE",
"289 0 LINE",
"289 69 LINE",
"210 83 LINE",
"210 253 LINE",
"256 253 LINE SMOOTH",
"281 253 OFFCURVE",
"305 256 QCURVE",
"417 0 LINE",
"556 0 LINE",
"556 69 LINE",
"499 81 LINE",
"402 280 LINE",
"462 305 OFFCURVE",
"532 401 OFFCURVE",
"532 470 QCURVE SMOOTH",
"532 570 OFFCURVE",
"468 628 QCURVE SMOOTH",
"397 691 OFFCURVE",
"258 691 QCURVE SMOOTH",
"47 691 LINE",
"47 615 LINE",
"110 610 LINE",
"110 84 LINE"
);
},
{
closed = 1;
nodes = (
"427 416 OFFCURVE",
"388 382 QCURVE SMOOTH",
"341 339 OFFCURVE",
"252 339 QCURVE SMOOTH",
"210 339 LINE",
"210 605 LINE",
"245 605 LINE SMOOTH",
"427 605 OFFCURVE",
"427 471 QCURVE SMOOTH"
);
}
);
width = 584;
}
);
leftKerningGroup = H;
unicode = 0052;
userData = {
com.typemytype.robofont.mark = (
0.713,
0.6,
1,
1
);
};
},
{
color = 4;
glyphname = S;
layers = (
{
anchors = (
{
name = bottom;
position = "{231, 0}";
},
{
name = top;
position = "{257, 691}";
}
);
layerId = "CBC04B6C-E875-491C-A1C2-2B8D0972DDA1";
paths = (
{
closed = 1;
nodes = (
"346 -4 OFFCURVE",
"446 67 OFFCURVE",
"446 189 CURVE SMOOTH",
"446 258 OFFCURVE",
"417 324 OFFCURVE",
"296 380 CURVE SMOOTH",
"219 415 OFFCURVE",
"125 439 OFFCURVE",
"125 528 CURVE SMOOTH",
"125 592 OFFCURVE",
"189 624 OFFCURVE",
"249 624 CURVE SMOOTH",
"277 624 OFFCURVE",
"302 622 OFFCURVE",
"327 611 CURVE",
"369 505 LINE",
"424 505 LINE",
"411 659 LINE",
"362 678 OFFCURVE",
"313 691 OFFCURVE",
"257 691 CURVE SMOOTH",
"149 691 OFFCURVE",
"54 626 OFFCURVE",
"54 520 CURVE SMOOTH",
"54 388 OFFCURVE",
"183 356 OFFCURVE",
"289 304 CURVE SMOOTH",
"357 270 OFFCURVE",
"375 232 OFFCURVE",
"375 181 CURVE SMOOTH",
"375 101 OFFCURVE",
"302 64 OFFCURVE",
"233 64 CURVE SMOOTH",
"204 64 OFFCURVE",
"164 72 OFFCURVE",
"139 84 CURVE",
"112 183 LINE {name = hr00;}",
"54 183 LINE",
"65 29 LINE",
"116 5 OFFCURVE",
"176 -4 OFFCURVE",
"233 -4 CURVE SMOOTH"
);
}
);
width = 491;
},
{
anchors = (
{
name = bottom;
position = "{240, 6}";
},
{
name = top;
position = "{278, 691}";
}
);
layerId = "682D4A5D-117B-492A-B436-118C610C28E8";
paths = (
{
closed = 1;
nodes = (
"361 -4 OFFCURVE",
"489 52 OFFCURVE",
"489 201 CURVE SMOOTH",
"489 297 OFFCURVE",
"433 347 OFFCURVE",
"315 403 CURVE SMOOTH",
"257 431 OFFCURVE",
"180 457 OFFCURVE",
"180 511 CURVE SMOOTH",
"180 553 OFFCURVE",
"212 587 OFFCURVE",
"282 587 CURVE SMOOTH",
"305 587 OFFCURVE",
"333 583 OFFCURVE",
"350 581 CURVE",
"399 475 LINE {name = hr01;}",
"483 475 LINE",
"468 665 LINE",
"416 680 OFFCURVE",
"347 692 OFFCURVE",
"278 692 CURVE SMOOTH",
"149 692 OFFCURVE",
"44 619 OFFCURVE",
"44 504 CURVE SMOOTH",
"44 385 OFFCURVE",
"123 343 OFFCURVE",
"226 295 CURVE SMOOTH",
"311 256 OFFCURVE",
"352 237 OFFCURVE",
"352 183 CURVE SMOOTH {name = hr00;}",
"352 125 OFFCURVE",
"297 101 OFFCURVE",
"234 101 CURVE SMOOTH",
"197 101 OFFCURVE",
"165 112 OFFCURVE",
"148 116 CURVE",
"140 227 LINE",
"56 234 LINE",
"36 41 LINE",
"89 20 OFFCURVE",
"162 -4 OFFCURVE",
"240 -4 CURVE SMOOTH"
);
}
);
width = 528;
},
{
layerId = "97A2F932-1121-41E4-AD06-4A872C221506";
paths = (
{
closed = 1;
nodes = (
"140 227 LINE",
"56 234 LINE",
"36 41 LINE",
"148 -4 OFFCURVE",
"240 -4 QCURVE SMOOTH",
"344 -4 OFFCURVE",
"410 42 QCURVE SMOOTH",
"445 67 OFFCURVE",
"489 145 OFFCURVE",
"489 270 OFFCURVE",
"446 317 QCURVE SMOOTH",
"425 341 OFFCURVE",
"359 382 OFFCURVE",
"250 433 OFFCURVE",
"226 448 QCURVE SMOOTH",
"206 460 OFFCURVE",
"180 491 OFFCURVE",
"180 543 OFFCURVE",
"229 587 OFFCURVE",
"311 587 OFFCURVE",
"350 581 QCURVE",
"399 475 LINE",
"483 475 LINE",
"468 665 LINE",
"372 692 OFFCURVE",
"278 692 QCURVE SMOOTH",
"177 692 OFFCURVE",
"112 642 QCURVE SMOOTH",
"44 588 OFFCURVE",
"44 504 QCURVE SMOOTH",
"44 423 OFFCURVE",
"96 372 QCURVE SMOOTH",
"121 349 OFFCURVE",
"187 313 OFFCURVE",
"302 259 OFFCURVE",
"321 244 QCURVE SMOOTH",
"337 232 OFFCURVE",
"352 203 OFFCURVE",
"352 161 OFFCURVE",
"333 130 OFFCURVE",
"300 110 OFFCURVE",
"258 101 OFFCURVE",
"206 101 OFFCURVE",
"161 113 OFFCURVE",
"148 116 QCURVE"
);
}
);
width = 528;
},
{
layerId = "2CA35139-2F15-4242-9EF2-18C03B487D0C";
paths = (
{
closed = 1;
nodes = (
"54 183 LINE",
"65 29 LINE",
"135 -4 OFFCURVE",
"233 -4 QCURVE SMOOTH",
"322 -4 OFFCURVE",
"382 46 QCURVE SMOOTH",
"411 71 OFFCURVE",
"446 143 OFFCURVE",
"446 246 OFFCURVE",
"416 289 QCURVE SMOOTH",
"400 313 OFFCURVE",
"341 359 OFFCURVE",
"267 393 OFFCURVE",
"206 418 OFFCURVE",
"157 450 OFFCURVE",
"125 495 OFFCURVE",
"125 573 OFFCURVE",
"164 600 QCURVE SMOOTH",
"182 612 OFFCURVE",
"226 624 OFFCURVE",
"296 624 OFFCURVE",
"327 611 QCURVE",
"369 505 LINE",
"424 505 LINE",
"411 659 LINE",
"326 691 OFFCURVE",
"257 691 QCURVE SMOOTH",
"174 691 OFFCURVE",
"115 645 QCURVE SMOOTH",
"87 623 OFFCURVE",
"54 560 OFFCURVE",
"54 470 OFFCURVE",
"98 405 OFFCURVE",
"166 359 OFFCURVE",
"249 323 OFFCURVE",
"340 278 OFFCURVE",
"375 219 OFFCURVE",
"375 181 QCURVE SMOOTH",
"375 125 OFFCURVE",
"330 92 QCURVE SMOOTH",
"310 78 OFFCURVE",
"259 64 OFFCURVE",
"181 64 OFFCURVE",
"139 84 QCURVE",
"112 183 LINE"
);
}
);
width = 491;
},
{
layerId = "632A4CD3-2375-47CC-B7F1-E224D812DAB9";
paths = (
{
closed = 1;
nodes = (
"128 -4 OFFCURVE",
"332 -4 OFFCURVE",
"394 42 QCURVE SMOOTH",
"427 66 OFFCURVE",
"466 141 OFFCURVE",
"466 257 OFFCURVE",
"430 302 QCURVE SMOOTH",
"411 326 OFFCURVE",
"349 370 OFFCURVE",
"278 402 OFFCURVE",
"224 425 OFFCURVE",
"202 440 QCURVE SMOOTH",
"152 472 OFFCURVE",
"152 522 QCURVE SMOOTH",
"152 565 OFFCURVE",
"215 607 OFFCURVE",
"306 607 OFFCURVE",
"336 597 QCURVE",
"380 489 LINE",
"449 489 LINE",
"435 661 LINE",
"354 691 OFFCURVE",
"266 691 QCURVE SMOOTH",
"175 691 OFFCURVE",
"112 643 QCURVE SMOOTH",
"82 620 OFFCURVE",
"47 554 OFFCURVE",
"47 457 OFFCURVE",
"90 388 OFFCURVE",
"157 341 OFFCURVE",
"240 307 OFFCURVE",
"325 265 OFFCURVE",
"362 216 OFFCURVE",
"362 155 OFFCURVE",
"351 136 QCURVE SMOOTH",
"319 80 OFFCURVE",
"233 80 QCURVE SMOOTH",
"190 80 OFFCURVE",
"147 96 QCURVE",
"129 203 LINE",
"59 203 LINE",
"52 34 LINE"
);
}
);
width = 507;
}
);
unicode = 0053;
userData = {
com.typemytype.robofont.mark = (
0.713,
0.6,
1,
1
);
};
},
{
color = 4;
glyphname = T;
layers = (
{
anchors = (
{
name = bar;
position = "{298, 339}";
},
{
name = bottom;
position = "{280, 0}";
},
{
name = top;
position = "{275, 691}";
}
);
layerId = "CBC04B6C-E875-491C-A1C2-2B8D0972DDA1";
paths = (
{
closed = 1;
nodes = (
"423 0 LINE",
"423 52 LINE",
"308 70 LINE",
"308 623 LINE",
"444 623 LINE {name = hr02;}",
"483 526 LINE",
"529 526 LINE",
"506 691 LINE",
"41 691 LINE",
"18 526 LINE",
"64 526 LINE {name = hr01;}",
"103 623 LINE",
"240 623 LINE",
"240 70 LINE",
"127 52 LINE",
"127 0 LINE {name = hr00;}"
);
}
);
width = 547;
},
{
anchors = (
{
name = bar;
position = "{331, 353}";
},
{
name = bottom;
position = "{312, 0}";
},
{
name = top;
position = "{315, 691}";
}
);
layerId = "682D4A5D-117B-492A-B436-118C610C28E8";
paths = (
{
closed = 1;
nodes = (
"478 0 LINE",
"488 80 LINE",
"372 102 LINE",
"372 586 LINE",
"486 586 LINE",
"530 487 LINE",
"606 487 LINE",
"584 691 LINE",
"29 691 LINE",
"10 486 LINE {name = hr01;}",
"87 486 LINE",
"130 586 LINE {name = hr02;}",
"243 586 LINE",
"243 102 LINE",
"128 80 LINE",
"138 0 LINE {name = hr00;}"
);
}
);
width = 615;
},
{
layerId = "97A2F932-1121-41E4-AD06-4A872C221506";
paths = (
{
closed = 1;
nodes = (
"138 0 LINE",
"478 0 LINE",
"488 80 LINE",
"372 102 LINE",
"372 585 LINE",
"486 585 LINE",
"530 486 LINE",
"606 486 LINE",
"584 690 LINE",
"29 690 LINE",
"10 485 LINE",
"87 485 LINE",
"130 585 LINE",
"243 585 LINE",
"243 102 LINE",
"128 80 LINE"
);
}
);
width = 615;
},
{
layerId = "2CA35139-2F15-4242-9EF2-18C03B487D0C";
paths = (
{
closed = 1;
nodes = (
"423 0 LINE",
"423 52 LINE",
"308 70 LINE",
"308 623 LINE",
"444 623 LINE",
"483 526 LINE",
"529 526 LINE",
"506 691 LINE",
"41 691 LINE",
"18 526 LINE",
"64 526 LINE",
"103 623 LINE",
"240 623 LINE",
"240 70 LINE",
"127 52 LINE",
"127 0 LINE"
);
}
);
width = 547;
},
{
layerId = "632A4CD3-2375-47CC-B7F1-E224D812DAB9";
paths = (
{
closed = 1;
nodes = (
"138 0 LINE",
"446 0 LINE",
"455 66 LINE",
"339 86 LINE",
"339 605 LINE",
"464 605 LINE",
"506 506 LINE",
"567 506 LINE",
"545 691 LINE",
"35 691 LINE",
"14 506 LINE",
"75 506 LINE",
"116 605 LINE",
"239 605 LINE",
"239 86 LINE",
"125 66 LINE"
);
}
);
width = 580;
}
);
unicode = 0054;
userData = {
com.typemytype.robofont.mark = (
0.713,
0.6,
1,
1
);
};
},
{
color = 4;
glyphname = U;
layers = (
{
anchors = (
{
name = bottom;
position = "{311, 0}";
},
{
name = ogonek;
position = "{362, 14}";
},
{
name = top;
position = "{310, 691}";
}
);
layerId = "CBC04B6C-E875-491C-A1C2-2B8D0972DDA1";
paths = (
{
closed = 1;
nodes = (
"437 -4 OFFCURVE",
"536 71 OFFCURVE",
"536 202 CURVE SMOOTH",
"536 627 LINE",
"591 635 LINE",
"587 691 LINE",
"417 691 LINE",
"417 631 LINE {name = hr00;}",
"474 627 LINE",
"474 213 LINE SMOOTH",
"474 104 OFFCURVE",
"402 63 OFFCURVE",
"319 63 CURVE SMOOTH",
"222 63 OFFCURVE",
"164 118 OFFCURVE",
"164 213 CURVE SMOOTH",
"164 627 LINE",
"219 635 LINE",
"215 691 LINE",
"38 691 LINE",
"38 631 LINE",
"96 627 LINE",
"96 202 LINE SMOOTH",
"96 77 OFFCURVE",
"187 -4 OFFCURVE",
"313 -4 CURVE SMOOTH"
);
}
);
width = 628;
},
{
anchors = (
{
name = bottom;
position = "{352, 0}";
},
{
name = ogonek;
position = "{371, 9}";
},
{
name = top;
position = "{355, 691}";
}
);
layerId = "682D4A5D-117B-492A-B436-118C610C28E8";
paths = (
{
closed = 1;
nodes = (
"503 -4 OFFCURVE",
"584 93 OFFCURVE",
"584 248 CURVE SMOOTH",
"584 587 LINE",
"643 600 LINE {name = hr01;}",
"643 691 LINE",
"415 691 LINE",
"415 603 LINE",
"479 594 LINE {name = hr02;}",
"479 251 LINE SMOOTH",
"479 146 OFFCURVE",
"433 101 OFFCURVE",
"353 101 CURVE SMOOTH",
"253 101 OFFCURVE",
"219 150 OFFCURVE",
"219 250 CURVE SMOOTH",
"219 592 LINE {name = hr00;}",
"290 603 LINE",
"290 691 LINE",
"21 691 LINE",
"21 602 LINE",
"88 593 LINE",
"88 248 LINE SMOOTH",
"88 90 OFFCURVE",
"153 -4 OFFCURVE",
"353 -4 CURVE SMOOTH"
);
}
);
width = 670;
},
{
layerId = "97A2F932-1121-41E4-AD06-4A872C221506";
paths = (
{
closed = 1;
nodes = (
"278 101 OFFCURVE",
"219 175 OFFCURVE",
"219 250 QCURVE SMOOTH",
"219 591 LINE",
"290 602 LINE",
"290 690 LINE",
"21 690 LINE",
"21 601 LINE",
"88 592 LINE",
"88 248 LINE SMOOTH",
"88 124 OFFCURVE",
"146 62 QCURVE SMOOTH",
"208 -4 OFFCURVE",
"353 -4 QCURVE SMOOTH",
"466 -4 OFFCURVE",
"584 131 OFFCURVE",
"584 248 QCURVE SMOOTH",
"584 586 LINE",
"643 599 LINE",
"643 690 LINE",
"415 690 LINE",
"415 602 LINE",
"479 593 LINE",
"479 251 LINE SMOOTH",
"479 101 OFFCURVE",
"353 101 QCURVE SMOOTH"
);
}
);
width = 670;
},
{
layerId = "2CA35139-2F15-4242-9EF2-18C03B487D0C";
paths = (
{
closed = 1;
nodes = (
"474 627 LINE",
"474 213 LINE SMOOTH",
"474 172 OFFCURVE",
"462 144 QCURVE SMOOTH",
"426 63 OFFCURVE",
"319 63 QCURVE SMOOTH",
"246 63 OFFCURVE",
"164 141 OFFCURVE",
"164 213 QCURVE SMOOTH",
"164 627 LINE",
"219 635 LINE",
"215 691 LINE",
"38 691 LINE",
"38 631 LINE",
"96 627 LINE",
"96 202 LINE SMOOTH",
"96 109 OFFCURVE",
"157 52 QCURVE SMOOTH",
"217 -4 OFFCURVE",
"409 -4 OFFCURVE",
"471 50 QCURVE SMOOTH",
"536 106 OFFCURVE",
"536 202 QCURVE SMOOTH",
"536 627 LINE",
"591 635 LINE",
"587 691 LINE",
"417 691 LINE",
"417 631 LINE"
);
}
);
width = 628;
},
{
layerId = "632A4CD3-2375-47CC-B7F1-E224D812DAB9";
paths = (
{
closed = 1;
nodes = (
"411 618 LINE",
"472 609 LINE",
"472 234 LINE SMOOTH",
"472 191 OFFCURVE",
"460 162 QCURVE SMOOTH",
"427 82 OFFCURVE",
"334 82 QCURVE SMOOTH",
"262 82 OFFCURVE",
"192 162 OFFCURVE",
"192 233 QCURVE SMOOTH",
"192 608 LINE",
"261 617 LINE",
"261 691 LINE",
"30 691 LINE",
"30 616 LINE",
"92 610 LINE",
"92 230 LINE SMOOTH",
"92 119 OFFCURVE",
"216 -4 OFFCURVE",
"331 -4 QCURVE SMOOTH",
"425 -4 OFFCURVE",
"486 52 QCURVE SMOOTH",
"556 114 OFFCURVE",
"556 230 QCURVE SMOOTH",
"556 607 LINE",
"613 617 LINE",
"613 691 LINE",
"411 691 LINE"
);
}
);
width = 647;
}
);
leftKerningGroup = U;
rightKerningGroup = U;
unicode = 0055;
userData = {
com.typemytype.robofont.mark = (
0.713,
0.6,
1,
1
);
};
},
{
color = 4;
glyphname = Uacute;
layers = (
{
anchors = (
{
name = _top;
position = "{320, 691}";
}
);
components = (
{
name = U;
}
);
layerId = "CBC04B6C-E875-491C-A1C2-2B8D0972DDA1";
paths = (
{
closed = 1;
nodes = (
"443 818 LINE",
"406 890 LINE",
"376 897 LINE",
"218 764 LINE {name = hr00;}",
"250 717 LINE"
);
}
);
width = 628;
},
{
anchors = (
{
name = _top;
position = "{355, 691}";
}
);
components = (
{
name = U;
}
);
layerId = "682D4A5D-117B-492A-B436-118C610C28E8";
paths = (
{
closed = 1;
nodes = (
"475 865 LINE",
"398 971 LINE",
"362 957 LINE",
"235 796 LINE",
"281 744 LINE"
);
}
);
width = 670;
},
{
layerId = "97A2F932-1121-41E4-AD06-4A872C221506";
paths = (
{
closed = 1;
nodes = (
"278 101 OFFCURVE",
"219 175 OFFCURVE",
"219 250 QCURVE SMOOTH",
"219 592 LINE",
"290 603 LINE",
"290 691 LINE",
"21 691 LINE",
"21 602 LINE",
"88 593 LINE",
"88 248 LINE SMOOTH",
"88 124 OFFCURVE",
"146 62 QCURVE SMOOTH",
"208 -4 OFFCURVE",
"353 -4 QCURVE SMOOTH",
"466 -4 OFFCURVE",
"584 131 OFFCURVE",
"584 248 QCURVE SMOOTH",
"584 587 LINE",
"643 600 LINE",
"643 691 LINE",
"415 691 LINE",
"415 603 LINE",
"479 594 LINE",
"479 251 LINE SMOOTH",
"479 101 OFFCURVE",
"353 101 QCURVE SMOOTH"
);
},
{
closed = 1;
nodes = (
"294 741 LINE",
"491 865 LINE",
"413 974 LINE",
"376 959 LINE",
"247 795 LINE"
);
}
);
width = 670;
},
{
layerId = "2CA35139-2F15-4242-9EF2-18C03B487D0C";
paths = (
{
closed = 1;
nodes = (
"251 717 LINE",
"444 818 LINE",
"407 890 LINE",
"377 897 LINE",
"219 764 LINE"
);
},
{
closed = 1;
nodes = (
"474 627 LINE",
"474 213 LINE SMOOTH",
"474 172 OFFCURVE",
"462 144 QCURVE SMOOTH",
"426 63 OFFCURVE",
"319 63 QCURVE SMOOTH",
"246 63 OFFCURVE",
"164 141 OFFCURVE",
"164 213 QCURVE SMOOTH",
"164 627 LINE",
"219 635 LINE",
"215 691 LINE",
"38 691 LINE",
"38 631 LINE",
"96 627 LINE",
"96 202 LINE SMOOTH",
"96 109 OFFCURVE",
"157 52 QCURVE SMOOTH",
"217 -4 OFFCURVE",
"409 -4 OFFCURVE",
"471 50 QCURVE SMOOTH",
"536 106 OFFCURVE",
"536 202 QCURVE SMOOTH",
"536 627 LINE",
"591 635 LINE",
"587 691 LINE",
"417 691 LINE",
"417 631 LINE"
);
}
);
width = 628;
},
{
layerId = "632A4CD3-2375-47CC-B7F1-E224D812DAB9";
paths = (
{
closed = 1;
nodes = (
"237 780 LINE",
"277 729 LINE",
"471 841 LINE",
"415 932 LINE",
"381 928 LINE"
);
},
{
closed = 1;
nodes = (
"192 608 LINE",
"261 617 LINE",
"261 691 LINE",
"30 691 LINE",
"30 616 LINE",
"92 610 LINE",
"92 230 LINE SMOOTH",
"92 119 OFFCURVE",
"212 -4 OFFCURVE",
"327 -4 QCURVE SMOOTH",
"421 -4 OFFCURVE",
"480 52 QCURVE SMOOTH",
"547 114 OFFCURVE",
"547 230 QCURVE SMOOTH",
"547 607 LINE",
"604 617 LINE",
"604 691 LINE",
"402 691 LINE",
"402 618 LINE",
"463 609 LINE",
"463 234 LINE SMOOTH",
"463 191 OFFCURVE",
"452 162 QCURVE SMOOTH",
"422 82 OFFCURVE",
"330 82 QCURVE SMOOTH",
"192 82 OFFCURVE",
"192 233 QCURVE SMOOTH"
);
}
);
width = 638;
}
);
unicode = 00DA;
},
{
color = 4;
glyphname = Ucircumflex;
layers = (
{
components = (
{
name = U;
},
{
name = circumflexcomb.case;
transform = "{1, 0, 0, 1, 310, 210}";
}
);
layerId = "CBC04B6C-E875-491C-A1C2-2B8D0972DDA1";
width = 628;
},
{
components = (
{
name = U;
},
{
name = circumflexcomb.case;
transform = "{1, 0, 0, 1, 355, 200}";
}
);
layerId = "682D4A5D-117B-492A-B436-118C610C28E8";
width = 670;
},
{
layerId = "97A2F932-1121-41E4-AD06-4A872C221506";
paths = (
{
closed = 1;
nodes = (
"157 724 LINE",
"242 724 LINE",
"340 782 LINE",
"438 724 LINE",
"524 724 LINE",
"531 736 LINE",
"359 903 LINE",
"322 903 LINE",
"151 737 LINE"
);
},
{
closed = 1;
nodes = (
"278 101 OFFCURVE",
"219 175 OFFCURVE",
"219 250 QCURVE SMOOTH",
"219 592 LINE",
"290 603 LINE",
"290 691 LINE",
"21 691 LINE",
"21 602 LINE",
"88 593 LINE",
"88 248 LINE SMOOTH",
"88 124 OFFCURVE",
"146 62 QCURVE SMOOTH",
"208 -4 OFFCURVE",
"353 -4 QCURVE SMOOTH",
"466 -4 OFFCURVE",
"584 131 OFFCURVE",
"584 248 QCURVE SMOOTH",
"584 587 LINE",
"643 600 LINE",
"643 691 LINE",
"415 691 LINE",
"415 603 LINE",
"479 594 LINE",
"479 251 LINE SMOOTH",
"479 101 OFFCURVE",
"353 101 QCURVE SMOOTH"
);
}
);
width = 670;
},
{
layerId = "2CA35139-2F15-4242-9EF2-18C03B487D0C";
paths = (
{
closed = 1;
nodes = (
"161 727 LINE",
"235 727 LINE",
"310 790 LINE",
"386 727 LINE",
"460 727 LINE",
"319 884 LINE",
"303 884 LINE"
);
},
{
closed = 1;
nodes = (
"474 627 LINE",
"474 213 LINE SMOOTH",
"474 172 OFFCURVE",
"462 144 QCURVE SMOOTH",
"426 63 OFFCURVE",
"319 63 QCURVE SMOOTH",
"246 63 OFFCURVE",
"164 141 OFFCURVE",
"164 213 QCURVE SMOOTH",
"164 627 LINE",
"219 635 LINE",
"215 691 LINE",
"38 691 LINE",
"38 631 LINE",
"96 627 LINE",
"96 202 LINE SMOOTH",
"96 109 OFFCURVE",
"157 52 QCURVE SMOOTH",
"217 -4 OFFCURVE",
"409 -4 OFFCURVE",
"471 50 QCURVE SMOOTH",
"536 106 OFFCURVE",
"536 202 QCURVE SMOOTH",
"536 627 LINE",
"591 635 LINE",
"587 691 LINE",
"417 691 LINE",
"417 631 LINE"
);
}
);
width = 628;
},
{
layerId = "632A4CD3-2375-47CC-B7F1-E224D812DAB9";
paths = (
{
closed = 1;
nodes = (
"192 608 LINE",
"261 617 LINE",
"261 691 LINE",
"30 691 LINE",
"30 616 LINE",
"92 610 LINE",
"92 230 LINE SMOOTH",
"92 119 OFFCURVE",
"212 -4 OFFCURVE",
"327 -4 QCURVE SMOOTH",
"421 -4 OFFCURVE",
"480 52 QCURVE SMOOTH",
"547 114 OFFCURVE",
"547 230 QCURVE SMOOTH",
"547 607 LINE",
"604 617 LINE",
"604 691 LINE",
"402 691 LINE",
"402 618 LINE",
"463 609 LINE",
"463 234 LINE SMOOTH",
"463 191 OFFCURVE",
"452 162 QCURVE SMOOTH",
"422 82 OFFCURVE",
"330 82 QCURVE SMOOTH",
"192 82 OFFCURVE",
"192 233 QCURVE SMOOTH"
);
},
{
closed = 1;
nodes = (
"316 894 LINE",
"159 732 LINE",
"160 726 LINE",
"242 726 LINE",
"328 785 LINE",
"415 726 LINE",
"497 726 LINE",
"498 731 LINE",
"342 894 LINE"
);
}
);
width = 638;
}
);
unicode = 00DB;
},
{
color = 4;
glyphname = Udieresis;
layers = (
{
anchors = (
{
name = _top;
position = "{310, 691}";
},
{
name = top;
position = "{310, 881}";
}
);
components = (
{
name = U;
}
);
layerId = "CBC04B6C-E875-491C-A1C2-2B8D0972DDA1";
paths = (
{
closed = 1;
nodes = (
"430 733 OFFCURVE",
"456 762 OFFCURVE",
"456 792 CURVE SMOOTH",
"456 824 OFFCURVE",
"430 851 OFFCURVE",
"400 851 CURVE SMOOTH",
"366 851 OFFCURVE",
"341 824 OFFCURVE",
"341 792 CURVE SMOOTH {name = hr00;}",
"341 762 OFFCURVE",
"366 733 OFFCURVE",
"400 733 CURVE SMOOTH"
);
},
{
closed = 1;
nodes = (
"253 733 OFFCURVE",
"279 763 OFFCURVE",
"279 793 CURVE SMOOTH",
"279 826 OFFCURVE",
"253 853 OFFCURVE",
"222 853 CURVE SMOOTH",
"187 853 OFFCURVE",
"163 826 OFFCURVE",
"163 793 CURVE SMOOTH",
"163 763 OFFCURVE",
"187 733 OFFCURVE",
"222 733 CURVE SMOOTH"
);
}
);
width = 628;
},
{
anchors = (
{
name = _top;
position = "{355, 691}";
},
{
name = top;
position = "{355, 891}";
}
);
components = (
{
name = U;
}
);
layerId = "682D4A5D-117B-492A-B436-118C610C28E8";
paths = (
{
closed = 1;
nodes = (
"487 739 OFFCURVE",
"515 768 OFFCURVE",
"515 804 CURVE SMOOTH {name = hr02;}",
"515 841 OFFCURVE",
"487 869 OFFCURVE",
"450 869 CURVE SMOOTH {name = hr03;}",
"413 869 OFFCURVE",
"385 841 OFFCURVE",
"385 804 CURVE SMOOTH",
"385 768 OFFCURVE",
"413 739 OFFCURVE",
"450 739 CURVE SMOOTH {name = hr01;}"
);
},
{
closed = 1;
nodes = (
"297 739 OFFCURVE",
"325 768 OFFCURVE",
"325 804 CURVE SMOOTH",
"325 841 OFFCURVE",
"297 869 OFFCURVE",
"260 869 CURVE SMOOTH",
"224 869 OFFCURVE",
"195 841 OFFCURVE",
"195 804 CURVE SMOOTH {name = hr00;}",
"195 768 OFFCURVE",
"224 739 OFFCURVE",
"260 739 CURVE SMOOTH"
);
}
);
width = 670;
},
{
layerId = "97A2F932-1121-41E4-AD06-4A872C221506";
paths = (
{
closed = 1;
nodes = (
"278 101 OFFCURVE",
"219 175 OFFCURVE",
"219 250 QCURVE SMOOTH",
"219 591 LINE",
"290 602 LINE",
"290 690 LINE",
"21 690 LINE",
"21 601 LINE",
"88 592 LINE",
"88 248 LINE SMOOTH",
"88 124 OFFCURVE",
"146 62 QCURVE SMOOTH",
"208 -4 OFFCURVE",
"353 -4 QCURVE SMOOTH",
"466 -4 OFFCURVE",
"584 131 OFFCURVE",
"584 248 QCURVE SMOOTH",
"584 586 LINE",
"643 599 LINE",
"643 690 LINE",
"415 690 LINE",
"415 602 LINE",
"479 593 LINE",
"479 251 LINE SMOOTH",
"479 101 OFFCURVE",
"353 101 QCURVE SMOOTH"
);
},
{
closed = 1;
nodes = (
"193 775 OFFCURVE",
"233 736 OFFCURVE",
"290 736 OFFCURVE",
"330 775 OFFCURVE",
"330 804 QCURVE SMOOTH",
"330 833 OFFCURVE",
"290 873 OFFCURVE",
"233 873 OFFCURVE",
"193 833 OFFCURVE",
"193 804 QCURVE SMOOTH"
);
},
{
closed = 1;
nodes = (
"371 775 OFFCURVE",
"410 736 OFFCURVE",
"439 736 QCURVE SMOOTH",
"468 736 OFFCURVE",
"506 775 OFFCURVE",
"506 804 QCURVE SMOOTH",
"506 833 OFFCURVE",
"468 873 OFFCURVE",
"439 873 QCURVE SMOOTH",
"410 873 OFFCURVE",
"371 833 OFFCURVE",
"371 804 QCURVE SMOOTH"
);
}
);
width = 670;
},
{
layerId = "2CA35139-2F15-4242-9EF2-18C03B487D0C";
paths = (
{
closed = 1;
nodes = (
"474 627 LINE",
"474 213 LINE SMOOTH",
"474 172 OFFCURVE",
"462 144 QCURVE SMOOTH",
"426 63 OFFCURVE",
"319 63 QCURVE SMOOTH",
"246 63 OFFCURVE",
"164 141 OFFCURVE",
"164 213 QCURVE SMOOTH",
"164 627 LINE",
"219 635 LINE",
"215 691 LINE",
"38 691 LINE",
"38 631 LINE",
"96 627 LINE",
"96 202 LINE SMOOTH",
"96 109 OFFCURVE",
"157 52 QCURVE SMOOTH",
"217 -4 OFFCURVE",
"409 -4 OFFCURVE",
"471 50 QCURVE SMOOTH",
"536 106 OFFCURVE",
"536 202 QCURVE SMOOTH",
"536 627 LINE",
"591 635 LINE",
"587 691 LINE",
"417 691 LINE",
"417 631 LINE"
);
},
{
closed = 1;
nodes = (
"164 769 OFFCURVE",
"197 735 OFFCURVE",
"244 735 OFFCURVE",
"279 769 OFFCURVE",
"279 793 QCURVE SMOOTH",
"279 817 OFFCURVE",
"244 850 OFFCURVE",
"197 850 OFFCURVE",
"164 817 OFFCURVE",
"164 793 QCURVE SMOOTH"
);
},
{
closed = 1;
nodes = (
"340 769 OFFCURVE",
"375 735 OFFCURVE",
"423 735 OFFCURVE",
"455 769 OFFCURVE",
"455 793 QCURVE SMOOTH",
"455 817 OFFCURVE",
"423 850 OFFCURVE",
"375 850 OFFCURVE",
"340 817 OFFCURVE",
"340 793 QCURVE SMOOTH"
);
}
);
width = 628;
},
{
layerId = "632A4CD3-2375-47CC-B7F1-E224D812DAB9";
paths = (
{
closed = 1;
nodes = (
"411 618 LINE",
"472 609 LINE",
"472 234 LINE SMOOTH",
"472 191 OFFCURVE",
"460 162 QCURVE SMOOTH",
"427 82 OFFCURVE",
"334 82 QCURVE SMOOTH",
"262 82 OFFCURVE",
"192 162 OFFCURVE",
"192 233 QCURVE SMOOTH",
"192 608 LINE",
"261 617 LINE",
"261 691 LINE",
"30 691 LINE",
"30 616 LINE",
"92 610 LINE",
"92 230 LINE SMOOTH",
"92 119 OFFCURVE",
"216 -4 OFFCURVE",
"331 -4 QCURVE SMOOTH",
"425 -4 OFFCURVE",
"486 52 QCURVE SMOOTH",
"556 114 OFFCURVE",
"556 230 QCURVE SMOOTH",
"556 607 LINE",
"613 617 LINE",
"613 691 LINE",
"411 691 LINE"
);
},
{
closed = 1;
nodes = (
"498 910 OFFCURVE",
"461 948 OFFCURVE",
"408 948 OFFCURVE",
"370 910 OFFCURVE",
"370 859 OFFCURVE",
"409 820 OFFCURVE",
"460 820 OFFCURVE",
"498 858 OFFCURVE",
"498 884 QCURVE SMOOTH"
);
},
{
closed = 1;
nodes = (
"193 858 OFFCURVE",
"230 820 OFFCURVE",
"280 820 OFFCURVE",
"319 857 OFFCURVE",
"319 910 OFFCURVE",
"282 948 OFFCURVE",
"229 948 OFFCURVE",
"193 910 OFFCURVE",
"193 884 QCURVE SMOOTH"
);
}
);
width = 647;
}
);
unicode = 00DC;
},
{
color = 4;
glyphname = Ugrave;
layers = (
{
anchors = (
{
name = _top;
position = "{310, 691}";
}
);
components = (
{
name = U;
}
);
layerId = "CBC04B6C-E875-491C-A1C2-2B8D0972DDA1";
paths = (
{
closed = 1;
nodes = (
"424 764 LINE",
"256 897 LINE",
"226 890 LINE",
"189 818 LINE",
"393 717 LINE {name = hr00;}"
);
}
);
width = 628;
},
{
anchors = (
{
name = _top;
position = "{355, 691}";
}
);
components = (
{
name = U;
}
);
layerId = "682D4A5D-117B-492A-B436-118C610C28E8";
paths = (
{
closed = 1;
nodes = (
"463 766 LINE",
"351 943 LINE",
"316 960 LINE",
"239 869 LINE",
"422 725 LINE"
);
}
);
width = 670;
},
{
layerId = "97A2F932-1121-41E4-AD06-4A872C221506";
paths = (
{
closed = 1;
nodes = (
"278 101 OFFCURVE",
"219 175 OFFCURVE",
"219 250 QCURVE SMOOTH",
"219 592 LINE",
"290 603 LINE",
"290 691 LINE",
"21 691 LINE",
"21 602 LINE",
"88 593 LINE",
"88 248 LINE SMOOTH",
"88 124 OFFCURVE",
"146 62 QCURVE SMOOTH",
"208 -4 OFFCURVE",
"353 -4 QCURVE SMOOTH",
"466 -4 OFFCURVE",
"584 131 OFFCURVE",
"584 248 QCURVE SMOOTH",
"584 587 LINE",
"643 600 LINE",
"643 691 LINE",
"415 691 LINE",
"415 603 LINE",
"479 594 LINE",
"479 251 LINE SMOOTH",
"479 101 OFFCURVE",
"353 101 QCURVE SMOOTH"
);
},
{
closed = 1;
nodes = (
"436 765 LINE",
"324 942 LINE",
"289 959 LINE",
"212 868 LINE",
"395 724 LINE"
);
}
);
width = 670;
},
{
layerId = "2CA35139-2F15-4242-9EF2-18C03B487D0C";
paths = (
{
closed = 1;
nodes = (
"424 764 LINE",
"256 897 LINE",
"225 890 LINE",
"189 818 LINE",
"392 717 LINE"
);
},
{
closed = 1;
nodes = (
"474 627 LINE",
"474 213 LINE SMOOTH",
"474 172 OFFCURVE",
"462 144 QCURVE SMOOTH",
"426 63 OFFCURVE",
"319 63 QCURVE SMOOTH",
"246 63 OFFCURVE",
"164 141 OFFCURVE",
"164 213 QCURVE SMOOTH",
"164 627 LINE",
"219 635 LINE",
"215 691 LINE",
"38 691 LINE",
"38 631 LINE",
"96 627 LINE",
"96 202 LINE SMOOTH",
"96 109 OFFCURVE",
"157 52 QCURVE SMOOTH",
"217 -4 OFFCURVE",
"409 -4 OFFCURVE",
"471 50 QCURVE SMOOTH",
"536 106 OFFCURVE",
"536 202 QCURVE SMOOTH",
"536 627 LINE",
"591 635 LINE",
"587 691 LINE",
"417 691 LINE",
"417 631 LINE"
);
}
);
width = 628;
},
{
layerId = "632A4CD3-2375-47CC-B7F1-E224D812DAB9";
paths = (
{
closed = 1;
nodes = (
"398 720 LINE",
"435 764 LINE",
"295 919 LINE",
"261 925 LINE",
"205 843 LINE"
);
},
{
closed = 1;
nodes = (
"192 608 LINE",
"261 617 LINE",
"261 691 LINE",
"30 691 LINE",
"30 616 LINE",
"92 610 LINE",
"92 230 LINE SMOOTH",
"92 119 OFFCURVE",
"212 -4 OFFCURVE",
"327 -4 QCURVE SMOOTH",
"421 -4 OFFCURVE",
"480 52 QCURVE SMOOTH",
"547 114 OFFCURVE",
"547 230 QCURVE SMOOTH",
"547 607 LINE",
"604 617 LINE",
"604 691 LINE",
"402 691 LINE",
"402 618 LINE",
"463 609 LINE",
"463 234 LINE SMOOTH",
"463 191 OFFCURVE",
"452 162 QCURVE SMOOTH",
"422 82 OFFCURVE",
"330 82 QCURVE SMOOTH",
"192 82 OFFCURVE",
"192 233 QCURVE SMOOTH"
);
}
);
width = 638;
}
);
unicode = 00D9;
},
{
color = 4;
glyphname = V;
layers = (
{
layerId = "CBC04B6C-E875-491C-A1C2-2B8D0972DDA1";
paths = (
{
closed = 1;
nodes = (
"312 0 LINE",
"520 626 LINE",
"560 644 LINE",
"560 691 LINE",
"364 691 LINE",
"364 646 LINE",
"455 629 LINE",
"284 111 LINE",
"117 626 LINE",
"205 647 LINE",
"205 691 LINE {name = hr00;}",
"8 691 LINE",
"8 644 LINE",
"44 626 LINE",
"247 0 LINE"
);
}
);
width = 562;
},
{
layerId = "682D4A5D-117B-492A-B436-118C610C28E8";
paths = (
{
closed = 1;
nodes = (
"391 0 LINE",
"598 595 LINE",
"635 602 LINE",
"635 691 LINE",
"402 691 LINE",
"402 613 LINE",
"493 595 LINE",
"338 130 LINE",
"181 595 LINE",
"258 612 LINE",
"244 691 LINE",
"4 691 LINE {name = hr00;}",
"4 602 LINE",
"40 595 LINE",
"250 0 LINE"
);
}
);
width = 639;
},
{
layerId = "97A2F932-1121-41E4-AD06-4A872C221506";
paths = (
{
closed = 1;
nodes = (
"4 690 LINE",
"4 601 LINE",
"40 594 LINE",
"250 0 LINE",
"391 0 LINE",
"598 594 LINE",
"635 601 LINE",
"635 690 LINE",
"402 690 LINE",
"402 612 LINE",
"493 594 LINE",
"485 568 OFFCURVE",
"457 485 OFFCURVE",
"441 437 QCURVE SMOOTH",
"408 339 LINE SMOOTH",
"377 245 OFFCURVE",
"352 172 QCURVE SMOOTH",
"341 141 OFFCURVE",
"338 130 QCURVE",
"181 594 LINE",
"258 611 LINE",
"244 690 LINE"
);
}
);
width = 639;
},
{
layerId = "2CA35139-2F15-4242-9EF2-18C03B487D0C";
paths = (
{
closed = 1;
nodes = (
"8 691 LINE",
"8 644 LINE",
"44 626 LINE",
"247 0 LINE",
"312 0 LINE",
"520 626 LINE",
"560 644 LINE",
"560 691 LINE",
"364 691 LINE",
"364 646 LINE",
"455 629 LINE",
"284 111 LINE",
"117 626 LINE",
"205 647 LINE",
"205 691 LINE"
);
}
);
width = 562;
},
{
layerId = "632A4CD3-2375-47CC-B7F1-E224D812DAB9";
paths = (
{
closed = 1;
nodes = (
"575 691 LINE",
"356 691 LINE",
"356 629 LINE",
"446 612 LINE",
"297 156 LINE",
"150 610 LINE",
"241 629 LINE",
"233 691 LINE",
"7 691 LINE",
"7 623 LINE",
"43 610 LINE",
"243 0 LINE",
"335 0 LINE",
"537 610 LINE",
"575 623 LINE"
);
}
);
width = 579;
}
);
unicode = 0056;
userData = {
com.typemytype.robofont.mark = (
0.713,
0.6,
1,
1
);
};
},
{
color = 4;
glyphname = W;
layers = (
{
anchors = (
{
name = bottom;
position = "{436, 0}";
},
{
name = top;
position = "{430, 691}";
}
);
layerId = "CBC04B6C-E875-491C-A1C2-2B8D0972DDA1";
paths = (
{
closed = 1;
nodes = (
"281 0 LINE",
"431 576 LINE",
"582 0 LINE",
"673 0 LINE",
"806 626 LINE",
"846 644 LINE",
"846 691 LINE",
"664 691 LINE",
"664 646 LINE",
"742 629 LINE",
"628 82 LINE",
"476 668 LINE",
"391 668 LINE",
"236 88 LINE",
"123 626 LINE",
"201 647 LINE",
"201 691 LINE {name = hr00;}",
"13 691 LINE",
"13 644 LINE",
"52 626 LINE",
"181 0 LINE"
);
}
);
width = 856;
},
{
anchors = (
{
name = bottom;
position = "{503, 0}";
},
{
name = top;
position = "{511, 691}";
}
);
layerId = "682D4A5D-117B-492A-B436-118C610C28E8";
paths = (
{
closed = 1;
nodes = (
"356 0 LINE",
"491 507 LINE",
"632 0 LINE",
"800 0 LINE",
"910 583 LINE",
"988 603 LINE",
"988 691 LINE",
"739 691 LINE {name = hr00;}",
"728 615 LINE",
"812 602 LINE",
"734 129 LINE",
"585 678 LINE {name = hr01;}",
"443 678 LINE",
"289 140 LINE",
"207 602 LINE",
"277 612 LINE",
"260 691 LINE {name = hr02;}",
"16 691 LINE",
"16 601 LINE",
"71 588 LINE",
"181 0 LINE"
);
}
);
width = 985;
},
{
layerId = "97A2F932-1121-41E4-AD06-4A872C221506";
paths = (
{
closed = 1;
nodes = (
"739 690 LINE",
"728 614 LINE",
"812 601 LINE",
"734 129 LINE",
"585 677 LINE",
"443 677 LINE",
"289 143 LINE",
"207 601 LINE",
"277 611 LINE",
"260 690 LINE",
"16 690 LINE",
"16 600 LINE",
"71 587 LINE",
"181 0 LINE",
"355 0 LINE",
"491 506 LINE",
"632 0 LINE",
"800 0 LINE",
"910 582 LINE",
"988 602 LINE",
"988 690 LINE"
);
}
);
width = 985;
},
{
layerId = "2CA35139-2F15-4242-9EF2-18C03B487D0C";
paths = (
{
closed = 1;
nodes = (
"13 691 LINE",
"13 644 LINE",
"52 626 LINE",
"181 0 LINE",
"281 0 LINE",
"431 576 LINE",
"582 0 LINE",
"673 0 LINE",
"806 626 LINE",
"846 644 LINE",
"846 691 LINE",
"664 691 LINE",
"664 646 LINE",
"742 629 LINE",
"628 82 LINE",
"476 668 LINE",
"391 668 LINE",
"236 88 LINE",
"123 626 LINE",
"201 647 LINE",
"201 691 LINE"
);
}
);
width = 856;
},
{
layerId = "632A4CD3-2375-47CC-B7F1-E224D812DAB9";
paths = (
{
closed = 1;
nodes = (
"230 691 LINE",
"15 691 LINE",
"15 622 LINE",
"65 607 LINE",
"178 0 LINE",
"311 0 LINE",
"446 511 LINE",
"580 0 LINE",
"712 0 LINE",
"830 604 LINE",
"889 623 LINE",
"889 691 LINE",
"674 691 LINE",
"668 630 LINE",
"750 615 LINE",
"656 109 LINE",
"506 673 LINE",
"406 673 LINE",
"257 113 LINE",
"166 613 LINE",
"239 629 LINE"
);
}
);
width = 894;
}
);
unicode = 0057;
userData = {
com.typemytype.robofont.mark = (
0.713,
0.6,
1,
1
);
};
},
{
color = 4;
glyphname = X;
layers = (
{
layerId = "CBC04B6C-E875-491C-A1C2-2B8D0972DDA1";
paths = (
{
closed = 1;
nodes = (
"197 0 LINE",
"197 48 LINE",
"139 58 LINE",
"276 289 LINE",
"418 58 LINE",
"356 52 LINE",
"356 0 LINE",
"554 0 LINE",
"554 52 LINE",
"490 75 LINE",
"325 341 LINE",
"492 630 LINE",
"537 637 LINE",
"537 691 LINE",
"358 691 LINE",
"358 643 LINE",
"417 633 LINE",
"288 401 LINE",
"146 633 LINE",
"217 648 LINE",
"217 691 LINE",
"22 691 LINE",
"22 638 LINE",
"69 627 LINE",
"240 347 LINE",
"65 61 LINE",
"20 54 LINE",
"20 0 LINE {name = hr00;}"
);
}
);
width = 566;
},
{
layerId = "682D4A5D-117B-492A-B436-118C610C28E8";
paths = (
{
closed = 1;
nodes = (
"238 0 LINE",
"238 70 LINE",
"183 76 LINE",
"273 232 LINE",
"363 77 LINE",
"306 71 LINE",
"306 0 LINE",
"577 0 LINE",
"577 71 LINE",
"513 93 LINE",
"370 335 LINE",
"536 593 LINE",
"577 601 LINE",
"577 691 LINE",
"354 691 LINE {name = hr00;}",
"354 614 LINE",
"412 596 LINE",
"312 437 LINE",
"221 598 LINE",
"291 613 LINE",
"277 691 LINE",
"24 691 LINE",
"24 604 LINE",
"66 592 LINE",
"216 332 LINE",
"59 79 LINE",
"13 71 LINE",
"13 0 LINE"
);
}
);
width = 594;
},
{
layerId = "97A2F932-1121-41E4-AD06-4A872C221506";
paths = (
{
closed = 1;
nodes = (
"354 690 LINE",
"354 613 LINE",
"412 595 LINE",
"312 436 LINE",
"283 488 OFFCURVE",
"235 572 OFFCURVE",
"221 597 QCURVE",
"291 612 LINE",
"277 690 LINE",
"24 690 LINE",
"24 603 LINE",
"66 591 LINE",
"216 331 LINE",
"59 79 LINE",
"13 71 LINE",
"13 0 LINE",
"238 0 LINE",
"238 70 LINE",
"183 76 LINE",
"273 232 LINE",
"363 77 LINE",
"306 71 LINE",
"306 0 LINE",
"577 0 LINE",
"577 71 LINE",
"513 93 LINE",
"433 225 OFFCURVE",
"370 334 QCURVE",
"536 592 LINE",
"577 600 LINE",
"577 690 LINE"
);
}
);
width = 594;
},
{
layerId = "2CA35139-2F15-4242-9EF2-18C03B487D0C";
paths = (
{
closed = 1;
nodes = (
"197 0 LINE",
"197 48 LINE",
"139 58 LINE",
"276 289 LINE",
"418 58 LINE",
"356 52 LINE",
"356 0 LINE",
"554 0 LINE",
"554 52 LINE",
"490 75 LINE",
"325 341 LINE",
"492 630 LINE",
"537 637 LINE",
"537 691 LINE",
"358 691 LINE",
"358 643 LINE",
"417 633 LINE",
"288 401 LINE",
"146 633 LINE",
"217 648 LINE",
"217 691 LINE",
"22 691 LINE",
"22 638 LINE",
"69 627 LINE",
"240 347 LINE",
"65 61 LINE",
"20 54 LINE",
"20 0 LINE"
);
}
);
width = 566;
},
{
layerId = "632A4CD3-2375-47CC-B7F1-E224D812DAB9";
paths = (
{
closed = 1;
nodes = (
"20 0 LINE",
"223 0 LINE",
"223 59 LINE",
"167 66 LINE",
"277 254 LINE",
"390 67 LINE",
"327 62 LINE",
"327 0 LINE",
"553 0 LINE",
"553 66 LINE",
"509 78 LINE",
"347 343 LINE",
"510 611 LINE",
"553 618 LINE",
"553 691 LINE",
"350 691 LINE",
"350 628 LINE",
"409 614 LINE",
"297 424 LINE",
"180 615 LINE",
"251 630 LINE",
"243 691 LINE",
"20 691 LINE",
"20 621 LINE",
"62 609 LINE",
"227 335 LINE",
"64 69 LINE",
"20 62 LINE"
);
}
);
width = 574;
}
);
unicode = 0058;
userData = {
com.typemytype.robofont.mark = (
0.713,
0.6,
1,
1
);
};
},
{
color = 4;
glyphname = Y;
layers = (
{
anchors = (
{
name = bottom;
position = "{269, 0}";
},
{
name = top;
position = "{272, 691}";
}
);
layerId = "CBC04B6C-E875-491C-A1C2-2B8D0972DDA1";
paths = (
{
closed = 1;
nodes = (
"411 0 LINE",
"420 52 LINE",
"305 70 LINE",
"305 243 LINE",
"486 621 LINE",
"529 631 LINE",
"529 691 LINE",
"357 691 LINE",
"357 637 LINE",
"418 629 LINE",
"278 330 LINE",
"126 628 LINE",
"189 638 LINE",
"189 691 LINE {name = hr00;}",
"7 691 LINE",
"7 631 LINE",
"50 622 LINE",
"237 257 LINE",
"237 70 LINE",
"121 52 LINE",
"131 0 LINE"
);
}
);
width = 539;
},
{
anchors = (
{
name = bottom;
position = "{301, 0}";
},
{
name = top;
position = "{303, 691}";
}
);
layerId = "682D4A5D-117B-492A-B436-118C610C28E8";
paths = (
{
closed = 1;
nodes = (
"466 0 LINE",
"475 73 LINE",
"360 96 LINE",
"360 251 LINE",
"538 592 LINE",
"582 603 LINE",
"582 691 LINE",
"361 691 LINE",
"361 612 LINE",
"422 601 LINE",
"310 382 LINE",
"186 598 LINE",
"257 612 LINE",
"242 691 LINE",
"-2 691 LINE {name = hr00;}",
"-2 602 LINE",
"38 592 LINE",
"229 252 LINE",
"229 96 LINE",
"115 73 LINE",
"125 0 LINE"
);
}
);
width = 583;
},
{
layerId = "97A2F932-1121-41E4-AD06-4A872C221506";
paths = (
{
closed = 1;
nodes = (
"-2 690 LINE",
"-2 601 LINE",
"38 591 LINE",
"229 252 LINE",
"229 96 LINE",
"115 73 LINE",
"125 0 LINE",
"466 0 LINE",
"475 73 LINE",
"360 96 LINE",
"360 251 LINE",
"538 591 LINE",
"582 602 LINE",
"582 690 LINE",
"361 690 LINE",
"361 611 LINE",
"422 600 LINE",
"310 381 LINE",
"186 597 LINE",
"257 611 LINE",
"242 690 LINE"
);
}
);
width = 583;
},
{
layerId = "2CA35139-2F15-4242-9EF2-18C03B487D0C";
paths = (
{
closed = 1;
nodes = (
"7 691 LINE",
"7 631 LINE",
"50 622 LINE",
"237 257 LINE",
"237 70 LINE",
"121 52 LINE",
"131 0 LINE",
"411 0 LINE",
"420 52 LINE",
"305 70 LINE",
"305 243 LINE",
"486 621 LINE",
"529 631 LINE",
"529 691 LINE",
"357 691 LINE",
"357 637 LINE",
"418 629 LINE",
"278 330 LINE",
"126 628 LINE",
"189 638 LINE",
"189 691 LINE"
);
}
);
width = 539;
},
{
layerId = "632A4CD3-2375-47CC-B7F1-E224D812DAB9";
paths = (
{
closed = 1;
nodes = (
"556 691 LINE",
"361 691 LINE",
"361 625 LINE",
"418 614 LINE",
"296 363 LINE",
"160 613 LINE",
"224 625 LINE",
"217 691 LINE",
"4 691 LINE",
"4 616 LINE",
"44 607 LINE",
"234 252 LINE",
"234 83 LINE",
"119 63 LINE",
"129 0 LINE",
"439 0 LINE",
"449 63 LINE",
"333 83 LINE",
"333 246 LINE",
"513 606 LINE",
"556 616 LINE"
);
}
);
width = 563;
}
);
leftKerningGroup = Y;
rightKerningGroup = Y;
unicode = 0059;
userData = {
com.typemytype.robofont.mark = (
0.713,
0.6,
1,
1
);
};
},
{
color = 4;
glyphname = Yacute;
layers = (
{
components = (
{
name = Y;
},
{
name = acutecomb.case;
transform = "{1, 0, 0, 1, 272, 210}";
}
);
layerId = "CBC04B6C-E875-491C-A1C2-2B8D0972DDA1";
width = 539;
},
{
components = (
{
name = Y;
},
{
name = acutecomb.case;
transform = "{1, 0, 0, 1, 303, 200}";
}
);
layerId = "682D4A5D-117B-492A-B436-118C610C28E8";
width = 583;
},
{
layerId = "97A2F932-1121-41E4-AD06-4A872C221506";
paths = (
{
closed = 1;
nodes = (
"-2 691 LINE",
"-2 602 LINE",
"38 592 LINE",
"229 252 LINE",
"229 96 LINE",
"115 73 LINE",
"125 0 LINE",
"466 0 LINE",
"475 73 LINE",
"360 96 LINE",
"360 251 LINE",
"538 592 LINE",
"582 603 LINE",
"582 691 LINE",
"361 691 LINE",
"361 612 LINE",
"422 601 LINE",
"310 382 LINE",
"186 598 LINE",
"257 612 LINE",
"242 691 LINE"
);
},
{
closed = 1;
nodes = (
"279 741 LINE",
"476 865 LINE",
"398 974 LINE",
"361 959 LINE",
"232 795 LINE"
);
}
);
width = 583;
},
{
layerId = "2CA35139-2F15-4242-9EF2-18C03B487D0C";
paths = (
{
closed = 1;
nodes = (
"200 717 LINE",
"393 818 LINE",
"356 890 LINE",
"326 897 LINE",
"168 764 LINE"
);
},
{
closed = 1;
nodes = (
"7 691 LINE",
"7 631 LINE",
"50 622 LINE",
"237 257 LINE",
"237 70 LINE",
"121 52 LINE",
"131 0 LINE",
"411 0 LINE",
"420 52 LINE",
"305 70 LINE",
"305 243 LINE",
"486 621 LINE",
"529 631 LINE",
"529 691 LINE",
"357 691 LINE",
"357 637 LINE",
"418 629 LINE",
"278 330 LINE",
"126 628 LINE",
"189 638 LINE",
"189 691 LINE"
);
}
);
width = 539;
},
{
layerId = "632A4CD3-2375-47CC-B7F1-E224D812DAB9";
paths = (
{
closed = 1;
nodes = (
"556 691 LINE",
"361 691 LINE",
"361 625 LINE",
"422 614 LINE",
"296 357 LINE",
"157 613 LINE",
"224 625 LINE",
"217 691 LINE",
"4 691 LINE",
"4 616 LINE",
"44 607 LINE",
"234 252 LINE",
"234 83 LINE",
"119 63 LINE",
"129 0 LINE",
"439 0 LINE",
"449 63 LINE",
"333 83 LINE",
"333 246 LINE",
"513 606 LINE",
"556 616 LINE"
);
},
{
closed = 1;
nodes = (
"201 780 LINE",
"241 729 LINE",
"435 841 LINE",
"379 932 LINE",
"345 928 LINE"
);
}
);
width = 563;
}
);
unicode = 00DD;
},
{
color = 4;
glyphname = Z;
layers = (
{
anchors = (
{
name = bottom;
position = "{280, 0}";
},
{
name = top;
position = "{272, 691}";
}
);
layerId = "CBC04B6C-E875-491C-A1C2-2B8D0972DDA1";
paths = (
{
closed = 1;
nodes = (
"493 0 LINE",
"493 170 LINE",
"446 170 LINE",
"426 68 LINE",
"127 68 LINE",
"487 604 LINE {name = hr00;}",
"477 691 LINE",
"52 691 LINE",
"52 521 LINE",
"99 521 LINE",
"119 623 LINE",
"415 623 LINE",
"47 75 LINE",
"56 0 LINE"
);
}
);
width = 542;
},
{
anchors = (
{
name = bottom;
position = "{297, 0}";
},
{
name = top;
position = "{311, 691}";
}
);
layerId = "682D4A5D-117B-492A-B436-118C610C28E8";
paths = (
{
closed = 1;
nodes = (
"518 0 LINE",
"518 215 LINE",
"438 215 LINE",
"420 105 LINE {name = hr01;}",
"205 105 LINE",
"527 598 LINE",
"507 691 LINE",
"47 691 LINE",
"47 476 LINE",
"125 476 LINE",
"144 586 LINE {name = hr02;}",
"365 586 LINE",
"28 79 LINE",
"47 0 LINE {name = hr00;}"
);
}
);
width = 562;
},
{
layerId = "97A2F932-1121-41E4-AD06-4A872C221506";
paths = (
{
closed = 1;
nodes = (
"47 0 LINE",
"518 0 LINE",
"518 215 LINE",
"438 215 LINE",
"420 105 LINE",
"205 105 LINE",
"230 142 OFFCURVE",
"289 232 OFFCURVE",
"478 513 OFFCURVE",
"527 597 QCURVE",
"507 690 LINE",
"47 690 LINE",
"47 475 LINE",
"125 475 LINE",
"144 585 LINE",
"365 585 LINE",
"28 79 LINE"
);
}
);
width = 562;
},
{
layerId = "2CA35139-2F15-4242-9EF2-18C03B487D0C";
paths = (
{
closed = 1;
nodes = (
"477 691 LINE",
"52 691 LINE",
"52 521 LINE",
"99 521 LINE",
"119 623 LINE",
"415 623 LINE",
"47 75 LINE",
"56 0 LINE",
"493 0 LINE",
"493 170 LINE",
"446 170 LINE",
"426 68 LINE",
"127 68 LINE",
"487 604 LINE"
);
}
);
width = 542;
},
{
layerId = "632A4CD3-2375-47CC-B7F1-E224D812DAB9";
paths = (
{
closed = 1;
nodes = (
"492 691 LINE",
"50 691 LINE",
"50 498 LINE",
"113 498 LINE",
"133 605 LINE",
"392 605 LINE",
"37 77 LINE",
"53 0 LINE",
"507 0 LINE",
"507 192 LINE",
"443 192 LINE",
"424 86 LINE",
"169 86 LINE",
"206 143 OFFCURVE",
"297 280 OFFCURVE",
"388 419 OFFCURVE",
"472 549 OFFCURVE",
"504 598 QCURVE"
);
}
);
width = 553;
}
);
unicode = 005A;
userData = {
com.typemytype.robofont.mark = (
0.713,
0.6,
1,
1
);
};
},
{
color = 11;
export = 0;
glyphname = Hbar;
layers = (
{
components = (
{
name = H;
}
);
layerId = "CBC04B6C-E875-491C-A1C2-2B8D0972DDA1";
paths = (
{
closed = 1;
nodes = (
"629 481 LINE",
"629 539 LINE",
"34 539 LINE",
"34 481 LINE"
);
}
);
width = 656;
},
{
components = (
{
name = H;
}
);
layerId = "682D4A5D-117B-492A-B436-118C610C28E8";
paths = (
{
closed = 1;
nodes = (
"25 455 LINE",
"665 455 LINE",
"665 528 LINE",
"25 528 LINE"
);
}
);
width = 702;
}
);
unicode = 0126;
},
{
color = 11;
export = 0;
glyphname = Lslash;
layers = (
{
components = (
{
name = L;
}
);
layerId = "CBC04B6C-E875-491C-A1C2-2B8D0972DDA1";
paths = (
{
closed = 1;
nodes = (
"38 307 LINE",
"295 457 LINE",
"295 508 LINE",
"38 358 LINE"
);
}
);
width = 496;
},
{
components = (
{
name = L;
}
);
layerId = "682D4A5D-117B-492A-B436-118C610C28E8";
paths = (
{
closed = 1;
nodes = (
"38 267 LINE",
"295 417 LINE",
"295 508 LINE",
"38 358 LINE"
);
}
);
width = 524;
}
);
unicode = 0141;
},
{
color = 11;
export = 0;
glyphname = Eng;
layers = (
{
anchors = (
{
name = bottom;
position = "{347, 0}";
},
{
name = top;
position = "{317, 691}";
}
);
layerId = "CBC04B6C-E875-491C-A1C2-2B8D0972DDA1";
paths = (
{
closed = 1;
nodes = (
"462 -194 OFFCURVE",
"554 -190 OFFCURVE",
"554 -46 CURVE SMOOTH",
"554 623 LINE",
"615 635 LINE",
"605 691 LINE",
"427 691 LINE",
"427 635 LINE",
"491 625 LINE",
"491 75 LINE",
"221 691 LINE",
"54 691 LINE",
"54 632 LINE",
"112 627 LINE",
"112 68 LINE",
"54 56 LINE",
"62 0 LINE",
"241 0 LINE",
"241 56 LINE",
"174 66 LINE",
"174 629 LINE",
"449 0 LINE",
"491 0 LINE",
"491 -67 LINE SMOOTH",
"491 -112 OFFCURVE",
"463 -128 OFFCURVE",
"435 -128 CURVE SMOOTH",
"391 -128 OFFCURVE",
"360 -101 OFFCURVE",
"347 -88 CURVE",
"308 -146 LINE",
"340 -174 OFFCURVE",
"385 -194 OFFCURVE",
"430 -194 CURVE SMOOTH"
);
}
);
width = 659;
},
{
anchors = (
{
name = bottom;
position = "{368, 0}";
},
{
name = top;
position = "{358, 691}";
}
);
layerId = "682D4A5D-117B-492A-B436-118C610C28E8";
paths = (
{
closed = 1;
nodes = (
"545 -234 OFFCURVE",
"630 -209 OFFCURVE",
"630 -55 CURVE SMOOTH",
"630 586 LINE",
"697 598 LINE",
"682 691 LINE",
"467 691 LINE",
"467 600 LINE",
"525 593 LINE",
"525 96 LINE",
"298 691 LINE",
"42 691 LINE",
"42 598 LINE",
"106 591 LINE",
"106 100 LINE",
"37 87 LINE",
"53 0 LINE",
"261 0 LINE",
"262 88 LINE",
"211 104 LINE",
"211 563 LINE",
"428 0 LINE",
"499 0 LINE",
"499 -94 LINE SMOOTH",
"499 -113 OFFCURVE",
"492 -120 OFFCURVE",
"482 -120 CURVE SMOOTH",
"464 -120 OFFCURVE",
"436 -101 OFFCURVE",
"398 -70 CURVE",
"328 -171 LINE",
"359 -199 OFFCURVE",
"422 -234 OFFCURVE",
"485 -234 CURVE SMOOTH"
);
}
);
width = 727;
}
);
leftKerningGroup = H;
rightKerningGroup = N;
unicode = 014A;
userData = {
com.typemytype.robofont.mark = (
0.713,
0.6,
1,
1
);
};
},
{
color = 11;
glyphname = a;
layers = (
{
anchors = (
{
name = bottom;
position = "{209, 0}";
},
{
name = ogonek;
position = "{348, 18}";
},
{
name = top;
position = "{215, 481}";
}
);
layerId = "CBC04B6C-E875-491C-A1C2-2B8D0972DDA1";
paths = (
{
closed = 1;
nodes = (
"238 -4 OFFCURVE",
"278 12 OFFCURVE",
"308 40 CURVE",
"314 15 OFFCURVE",
"330 -4 OFFCURVE",
"366 -4 CURVE SMOOTH",
"386 -4 OFFCURVE",
"407 2 OFFCURVE",
"421 17 CURVE",
"410 55 LINE",
"404 53 OFFCURVE",
"396 50 OFFCURVE",
"389 50 CURVE SMOOTH",
"371 50 OFFCURVE",
"366 64 OFFCURVE",
"366 79 CURVE SMOOTH {name = hr00;}",
"366 337 LINE SMOOTH",
"366 423 OFFCURVE",
"319 479 OFFCURVE",
"209 479 CURVE SMOOTH",
"141 479 OFFCURVE",
"71 445 OFFCURVE",
"48 371 CURVE",
"130 356 LINE",
"146 409 LINE",
"163 420 OFFCURVE",
"195 422 OFFCURVE",
"215 422 CURVE SMOOTH",
"268 422 OFFCURVE",
"303 395 OFFCURVE",
"303 352 CURVE SMOOTH",
"303 288 LINE",
"206 286 OFFCURVE",
"41 263 OFFCURVE",
"41 128 CURVE SMOOTH",
"41 45 OFFCURVE",
"110 -4 OFFCURVE",
"190 -4 CURVE SMOOTH"
);
},
{
closed = 1;
nodes = (
"141 53 OFFCURVE",
"107 85 OFFCURVE",
"107 131 CURVE SMOOTH",
"107 219 OFFCURVE",
"235 231 OFFCURVE",
"303 232 CURVE",
"303 108 LINE",
"280 73 OFFCURVE",
"238 53 OFFCURVE",
"197 53 CURVE SMOOTH"
);
}
);
width = 448;
},
{
anchors = (
{
name = bottom;
position = "{239, 0}";
},
{
name = ogonek;
position = "{326, 14}";
},
{
name = top;
position = "{223, 491}";
}
);
layerId = "682D4A5D-117B-492A-B436-118C610C28E8";
paths = (
{
closed = 1;
nodes = (
"220 -4 OFFCURVE",
"259 17 OFFCURVE",
"286 44 CURVE",
"300 15 OFFCURVE",
"326 -4 OFFCURVE",
"366 -4 CURVE SMOOTH",
"407 -4 OFFCURVE",
"437 21 OFFCURVE",
"446 29 CURVE",
"428 85 LINE",
"426 85 OFFCURVE",
"420 83 OFFCURVE",
"413 83 CURVE SMOOTH",
"404 83 OFFCURVE",
"395 87 OFFCURVE",
"395 105 CURVE SMOOTH",
"395 330 LINE SMOOTH {name = hr00;}",
"395 452 OFFCURVE",
"308 491 OFFCURVE",
"223 491 CURVE SMOOTH",
"130 491 OFFCURVE",
"58 437 OFFCURVE",
"30 374 CURVE",
"154 320 LINE",
"180 394 LINE",
"187 397 OFFCURVE",
"198 397 OFFCURVE",
"209 397 CURVE SMOOTH",
"254 397 OFFCURVE",
"274 381 OFFCURVE",
"274 367 CURVE SMOOTH",
"274 288 LINE",
"165 285 OFFCURVE",
"29 246 OFFCURVE",
"29 129 CURVE SMOOTH",
"29 54 OFFCURVE",
"81 -4 OFFCURVE",
"174 -4 CURVE SMOOTH"
);
},
{
closed = 1;
nodes = (
"167 92 OFFCURVE",
"153 115 OFFCURVE",
"153 138 CURVE SMOOTH",
"153 190 OFFCURVE",
"224 202 OFFCURVE",
"274 204 CURVE",
"274 139 LINE",
"264 117 OFFCURVE",
"235 92 OFFCURVE",
"198 92 CURVE SMOOTH"
);
}
);
width = 463;
},
{
layerId = "97A2F932-1121-41E4-AD06-4A872C221506";
paths = (
{
closed = 1;
nodes = (
"310 -4 OFFCURVE",
"366 -4 QCURVE SMOOTH",
"408 -4 OFFCURVE",
"446 29 QCURVE",
"428 85 LINE",
"413 83 LINE",
"395 83 OFFCURVE",
"395 105 QCURVE SMOOTH",
"395 330 LINE SMOOTH",
"395 376 OFFCURVE",
"380 406 QCURVE SMOOTH",
"338 491 OFFCURVE",
"223 491 QCURVE SMOOTH",
"157 491 OFFCURVE",
"102 456 QCURVE SMOOTH",
"50 423 OFFCURVE",
"30 374 QCURVE",
"154 320 LINE",
"180 394 LINE",
"188 397 OFFCURVE",
"222 397 QCURVE SMOOTH",
"243 397 OFFCURVE",
"274 378 OFFCURVE",
"274 367 QCURVE SMOOTH",
"274 288 LINE",
"176 286 OFFCURVE",
"110 252 QCURVE SMOOTH",
"75 233 OFFCURVE",
"29 173 OFFCURVE",
"29 70 OFFCURVE",
"66 34 QCURVE SMOOTH",
"106 -4 OFFCURVE",
"174 -4 QCURVE SMOOTH",
"238 -4 OFFCURVE",
"286 44 QCURVE"
);
},
{
closed = 1;
nodes = (
"274 139 LINE",
"266 122 OFFCURVE",
"226 92 OFFCURVE",
"175 92 OFFCURVE",
"153 121 OFFCURVE",
"153 138 QCURVE SMOOTH",
"153 198 OFFCURVE",
"274 204 QCURVE"
);
}
);
width = 463;
},
{
layerId = "2CA35139-2F15-4242-9EF2-18C03B487D0C";
paths = (
{
closed = 1;
nodes = (
"320 -4 OFFCURVE",
"366 -4 QCURVE SMOOTH",
"400 -4 OFFCURVE",
"421 17 QCURVE",
"410 55 LINE",
"398 50 OFFCURVE",
"389 50 QCURVE SMOOTH",
"366 50 OFFCURVE",
"366 79 QCURVE SMOOTH",
"366 337 LINE SMOOTH",
"366 402 OFFCURVE",
"292 479 OFFCURVE",
"209 479 QCURVE SMOOTH",
"154 479 OFFCURVE",
"112 452 QCURVE SMOOTH",
"65 423 OFFCURVE",
"48 371 QCURVE",
"130 356 LINE",
"146 409 LINE",
"167 422 OFFCURVE",
"215 422 QCURVE SMOOTH",
"255 422 OFFCURVE",
"303 384 OFFCURVE",
"303 352 QCURVE SMOOTH",
"303 288 LINE",
"200 285 OFFCURVE",
"136 258 QCURVE SMOOTH",
"96 241 OFFCURVE",
"41 179 OFFCURVE",
"41 68 OFFCURVE",
"86 31 QCURVE SMOOTH",
"128 -4 OFFCURVE",
"190 -4 QCURVE SMOOTH",
"260 -4 OFFCURVE",
"308 40 QCURVE"
);
},
{
closed = 1;
nodes = (
"178 232 OFFCURVE",
"303 232 QCURVE",
"303 108 LINE",
"267 53 OFFCURVE",
"192 53 QCURVE SMOOTH",
"155 53 OFFCURVE",
"107 96 OFFCURVE",
"107 164 OFFCURVE",
"128 184 QCURVE SMOOTH"
);
}
);
width = 448;
},
{
layerId = "632A4CD3-2375-47CC-B7F1-E224D812DAB9";
paths = (
{
closed = 1;
nodes = (
"314 -4 OFFCURVE",
"371 -4 QCURVE SMOOTH",
"409 -4 OFFCURVE",
"440 22 QCURVE",
"418 75 LINE",
"404 68 OFFCURVE",
"397 68 QCURVE SMOOTH",
"383 68 OFFCURVE",
"383 89 QCURVE SMOOTH",
"383 345 LINE SMOOTH",
"383 408 OFFCURVE",
"300 486 OFFCURVE",
"222 486 QCURVE SMOOTH",
"182 486 OFFCURVE",
"150 476 QCURVE SMOOTH",
"60 447 OFFCURVE",
"37 364 QCURVE",
"142 333 LINE",
"162 398 LINE",
"180 414 OFFCURVE",
"217 414 QCURVE SMOOTH",
"256 414 OFFCURVE",
"293 381 OFFCURVE",
"293 361 QCURVE SMOOTH",
"293 290 LINE",
"175 288 OFFCURVE",
"114 257 QCURVE SMOOTH",
"79 239 OFFCURVE",
"36 177 OFFCURVE",
"36 71 OFFCURVE",
"119 -5 OFFCURVE",
"255 -5 OFFCURVE",
"299 41 QCURVE"
);
},
{
closed = 1;
nodes = (
"293 131 LINE",
"285 107 OFFCURVE",
"264 91 QCURVE SMOOTH",
"253 82 OFFCURVE",
"222 69 OFFCURVE",
"192 69 OFFCURVE",
"168 74 OFFCURVE",
"146 89 OFFCURVE",
"131 114 OFFCURVE",
"131 163 OFFCURVE",
"165 196 OFFCURVE",
"227 217 OFFCURVE",
"293 217 QCURVE"
);
}
);
width = 460;
}
);
leftKerningGroup = a;
rightKerningGroup = a;
unicode = 0061;
userData = {
com.typemytype.robofont.mark = (
0.713,
0.6,
1,
1
);
};
},
{
color = 11;
glyphname = aacute;
layers = (
{
components = (
{
name = a;
},
{
name = acutecomb;
transform = "{1, 0, 0, 1, 215, 0}";
}
);
layerId = "CBC04B6C-E875-491C-A1C2-2B8D0972DDA1";
width = 448;
},
{
components = (
{
name = a;
},
{
name = acutecomb;
transform = "{1, 0, 0, 1, 223, 0}";
}
);
layerId = "682D4A5D-117B-492A-B436-118C610C28E8";
width = 463;
},
{
associatedMasterId = "CBC04B6C-E875-491C-A1C2-2B8D0972DDA1";
components = (
{
name = a;
}
);
layerId = "50E1C7F4-21AD-4889-8F63-DC09BA64F52E";
name = "Jul 26 18, 23:16";
paths = (
{
closed = 1;
nodes = (
"253 725 LINE",
"280 725 LINE",
"324 673 LINE",
"184 553 LINE",
"149 586 LINE"
);
}
);
width = 448;
},
{
layerId = "97A2F932-1121-41E4-AD06-4A872C221506";
paths = (
{
closed = 1;
nodes = (
"310 -4 OFFCURVE",
"366 -4 QCURVE SMOOTH",
"408 -4 OFFCURVE",
"446 29 QCURVE",
"428 85 LINE",
"413 83 LINE",
"395 83 OFFCURVE",
"395 105 QCURVE SMOOTH",
"395 330 LINE SMOOTH",
"395 376 OFFCURVE",
"380 406 QCURVE SMOOTH",
"338 491 OFFCURVE",
"223 491 QCURVE SMOOTH",
"157 491 OFFCURVE",
"102 456 QCURVE SMOOTH",
"50 423 OFFCURVE",
"30 374 QCURVE",
"154 320 LINE",
"180 394 LINE",
"188 397 OFFCURVE",
"222 397 QCURVE SMOOTH",
"243 397 OFFCURVE",
"274 378 OFFCURVE",
"274 367 QCURVE SMOOTH",
"274 288 LINE",
"176 286 OFFCURVE",
"110 252 QCURVE SMOOTH",
"75 233 OFFCURVE",
"29 173 OFFCURVE",
"29 70 OFFCURVE",
"66 34 QCURVE SMOOTH",
"106 -4 OFFCURVE",
"174 -4 QCURVE SMOOTH",
"238 -4 OFFCURVE",
"286 44 QCURVE"
);
},
{
closed = 1;
nodes = (
"274 139 LINE",
"266 122 OFFCURVE",
"226 92 OFFCURVE",
"175 92 OFFCURVE",
"153 121 OFFCURVE",
"153 138 QCURVE SMOOTH",
"153 198 OFFCURVE",
"274 204 QCURVE"
);
},
{
closed = 1;
nodes = (
"158 509 LINE",
"351 630 LINE",
"274 736 LINE",
"238 722 LINE",
"112 561 LINE"
);
}
);
width = 463;
},
{
layerId = "2CA35139-2F15-4242-9EF2-18C03B487D0C";
paths = (
{
closed = 1;
nodes = (
"320 -4 OFFCURVE",
"366 -4 QCURVE SMOOTH",
"400 -4 OFFCURVE",
"421 17 QCURVE",
"410 55 LINE",
"398 50 OFFCURVE",
"389 50 QCURVE SMOOTH",
"366 50 OFFCURVE",
"366 79 QCURVE SMOOTH",
"366 337 LINE SMOOTH",
"366 402 OFFCURVE",
"292 479 OFFCURVE",
"209 479 QCURVE SMOOTH",
"154 479 OFFCURVE",
"112 452 QCURVE SMOOTH",
"65 423 OFFCURVE",
"48 371 QCURVE",
"130 356 LINE",
"146 409 LINE",
"167 422 OFFCURVE",
"215 422 QCURVE SMOOTH",
"255 422 OFFCURVE",
"303 384 OFFCURVE",
"303 352 QCURVE SMOOTH",
"303 288 LINE",
"200 285 OFFCURVE",
"136 258 QCURVE SMOOTH",
"96 241 OFFCURVE",
"41 179 OFFCURVE",
"41 68 OFFCURVE",
"86 31 QCURVE SMOOTH",
"128 -4 OFFCURVE",
"190 -4 QCURVE SMOOTH",
"260 -4 OFFCURVE",
"308 40 QCURVE"
);
},
{
closed = 1;
nodes = (
"178 232 OFFCURVE",
"303 232 QCURVE",
"303 108 LINE",
"267 53 OFFCURVE",
"192 53 QCURVE SMOOTH",
"155 53 OFFCURVE",
"107 96 OFFCURVE",
"107 164 OFFCURVE",
"128 184 QCURVE SMOOTH"
);
},
{
closed = 1;
nodes = (
"184 553 LINE",
"324 673 LINE",
"280 725 LINE",
"253 725 LINE",
"149 586 LINE"
);
}
);
width = 448;
},
{
layerId = "632A4CD3-2375-47CC-B7F1-E224D812DAB9";
paths = (
{
closed = 1;
nodes = (
"314 -4 OFFCURVE",
"371 -4 QCURVE SMOOTH",
"409 -4 OFFCURVE",
"440 22 QCURVE",
"418 75 LINE",
"404 68 OFFCURVE",
"397 68 QCURVE SMOOTH",
"383 68 OFFCURVE",
"383 89 QCURVE SMOOTH",
"383 345 LINE SMOOTH",
"383 408 OFFCURVE",
"300 486 OFFCURVE",
"222 486 QCURVE SMOOTH",
"182 486 OFFCURVE",
"150 476 QCURVE SMOOTH",
"60 447 OFFCURVE",
"37 364 QCURVE",
"142 333 LINE",
"162 398 LINE",
"180 414 OFFCURVE",
"217 414 QCURVE SMOOTH",
"256 414 OFFCURVE",
"293 381 OFFCURVE",
"293 361 QCURVE SMOOTH",
"293 290 LINE",
"175 288 OFFCURVE",
"114 257 QCURVE SMOOTH",
"79 239 OFFCURVE",
"36 177 OFFCURVE",
"36 71 OFFCURVE",
"119 -5 OFFCURVE",
"255 -5 OFFCURVE",
"299 41 QCURVE"
);
},
{
closed = 1;
nodes = (
"293 131 LINE",
"285 107 OFFCURVE",
"264 91 QCURVE SMOOTH",
"253 82 OFFCURVE",
"222 69 OFFCURVE",
"192 69 OFFCURVE",
"168 74 OFFCURVE",
"146 89 OFFCURVE",
"131 114 OFFCURVE",
"131 163 OFFCURVE",
"165 196 OFFCURVE",
"227 217 OFFCURVE",
"293 217 QCURVE"
);
},
{
closed = 1;
nodes = (
"132 573 LINE",
"173 529 LINE",
"339 650 LINE",
"279 730 LINE",
"247 722 LINE"
);
}
);
width = 460;
}
);
leftKerningGroup = a;
rightKerningGroup = a;
unicode = 00E1;
userData = {
com.typemytype.robofont.mark = (
0.713,
0.6,
1,
1
);
};
},
